<svg width="33" height="33" viewBox="0 0 33 33" fill="none" xmlns="http://www.w3.org/2000/svg">
<g clip-path="url(#clip0_9_2921)">
<path d="M24.0498 3.54306C22.4957 3.16208 22.3655 1.91249 20.0459 3.45924C17.7416 4.99838 16.333 6.87277 16.333 6.87277L10.1397 5.84414C10.1397 5.84414 11.4488 3.444 12.7655 2.59062C14.4344 1.1353 16.9608 0.0228526 19.6019 0.0533306C22.2431 0.0838085 25.5809 3.92403 24.0498 3.54306Z" fill="#9BC9DD"/>
<path opacity="0.15" d="M24.0498 3.54306C22.4957 3.16208 22.3655 1.91249 20.0459 3.45924C17.7416 4.99838 16.333 6.87277 16.333 6.87277L10.1397 5.84414C10.1397 5.84414 11.4488 3.444 12.7655 2.59062C14.4344 1.1353 16.9608 0.0228526 19.6019 0.0533306C22.2431 0.0838085 25.5809 3.92403 24.0498 3.54306Z" fill="#9BC9DD"/>
<path d="M2.68325 16.6714C3.12727 18.203 2.10143 18.9344 4.62009 20.1612C7.10813 21.3727 9.44305 21.6546 9.44305 21.6546L11.6478 27.514C11.6478 27.514 8.90717 27.5825 7.50621 26.8739C5.40095 26.1577 3.1732 24.5424 1.87942 22.2489C0.585638 19.9554 2.25454 15.1628 2.6909 16.6638L2.68325 16.6714Z" fill="#9BC9DD"/>
<path opacity="0.15" d="M2.68325 16.6714C3.12727 18.203 2.10143 18.9344 4.62009 20.1612C7.10813 21.3727 9.44305 21.6546 9.44305 21.6546L11.6478 27.514C11.6478 27.514 8.90717 27.5825 7.50621 26.8739C5.40095 26.1577 3.1732 24.5424 1.87942 22.2489C0.585638 19.9554 2.25454 15.1628 2.6909 16.6638L2.68325 16.6714Z" fill="#9BC9DD"/>
<path d="M24.6622 28.3673C25.7723 27.2168 26.9206 27.7349 26.7368 24.9538C26.5531 22.2032 25.6268 20.0469 25.6268 20.0469L29.623 15.2237C29.623 15.2237 31.0546 17.5553 31.1388 19.1173C31.5751 21.2888 31.2766 24.0242 29.9292 26.2796C28.5818 28.535 23.5751 29.495 24.6622 28.3673Z" fill="#9BC9DD"/>
<path opacity="0.15" d="M24.6622 28.3673C25.7723 27.2168 26.9206 27.7349 26.7368 24.9538C26.5531 22.2032 25.6268 20.0469 25.6268 20.0469L29.623 15.2237C29.623 15.2237 31.0546 17.5553 31.1388 19.1173C31.5751 21.2888 31.2766 24.0242 29.9292 26.2796C28.5818 28.535 23.5751 29.495 24.6622 28.3673Z" fill="#9BC9DD"/>
<path d="M17.7187 0.190489C21.6153 2.02679 23.4833 6.8804 23.5828 8.68622C22.1895 8.99862 20.8038 9.03671 20.8038 9.03671L26.9665 14.7666L32.3943 8.6786L30.0057 8.6405C29.0488 4.89171 26.5761 2.62872 24.6852 1.31055C22.8096 -0.0152372 18.6986 -0.220963 17.7187 0.190489Z" fill="#9BC9DD"/>
<path d="M30.7407 24.5881C27.1962 27.0263 22.0364 26.211 20.4134 25.3957C20.8421 24.0395 21.5005 22.828 21.5005 22.828L13.4316 25.2738L16.0115 33L17.244 30.958C20.9799 32.0095 24.1876 31.0037 26.2852 30.0436C28.3751 29.076 30.6105 25.6396 30.7483 24.5881H30.7407Z" fill="#9BC9DD"/>
<path d="M2.93588 23.8033C2.58373 19.5287 5.87559 15.4828 7.39904 14.4999C8.37129 15.5437 9.0909 16.7171 9.0909 16.7171L10.9895 8.54143L2.97416 6.90324L4.13779 8.98336C1.35885 11.6807 0.623918 14.9494 0.417219 17.2353C0.210521 19.5211 2.08612 23.1632 2.93588 23.8033Z" fill="#9BC9DD"/>
</g>
<defs>
<clipPath id="clip0_9_2921">
<rect width="32" height="33" fill="white" transform="translate(0.401917)"/>
</clipPath>
</defs>
</svg>
