<svg width="94" height="102" viewBox="0 0 94 102" fill="none" xmlns="http://www.w3.org/2000/svg">
<g filter="url(#filter0_d_2_165)">
<mask id="path-1-inside-1_2_165" fill="white">
<path fill-rule="evenodd" clip-rule="evenodd" d="M21.9536 1.19849C12.0125 1.19849 3.95361 9.25739 3.95361 19.1985V65.5179C3.95361 75.4591 12.0125 83.5179 21.9536 83.5179H36.691L44.3573 92.3721C44.7561 92.8327 45.4705 92.8327 45.8693 92.3721L53.5356 83.5179H68.2731C78.2142 83.5179 86.2731 75.459 86.2731 65.5179V19.1985C86.2731 9.25736 78.2142 1.19849 68.273 1.19849H21.9536Z"/>
</mask>
<path fill-rule="evenodd" clip-rule="evenodd" d="M21.9536 1.19849C12.0125 1.19849 3.95361 9.25739 3.95361 19.1985V65.5179C3.95361 75.4591 12.0125 83.5179 21.9536 83.5179H36.691L44.3573 92.3721C44.7561 92.8327 45.4705 92.8327 45.8693 92.3721L53.5356 83.5179H68.2731C78.2142 83.5179 86.2731 75.459 86.2731 65.5179V19.1985C86.2731 9.25736 78.2142 1.19849 68.273 1.19849H21.9536Z" fill="white"/>
<path d="M36.691 83.5179L38.203 82.2088L37.6049 81.5179H36.691V83.5179ZM44.3573 92.3721L42.8453 93.6812L42.8453 93.6813L44.3573 92.3721ZM45.8693 92.3721L47.3813 93.6813L47.3813 93.6812L45.8693 92.3721ZM53.5356 83.5179V81.5179H52.6218L52.0236 82.2088L53.5356 83.5179ZM5.95361 19.1985C5.95361 10.362 13.1171 3.19849 21.9536 3.19849V-0.801514C10.9079 -0.801514 1.95361 8.15282 1.95361 19.1985H5.95361ZM5.95361 65.5179V19.1985H1.95361V65.5179H5.95361ZM21.9536 81.5179C13.1171 81.5179 5.95361 74.3545 5.95361 65.5179H1.95361C1.95361 76.5636 10.9079 85.5179 21.9536 85.5179V81.5179ZM36.691 81.5179H21.9536V85.5179H36.691V81.5179ZM45.8693 91.063L38.203 82.2088L35.179 84.8271L42.8453 93.6812L45.8693 91.063ZM44.3573 91.0629C44.7561 90.6024 45.4705 90.6024 45.8693 91.0629L42.8453 93.6813C44.0417 95.063 46.185 95.0629 47.3813 93.6813L44.3573 91.0629ZM52.0236 82.2088L44.3573 91.063L47.3813 93.6812L55.0476 84.8271L52.0236 82.2088ZM68.2731 81.5179H53.5356V85.5179H68.2731V81.5179ZM84.2731 65.5179C84.2731 74.3545 77.1096 81.5179 68.2731 81.5179V85.5179C79.3188 85.5179 88.2731 76.5636 88.2731 65.5179H84.2731ZM84.2731 19.1985V65.5179H88.2731V19.1985H84.2731ZM68.273 3.19849C77.1096 3.19849 84.2731 10.3619 84.2731 19.1985H88.2731C88.2731 8.15279 79.3187 -0.801514 68.273 -0.801514V3.19849ZM21.9536 3.19849H68.273V-0.801514H21.9536V3.19849Z" fill="#70A0B4" mask="url(#path-1-inside-1_2_165)"/>
</g>
<path d="M72.2874 17.9224H17.939V67.7427H72.2874V17.9224Z" fill="#CA000C"/>
<mask id="mask0_2_165" style="mask-type:luminance" maskUnits="userSpaceOnUse" x="17" y="17" width="56" height="51">
<path d="M72.2874 17.9224H17.939V67.7427H72.2874V17.9224Z" fill="white"/>
</mask>
<g mask="url(#mask0_2_165)">
<path d="M53.0345 29.248C56.1566 29.248 58.6919 42.4227 58.6919 58.6752H63.22C63.22 41.1717 58.6587 26.9895 53.0345 26.9895C49.835 26.9895 46.9786 31.2519 45.1076 37.9168C43.2365 31.2519 40.3802 26.9895 37.1806 26.9895C31.5564 26.9895 26.9951 41.1717 26.9951 58.6752H31.5232C31.5232 42.4227 34.0585 29.248 37.1806 29.248C40.3027 29.248 42.838 41.4042 42.838 56.4167H47.3661C47.3661 41.4153 49.9014 29.248 53.0235 29.248" fill="#FDD02B"/>
<path d="M66.1872 55.0107C67.1836 55.0107 68.0139 55.7968 68.0139 56.8375C68.0139 57.8782 67.1836 58.6753 66.1872 58.6753C65.1908 58.6753 64.3494 57.8893 64.3494 56.8375C64.3494 55.7857 65.1908 55.0107 66.1872 55.0107ZM66.1872 58.3985C67.0286 58.3985 67.6818 57.7232 67.6818 56.8264C67.6818 55.9296 67.0286 55.2765 66.1872 55.2765C65.3458 55.2765 64.6815 55.9518 64.6815 56.8264C64.6815 57.701 65.3347 58.3985 66.1872 58.3985ZM65.4786 55.7636H66.309C66.8182 55.7636 67.0507 55.9629 67.0507 56.3725C67.0507 56.76 66.8072 56.9261 66.4972 56.9593L67.1061 57.9003H66.7518L66.1761 56.9814H65.8218V57.9003H65.4897V55.7636H65.4786ZM65.8108 56.7157H66.154C66.4418 56.7157 66.7075 56.7046 66.7075 56.3614C66.7075 56.0736 66.464 56.0293 66.2425 56.0293H65.7997V56.7046L65.8108 56.7157Z" fill="#FDD02B"/>
</g>
<defs>
<filter id="filter0_d_2_165" x="0.953613" y="0.198486" width="92.3193" height="101.519" filterUnits="userSpaceOnUse" color-interpolation-filters="sRGB">
<feFlood flood-opacity="0" result="BackgroundImageFix"/>
<feColorMatrix in="SourceAlpha" type="matrix" values="0 0 0 0 0 0 0 0 0 0 0 0 0 0 0 0 0 0 127 0" result="hardAlpha"/>
<feOffset dx="2" dy="4"/>
<feGaussianBlur stdDeviation="2.5"/>
<feComposite in2="hardAlpha" operator="out"/>
<feColorMatrix type="matrix" values="0 0 0 0 0 0 0 0 0 0 0 0 0 0 0 0 0 0 0.47 0"/>
<feBlend mode="normal" in2="BackgroundImageFix" result="effect1_dropShadow_2_165"/>
<feBlend mode="normal" in="SourceGraphic" in2="effect1_dropShadow_2_165" result="shape"/>
</filter>
</defs>
</svg>
