<svg width="93" height="102" viewBox="0 0 93 102" fill="none" xmlns="http://www.w3.org/2000/svg">
<g filter="url(#filter0_d_2_166)">
<mask id="path-1-inside-1_2_166" fill="white">
<path fill-rule="evenodd" clip-rule="evenodd" d="M21.314 1.19849C11.3728 1.19849 3.31396 9.25739 3.31396 19.1985V65.5179C3.31396 75.4591 11.3729 83.5179 21.314 83.5179H36.0514L43.7177 92.3721C44.1164 92.8327 44.8309 92.8327 45.2297 92.3721L52.8959 83.5179H67.6334C77.5745 83.5179 85.6334 75.459 85.6334 65.5179V19.1985C85.6334 9.25736 77.5745 1.19849 67.6334 1.19849H21.314Z"/>
</mask>
<path fill-rule="evenodd" clip-rule="evenodd" d="M21.314 1.19849C11.3728 1.19849 3.31396 9.25739 3.31396 19.1985V65.5179C3.31396 75.4591 11.3729 83.5179 21.314 83.5179H36.0514L43.7177 92.3721C44.1164 92.8327 44.8309 92.8327 45.2297 92.3721L52.8959 83.5179H67.6334C77.5745 83.5179 85.6334 75.459 85.6334 65.5179V19.1985C85.6334 9.25736 77.5745 1.19849 67.6334 1.19849H21.314Z" fill="white"/>
<path d="M36.0514 83.5179L37.5634 82.2088L36.9652 81.5179H36.0514V83.5179ZM43.7177 92.3721L42.2057 93.6812L42.2057 93.6813L43.7177 92.3721ZM45.2297 92.3721L46.7417 93.6813L46.7417 93.6812L45.2297 92.3721ZM52.8959 83.5179V81.5179H51.9821L51.3839 82.2088L52.8959 83.5179ZM5.31396 19.1985C5.31396 10.362 12.4774 3.19849 21.314 3.19849V-0.801514C10.2683 -0.801514 1.31396 8.15282 1.31396 19.1985H5.31396ZM5.31396 65.5179V19.1985H1.31396V65.5179H5.31396ZM21.314 81.5179C12.4774 81.5179 5.31396 74.3545 5.31396 65.5179H1.31396C1.31396 76.5636 10.2683 85.5179 21.314 85.5179V81.5179ZM36.0514 81.5179H21.314V85.5179H36.0514V81.5179ZM45.2297 91.063L37.5634 82.2088L34.5394 84.8271L42.2057 93.6812L45.2297 91.063ZM43.7177 91.0629C44.1164 90.6024 44.8309 90.6024 45.2297 91.0629L42.2057 93.6813C43.402 95.063 45.5453 95.0629 46.7417 93.6813L43.7177 91.0629ZM51.3839 82.2088L43.7177 91.063L46.7417 93.6812L54.4079 84.8271L51.3839 82.2088ZM67.6334 81.5179H52.8959V85.5179H67.6334V81.5179ZM83.6334 65.5179C83.6334 74.3545 76.47 81.5179 67.6334 81.5179V85.5179C78.6791 85.5179 87.6334 76.5636 87.6334 65.5179H83.6334ZM83.6334 19.1985V65.5179H87.6334V19.1985H83.6334ZM67.6334 3.19849C76.47 3.19849 83.6334 10.3619 83.6334 19.1985H87.6334C87.6334 8.15279 78.6791 -0.801514 67.6334 -0.801514V3.19849ZM21.314 3.19849H67.6334V-0.801514H21.314V3.19849Z" fill="#70A0B4" mask="url(#path-1-inside-1_2_166)"/>
</g>
<path d="M70.17 16.1619H18.7776V69.5029H70.17V16.1619Z" fill="#006546"/>
<path d="M50.8646 64.2542V66.2552H38.5364V64.2516H29.2071C28.293 64.2516 27.5544 63.2982 27.5544 62.1248L23.6545 22.6494C23.6545 21.4734 24.5634 20.5227 25.6844 20.5227H63.3761C64.4971 20.5227 65.4086 21.4761 65.4086 22.6494L61.5506 62.1248C61.5506 63.2982 60.8094 64.2516 59.8979 64.2516H50.8646V64.2542Z" fill="white"/>
<path d="M30.5112 26.3003H55.7491C53.2635 27.2327 45.6995 32.3531 43.8085 35.7946H30.54L30.5112 26.3003Z" fill="#FF6600"/>
<path d="M50.6262 53.5081C50.2674 56.947 50.2543 61.1349 50.2543 65.5298H39.3142C39.3142 61.1323 39.4949 56.9443 39.8537 53.5081H50.6262Z" fill="#FE000C"/>
<path d="M29.7073 45.6243H33.7067V47.2062H31.9571V48.5394H33.7067V49.8725H31.9571V51.2056H33.7067V52.7326H29.7073V45.6243Z" fill="#006546"/>
<path d="M39.0078 45.6243H43.0072V47.2062H41.2576V48.5394H43.0072V49.8725H41.2576V51.2056H43.0072V52.7326H39.0078V45.6243Z" fill="#006546"/>
<path d="M49.2537 45.6243H53.2504V47.2062H51.5009V48.5394H53.2504V49.8725H51.5009V51.2056H53.2504V52.7326H49.2537V45.6243Z" fill="#006546"/>
<path d="M36.7028 51.2056H38.4523V52.7326H34.4556V45.6243H36.7028V51.2056Z" fill="#006546"/>
<path d="M43.4158 45.6243L44.5289 52.7326H47.4204L48.7745 45.6243H47.1009L46.2261 50.4277L45.3775 45.6243H43.4158Z" fill="#006546"/>
<path d="M56.3621 45.6243H54.196V52.7326H56.3621V45.6243Z" fill="#006546"/>
<path d="M56.3621 47.7357C56.4747 46.9579 57.5852 47.1648 57.5852 47.61V52.733H59.7512V46.709C59.7512 45.4309 57.9466 44.9176 56.3778 46.0438" fill="#006546"/>
<path d="M51.6422 44.6242C51.8622 41.9029 55.584 37.4609 59.1931 36.2954V25.8005C49.2667 30.2426 42.8105 36.9606 41.4146 44.598L51.6396 44.6242H51.6422Z" fill="#FE000C"/>
<path d="M54.5207 56.5303C54.2405 56.8106 53.9026 56.952 53.5045 56.952C53.1064 56.952 52.7685 56.8106 52.4909 56.5303C52.2133 56.2501 52.0745 55.9122 52.0745 55.5141C52.0745 55.116 52.2159 54.7834 52.4961 54.5031C52.7738 54.2255 53.1116 54.0867 53.5071 54.0867C53.9026 54.0867 54.2431 54.2255 54.5233 54.5031C54.8036 54.7807 54.945 55.1186 54.945 55.5141C54.945 55.9096 54.8036 56.2501 54.5233 56.5303M52.6323 54.6419C52.3914 54.8829 52.2735 55.1736 52.2735 55.5141C52.2735 55.8546 52.3914 56.1505 52.6323 56.3915C52.8707 56.6325 53.164 56.7556 53.5071 56.7556C53.8502 56.7556 54.1409 56.6351 54.3845 56.3915C54.6255 56.1505 54.7433 55.8572 54.7433 55.5141C54.7433 55.171 54.6229 54.8829 54.3845 54.6419C54.1409 54.401 53.8502 54.2805 53.5071 54.2805C53.164 54.2805 52.8759 54.401 52.6323 54.6419ZM53.4809 54.7205C53.6774 54.7205 53.8214 54.7388 53.9105 54.7781C54.0729 54.8462 54.1567 54.9798 54.1567 55.1788C54.1567 55.3203 54.1043 55.4224 54.0048 55.4905C53.9498 55.5246 53.8738 55.5508 53.7769 55.5665C53.8974 55.5874 53.9864 55.6372 54.044 55.721C54.1017 55.8048 54.1305 55.886 54.1305 55.9646V56.0798C54.1305 56.1165 54.1305 56.1558 54.1331 56.1977C54.1331 56.2396 54.1409 56.2658 54.1462 56.2789L54.1567 56.2998H53.8974C53.8974 56.2998 53.8974 56.2894 53.8948 56.2841C53.8948 56.2789 53.8948 56.271 53.8895 56.2658L53.8843 56.216V56.0903C53.8843 55.9096 53.8345 55.7891 53.735 55.7289C53.6747 55.6948 53.5726 55.6791 53.4233 55.6791H53.2033V56.2998H52.9283V54.7231H53.4809V54.7205ZM53.7848 54.9746C53.714 54.9353 53.6014 54.9169 53.4443 54.9169H53.2059V55.48H53.46C53.5805 55.48 53.6669 55.4696 53.7271 55.446C53.8371 55.4041 53.8921 55.3229 53.8921 55.2024C53.8921 55.0898 53.8581 55.0138 53.7874 54.9746" fill="#006546"/>
<defs>
<filter id="filter0_d_2_166" x="0.313965" y="0.198486" width="92.3193" height="101.519" filterUnits="userSpaceOnUse" color-interpolation-filters="sRGB">
<feFlood flood-opacity="0" result="BackgroundImageFix"/>
<feColorMatrix in="SourceAlpha" type="matrix" values="0 0 0 0 0 0 0 0 0 0 0 0 0 0 0 0 0 0 127 0" result="hardAlpha"/>
<feOffset dx="2" dy="4"/>
<feGaussianBlur stdDeviation="2.5"/>
<feComposite in2="hardAlpha" operator="out"/>
<feColorMatrix type="matrix" values="0 0 0 0 0 0 0 0 0 0 0 0 0 0 0 0 0 0 0.47 0"/>
<feBlend mode="normal" in2="BackgroundImageFix" result="effect1_dropShadow_2_166"/>
<feBlend mode="normal" in="SourceGraphic" in2="effect1_dropShadow_2_166" result="shape"/>
</filter>
</defs>
</svg>
