<svg width="515" height="536" viewBox="0 0 515 536" fill="none" xmlns="http://www.w3.org/2000/svg">
<g filter="url(#filter0_d_16_33)">
<path d="M18.047 167.888C18.6504 150.383 22.4301 133.374 29.2443 117.235C36.4667 100.156 46.7945 84.7985 59.9438 71.6603C73.093 58.5045 88.425 48.1715 105.496 40.9455C123.224 33.4532 142.016 29.6361 161.323 29.6361H318.884V0.661133L363.797 30.8256L424.202 71.4118L360.39 114.288L318.884 142.162V108.749H175.093C147.002 108.749 122.372 123.609 108.637 145.891L70.7152 89.4146L18.047 167.888Z" fill="#64C676"/>
<path d="M143.134 499.413C130.215 497.78 117.598 494.371 105.496 489.258C88.425 482.032 73.093 471.699 59.9437 458.543C46.7945 445.405 36.4667 430.065 29.2443 412.968C21.7558 395.231 17.9405 376.447 17.9405 357.113V194.786H0L18.047 167.888L70.7152 89.4146L108.637 145.891L141.448 194.768H97.0492V343.318C97.0492 379.341 121.414 409.666 154.562 418.685L88.7799 462.893L143.134 499.413Z" fill="#9BC9DD"/>
<path d="M194.099 533.661L143.134 499.431L88.7799 462.91L154.562 418.702L194.099 392.142V421.436H345.253C370.398 421.436 392.154 407.002 402.713 385.981L442.267 444.908L487.092 378.098C485.353 390.065 482.088 401.729 477.332 412.968C470.109 430.065 459.782 445.405 446.632 458.543C433.501 471.699 418.169 482.032 401.08 489.258C383.353 496.75 364.578 500.567 345.253 500.567H194.099V533.661Z" fill="#62A4C1"/>
<path d="M442.285 444.89L402.73 385.964L371.57 339.519H409.562V186.85C409.562 153.934 389.209 125.775 360.408 114.288L424.22 71.4119L363.815 30.8257C376.627 32.4768 389.12 35.8679 401.098 40.9456C418.187 48.1716 433.519 58.5045 446.65 71.6604C459.799 84.7986 470.127 100.156 477.35 117.236C484.838 134.972 488.653 153.756 488.653 173.09V339.519H513L487.11 378.081L442.285 444.89Z" fill="#7AE38D"/>
<g style="mix-blend-mode:overlay" opacity="0.27">
<path d="M402.73 385.964V488.601C402.73 488.601 474.014 461.739 487.127 378.081L442.303 444.89L402.748 385.964H402.73Z" fill="#28364C"/>
</g>
<g style="mix-blend-mode:overlay" opacity="0.27">
<path d="M154.562 418.702L31.5335 418.578C31.5335 418.578 59.6066 487.181 143.134 499.413L88.7799 462.893L154.562 418.685V418.702Z" fill="#28364C"/>
</g>
<g style="mix-blend-mode:overlay" opacity="0.57">
<path d="M108.637 145.909L106.72 40.4307C106.72 40.4307 22.998 69.157 18.047 167.888L70.7152 89.4146L108.637 145.909Z" fill="#28364C"/>
</g>
<g style="mix-blend-mode:overlay" opacity="0.57">
<path d="M360.408 114.288L477.35 117.218C477.35 117.218 452.187 44.1768 363.868 30.8079L424.22 71.3941L360.408 114.271V114.288Z" fill="#28364C"/>
</g>
</g>
<path d="M156.922 86.3255H150.676V61.221C150.676 58.2205 150.747 55.8592 150.889 54.1015C150.48 54.5276 149.984 54.9892 149.38 55.5041C148.795 56.019 146.789 57.6524 143.418 60.4043L140.277 56.4451L151.705 47.4614H156.922V86.3255Z" fill="#FEFCFC"/>
<path d="M429.774 185.483V159.135H434.512L444.574 169.167C447.608 172.132 449.756 174.085 451.016 175.061C452.275 176.02 453.482 176.73 454.582 177.174C455.7 177.618 456.889 177.831 458.167 177.831C459.924 177.831 461.308 177.298 462.319 176.251C463.331 175.203 463.828 173.729 463.828 171.883C463.828 170.392 463.561 168.954 463.011 167.569C462.461 166.184 461.468 164.568 460.03 162.74L464.147 159.366C465.975 161.532 467.27 163.627 468.033 165.669C468.796 167.711 469.169 169.877 469.169 172.185C469.169 175.807 468.228 178.701 466.347 180.884C464.466 183.068 461.929 184.151 458.735 184.151C456.978 184.151 455.31 183.832 453.731 183.21C452.151 182.589 450.536 181.612 448.851 180.316C447.183 179.02 444.911 176.854 442.054 173.818L435.524 167.072H435.258V185.518H429.757L429.774 185.483Z" fill="white"/>
<path d="M208.809 454.388C208.809 456.856 208.1 458.898 206.662 460.549C205.225 462.183 203.202 463.301 200.611 463.869V464.082C203.734 464.473 206.077 465.449 207.62 466.994C209.182 468.539 209.963 470.598 209.963 473.172C209.963 476.919 208.65 479.795 206.006 481.819C203.362 483.843 199.617 484.855 194.737 484.855C190.425 484.855 186.805 484.162 183.842 482.76V477.203C185.492 478.019 187.231 478.641 189.077 479.085C190.922 479.528 192.697 479.741 194.4 479.741C197.417 479.741 199.671 479.191 201.143 478.073C202.634 476.954 203.379 475.232 203.379 472.888C203.379 470.811 202.563 469.284 200.913 468.308C199.262 467.331 196.672 466.852 193.158 466.852H189.786V461.774H193.211C199.404 461.774 202.51 459.626 202.51 455.347C202.51 453.678 201.977 452.4 200.895 451.494C199.813 450.589 198.215 450.145 196.104 450.145C194.631 450.145 193.211 450.358 191.845 450.767C190.478 451.175 188.864 451.992 187 453.199L183.948 448.831C187.515 446.204 191.65 444.89 196.352 444.89C200.274 444.89 203.326 445.724 205.527 447.411C207.727 449.098 208.827 451.423 208.827 454.371L208.809 454.388Z" fill="#FEFCFC"/>
<path d="M52.3488 215.328V210.09H43.8665V204H52.3488V186.246H57.1577L82.8353 204V210.09H57.5304V215.328H52.3488ZM57.5304 204H67.2726C70.7507 204 73.5899 204.089 75.8081 204.267V204.054C74.6369 203.556 73.2173 202.775 71.5492 201.71L57.5127 192.052V203.983L57.5304 204Z" fill="#FEFCFC"/>
<path d="M191.342 75.3127V77.0727H203.082V75.3127H191.342ZM194.182 65.1127V66.8327H200.142V65.1127H194.182ZM194.182 70.1527V71.8727H200.142V70.1527H194.182ZM193.302 60.2127V76.3127H195.142V61.9727H199.362V76.3127H201.282V60.2127H193.302ZM187.762 60.8927V77.6727H189.562V60.8927H187.762ZM184.582 64.7727V66.5327H192.222V64.7727H184.582ZM187.862 65.4727C187.202 67.8327 185.722 70.8527 184.322 72.4527C184.642 72.9127 185.062 73.6927 185.262 74.2327C186.762 72.3127 188.222 68.7927 189.002 65.9527L187.862 65.4727ZM191.202 59.3727C189.622 60.0527 187.042 60.6527 184.782 60.9927C184.982 61.4127 185.222 62.0527 185.302 62.4727C187.622 62.1727 190.362 61.6527 192.302 60.9127L191.202 59.3727ZM189.542 66.8127L188.682 67.5927C189.302 68.4327 190.722 70.6927 191.222 71.7327L192.342 70.2327C191.922 69.6727 190.062 67.3527 189.542 66.8127ZM211.822 61.5727V63.2127H224.022V61.5727H211.822ZM211.042 65.5927V67.3127H224.642V65.5927H211.042ZM214.362 59.3127V66.5327H216.202V59.3127H214.362ZM219.462 59.3127V66.5327H221.342V59.3127H219.462ZM213.042 68.7127V77.7727H214.862V70.2927H221.102V77.6927H223.002V68.7127H213.042ZM213.942 72.0727V73.5327H222.002V72.0727H213.942ZM213.942 75.3927V76.9527H222.002V75.3927H213.942ZM210.282 59.2127C209.202 62.1727 207.402 65.1127 205.482 66.9927C205.822 67.4327 206.342 68.4527 206.522 68.9127C208.702 66.6527 210.762 63.1727 212.062 59.7727L210.282 59.2127ZM208.282 64.5327V77.6727H210.082V62.7527L210.062 62.7327L208.282 64.5327ZM243.582 59.3527C241.282 59.9327 237.322 60.4527 233.962 60.7327C234.202 61.1127 234.442 61.7127 234.522 62.1127C238.002 61.8727 242.142 61.3927 245.022 60.7127L243.582 59.3527ZM234.902 63.8327V65.3727H245.742V63.8327H234.902ZM237.462 70.1127V71.3927H243.642V70.1127H237.462ZM237.302 75.3527V76.7927H243.662V75.3527H237.302ZM237.302 72.6727V73.9527H243.482V72.6727H237.302ZM236.282 67.2927V77.6527H238.042V68.7727H242.922V77.6527H244.782V67.2927H236.282ZM233.962 60.7327V67.2727C233.962 70.2527 233.762 74.1127 232.142 76.8727C232.542 77.0527 233.222 77.4327 233.542 77.6927C235.382 74.7127 235.642 70.6327 235.642 67.2727V60.7327H233.962ZM230.622 59.1327C229.902 60.4127 228.522 62.0327 227.242 63.0527C227.542 63.3927 228.022 64.0927 228.222 64.4927C229.702 63.2727 231.302 61.4327 232.342 59.7727L230.622 59.1327ZM231.102 63.5127C230.122 65.3127 228.562 67.1727 227.082 68.3727C227.382 68.8327 227.862 69.7927 228.002 70.1927C229.682 68.6927 231.562 66.3327 232.742 64.1327L231.102 63.5127ZM229.582 67.1927V77.6927H231.322V65.4927L231.302 65.4727L229.582 67.1927ZM239.562 61.9527V68.2127H241.402V61.9527H239.562ZM248.762 60.4127V62.0927H254.182V60.4127H248.762ZM248.942 66.2327V67.9127H253.982V66.2327H248.942ZM248.522 73.8127L248.862 75.5527C250.462 75.0927 252.422 74.5127 254.282 73.9527L254.062 72.3127C252.022 72.8927 249.962 73.4727 248.522 73.8127ZM250.682 61.4527V74.0927L252.342 73.6727V61.4527H250.682ZM254.842 65.0527V66.5727H267.042V65.0527H254.842ZM257.802 68.8527H264.042V70.3927H257.802V68.8527ZM256.122 67.4927V71.7527H265.842V67.4927H256.122ZM263.042 61.1327H264.742V62.8727H263.042V61.1327ZM260.102 61.1327H261.762V62.8727H260.102V61.1327ZM257.202 61.1327H258.802V62.8727H257.202V61.1327ZM255.642 59.8127V64.1927H266.382V59.8127H255.642ZM262.022 71.0927L260.522 71.4127C261.522 74.3327 263.422 76.5327 266.342 77.5127C266.562 77.0527 267.082 76.3927 267.462 76.0527C264.762 75.3327 262.862 73.4527 262.022 71.0927ZM265.642 71.9127C264.882 72.5127 263.482 73.3927 262.542 73.8927L263.442 74.7727C264.462 74.3527 265.762 73.6927 266.882 73.0327L265.642 71.9127ZM260.002 70.8327C258.702 72.1127 256.162 73.2927 253.942 73.8327C254.302 74.1527 254.782 74.7327 255.022 75.1327C257.262 74.4327 259.862 72.9727 261.302 71.3927L260.002 70.8327ZM256.882 77.6527C256.882 77.1327 258.502 76.2527 258.502 76.2527V72.8127L256.962 73.1927V75.0127C256.962 75.8127 256.542 76.1727 256.242 76.3127C256.462 76.6327 256.782 77.2727 256.882 77.6527ZM256.882 77.6527C257.242 77.4327 257.842 77.2527 261.602 76.3327C261.582 75.9927 261.582 75.3527 261.622 74.9327L257.502 75.8327L256.782 76.3727L256.882 77.6527ZM277.382 60.7727V62.5527H288.622V60.7727H277.382ZM283.122 61.8927C281.802 65.3127 279.382 68.1927 276.402 69.8927C276.802 70.2727 277.462 71.0927 277.722 71.4927C280.822 69.4727 283.442 66.2527 285.002 62.3927L283.122 61.8927ZM283.502 66.4327C285.042 67.7927 286.862 69.7327 287.662 70.9927L289.022 69.7127C288.162 68.4327 286.282 66.5727 284.742 65.2927L283.502 66.4327ZM270.402 63.3527V65.1527H277.722V63.3527H270.402ZM273.362 59.1327V77.6927H275.182V59.1327H273.362ZM273.262 64.5327C272.702 67.2727 271.322 70.5727 269.902 72.3527C270.202 72.8127 270.662 73.5727 270.842 74.0927C272.382 72.0527 273.762 68.1527 274.422 64.9327L273.262 64.5327ZM275.022 65.5327L274.122 66.3527C274.742 67.0527 276.102 68.8327 276.602 69.6727L277.642 68.1927C277.262 67.7527 275.502 65.9527 275.022 65.5327ZM281.962 65.3527V77.7127H283.822V63.9927L283.462 63.8527L281.962 65.3527Z" fill="#FEFCFC"/>
<path d="M239.009 457.549V459.269H251.809V457.549H239.009ZM241.269 462.549H249.389V465.109H241.269V462.549ZM239.529 460.989V466.689H251.209V460.989H239.529ZM241.049 467.009L239.489 467.489C241.649 471.209 245.569 473.269 250.929 474.009C251.169 473.489 251.649 472.729 252.049 472.309C246.849 471.789 242.889 470.029 241.049 467.009ZM244.349 455.529V464.489C244.349 467.829 243.929 471.089 238.229 472.469C238.629 472.869 239.169 473.609 239.389 474.029C245.389 472.249 246.209 468.469 246.209 464.509V455.529H244.349ZM237.869 455.389C236.729 458.349 234.809 461.269 232.849 463.129C233.169 463.569 233.689 464.589 233.869 465.029C236.109 462.789 238.269 459.329 239.629 455.949L237.869 455.389ZM235.829 460.769V474.069H237.629V458.989L237.609 458.969L235.829 460.769ZM257.949 456.809V458.609H270.589V456.809H257.949ZM257.949 461.449V463.229H270.589V461.449H257.949ZM257.869 466.209V467.989H270.649V466.209H257.869ZM256.869 456.809V464.029C256.869 466.849 256.669 470.409 254.469 472.869C254.889 473.109 255.649 473.749 255.949 474.109C258.369 471.449 258.729 467.149 258.729 464.049V456.809H256.869ZM269.889 456.809V471.609C269.889 471.969 269.749 472.089 269.369 472.109C268.989 472.109 267.649 472.129 266.349 472.069C266.609 472.569 266.909 473.389 266.989 473.889C268.849 473.909 270.029 473.869 270.769 473.569C271.509 473.269 271.769 472.729 271.769 471.609V456.809H269.889ZM263.089 457.509V473.789H265.009V457.509H263.089ZM286.209 463.529C285.189 465.749 283.349 467.769 281.349 469.049C281.729 469.369 282.369 470.069 282.609 470.429C284.689 468.929 286.709 466.589 287.929 464.029L286.209 463.529ZM289.849 461.169C290.949 462.549 292.329 464.469 292.929 465.669L294.489 464.769C293.829 463.609 292.409 461.749 291.309 460.429L289.849 461.169ZM283.489 465.689L281.949 466.209C284.109 470.309 287.949 472.969 293.169 474.049C293.409 473.549 293.909 472.809 294.309 472.409C289.249 471.549 285.349 469.149 283.489 465.689ZM285.989 465.769L284.609 467.309H291.649V465.769H285.989ZM291.009 465.769V466.029C289.529 469.549 285.369 471.669 280.929 472.469C281.249 472.869 281.669 473.609 281.829 474.069C286.629 473.029 291.029 470.709 292.889 466.249L291.689 465.689L291.389 465.769H291.009ZM280.409 459.609C279.369 461.669 277.629 463.689 275.949 465.009C276.269 465.409 276.809 466.329 276.989 466.729C278.869 465.129 280.829 462.629 282.109 460.209L280.409 459.609ZM279.989 455.429C279.169 456.809 277.569 458.509 276.129 459.549C276.429 459.889 276.909 460.549 277.149 460.929C278.769 459.689 280.549 457.809 281.669 456.089L279.989 455.429ZM278.609 463.589V474.049H280.409V462.089L280.209 462.009L278.609 463.589ZM282.669 461.149C282.669 460.789 283.769 460.289 283.769 460.289V460.229C285.409 459.329 287.189 457.889 288.689 456.389L286.809 455.549C285.649 456.969 283.929 458.289 283.409 458.669C282.889 459.009 282.469 459.289 282.069 459.349C282.289 459.849 282.589 460.749 282.669 461.149ZM282.669 461.149C283.089 460.989 283.769 460.889 288.109 460.729C288.249 460.369 288.569 459.709 288.829 459.289L283.589 459.429L282.669 459.929V461.149ZM282.229 464.869C282.229 464.529 283.349 464.069 283.349 464.069V464.009C286.349 462.649 289.569 460.649 292.469 458.249L290.729 457.289C288.369 459.489 284.949 461.609 283.909 462.149C282.969 462.689 282.289 463.029 281.689 463.109C281.869 463.589 282.149 464.509 282.229 464.869ZM282.229 464.869C282.889 464.609 283.869 464.529 292.569 463.989C292.489 463.629 292.389 462.989 292.369 462.529L283.229 463.029L282.189 463.569L282.229 464.869ZM309.749 464.349V473.929H311.469V464.349H309.749ZM300.929 465.389V471.809H302.529V465.389H300.929ZM298.289 467.009V472.189H299.749V467.009H298.289ZM306.409 466.229V472.429H308.009V467.709H313.869V466.229H306.409ZM306.789 456.089V457.429H312.589V460.829H306.749V462.169H314.329V456.089H306.789ZM299.129 457.089V458.449H303.329V459.729H299.129V461.089H304.889V457.089H299.129ZM305.409 458.449V459.789H315.989V458.449H305.409ZM301.689 467.569V469.069H305.109V467.569H301.689ZM313.269 466.229V470.709C313.269 470.889 313.229 470.929 313.049 470.929C312.889 470.929 312.429 470.929 311.889 470.909C312.069 471.329 312.269 471.889 312.309 472.329C313.249 472.329 313.909 472.309 314.369 472.089C314.829 471.829 314.929 471.449 314.929 470.729V466.229H313.269ZM305.749 463.029V465.889H307.289V464.449H313.989V465.889H315.609V463.029H305.749ZM300.469 455.409C300.389 455.989 300.189 456.809 300.029 457.429L301.549 457.729C301.789 457.189 302.089 456.449 302.409 455.669L300.469 455.409ZM298.369 457.089V465.469H299.969V457.089H298.369ZM297.369 471.609L297.609 473.349C299.769 473.009 302.729 472.509 305.509 472.049L305.429 470.389C302.489 470.869 299.409 471.349 297.369 471.609ZM298.369 464.669V466.049H304.989V461.929H299.189V463.329H303.409V464.669H298.369ZM324.089 460.669V461.949H337.129V460.669H324.089ZM327.409 463.909H333.649V465.269H327.409V463.909ZM325.729 462.789V466.409H335.409V462.789H325.729ZM332.789 457.109H334.469V458.709H332.789V457.109ZM329.669 457.109H331.329V458.709H329.669V457.109ZM326.609 457.109H328.209V458.709H326.609V457.109ZM325.049 456.009V459.809H336.109V456.009H325.049ZM335.549 466.209C334.889 466.789 333.749 467.669 332.949 468.149L333.969 468.969C334.789 468.509 335.889 467.809 336.749 467.089L335.549 466.209ZM330.129 465.549C328.749 466.709 326.089 467.889 324.029 468.449C324.329 468.729 324.749 469.229 324.969 469.569C327.049 468.889 329.789 467.509 331.309 466.129L330.129 465.549ZM327.109 471.889C327.469 471.609 328.069 471.389 331.929 470.109C331.849 469.789 331.749 469.169 331.729 468.769L327.629 470.009L326.989 470.569L327.109 471.889ZM330.469 467.669C332.169 468.789 334.449 470.389 335.609 471.349L336.789 470.349C335.589 469.409 333.269 467.889 331.609 466.829L330.469 467.669ZM327.109 471.889C327.109 471.389 328.809 470.709 328.809 470.709V467.569H327.289V469.549C327.289 470.269 326.889 470.529 326.569 470.629C326.789 470.909 327.029 471.529 327.109 471.889ZM319.609 456.269C320.449 457.269 321.509 458.669 321.989 459.509L323.489 458.509C322.969 457.689 321.929 456.409 321.049 455.429L319.609 456.269ZM318.969 460.069V461.609H322.889V460.069H318.969ZM322.649 469.029L321.389 469.569C322.889 473.109 325.469 473.669 330.189 473.669C332.469 473.669 335.049 473.629 337.029 473.509C337.129 472.989 337.369 472.129 337.649 471.749C335.489 471.949 332.369 472.049 330.209 472.049C326.329 472.029 323.809 471.689 322.649 469.029ZM322.269 465.009V465.309C321.829 468.829 320.549 471.389 318.649 472.769C319.029 473.029 319.649 473.669 319.909 474.029C321.929 472.469 323.369 469.549 323.949 465.289L323.129 464.969L322.829 465.009H322.269ZM319.389 466.789C319.549 466.629 320.089 466.509 320.589 466.509H323.169V465.009H320.169L319.389 465.409V466.789ZM319.389 466.789C319.389 466.349 320.709 465.689 320.709 465.689C321.709 464.429 323.289 461.789 324.109 460.409L322.909 459.949L322.409 460.169V460.209C321.829 461.309 320.209 464.009 319.669 464.589C319.369 464.969 319.049 465.109 318.749 465.209C318.929 465.549 319.289 466.389 319.389 466.789Z" fill="#FEFCFC"/>
<path d="M448.724 216.497V218.237H456.124V216.497H448.724ZM444.524 225.377V227.057H454.244V225.377H444.524ZM447.824 214.337V221.717H449.764V214.337H447.824ZM443.524 220.557V227.857H445.384V222.297H453.244V227.837H455.164V220.557H443.524ZM440.944 211.897V213.697H456.684V211.897H440.944ZM440.084 211.897V217.057C440.084 219.997 439.944 224.137 438.224 227.017C438.684 227.217 439.524 227.797 439.884 228.117C441.744 225.017 442.024 220.257 442.024 217.077V211.897H440.084ZM446.904 209.977C447.424 210.857 447.924 212.057 448.084 212.857L450.064 212.357C449.884 211.577 449.344 210.417 448.784 209.577L446.904 209.977ZM439.244 238.237V242.557H441.104V239.977H454.324V242.557H456.264V238.237H439.244ZM441.944 241.537V243.157H453.404V241.537H441.944ZM445.424 244.577C448.744 247.457 448.564 251.997 447.444 252.917C447.124 253.297 446.764 253.357 446.264 253.357C445.824 253.357 445.164 253.337 444.424 253.257C444.764 253.777 444.924 254.537 444.944 255.057C445.564 255.077 446.184 255.097 446.624 255.077C447.584 255.077 448.164 254.897 448.824 254.277C450.624 252.857 450.764 247.077 446.864 243.777L445.424 244.577ZM447.524 242.057C445.724 243.757 442.304 245.057 439.184 245.757C439.504 246.117 440.004 246.897 440.184 247.257C443.404 246.337 446.984 244.797 449.084 242.717L447.524 242.057ZM446.824 245.837C445.124 247.117 441.664 248.537 439.084 249.137C439.424 249.537 439.824 250.177 440.044 250.597C442.644 249.777 446.124 248.177 448.044 246.737L446.824 245.837ZM447.984 248.197C446.024 249.997 442.024 251.857 438.784 252.617C439.144 253.037 439.544 253.717 439.764 254.197C443.044 253.197 447.084 251.177 449.284 249.177L447.984 248.197ZM452.004 246.957L450.344 247.357C451.344 250.497 453.184 252.997 455.884 254.257C456.144 253.777 456.704 253.057 457.124 252.717C454.664 251.737 452.864 249.537 452.004 246.957ZM453.364 243.737C451.984 245.057 449.664 246.757 447.944 247.757L449.164 248.837C450.904 247.897 453.184 246.357 454.924 244.977L453.364 243.737ZM446.024 236.937C446.444 237.697 446.884 238.717 447.044 239.377L449.104 238.717C448.944 238.077 448.444 237.097 448.004 236.377L446.024 236.937ZM438.624 279.997V281.717H456.764V279.997H438.624ZM441.124 265.657V267.317H456.384V265.657H441.124ZM440.704 268.917V270.397H445.784V268.917H440.704ZM441.064 275.317V280.977H442.844V276.817H444.924V280.977H446.664V276.817H448.764V280.977H450.504V276.817H452.624V280.977H454.484V275.317H441.064ZM440.244 265.657V267.977C440.244 269.857 440.024 272.497 438.424 274.437C438.864 274.637 439.704 275.257 440.004 275.597C441.764 273.437 442.124 270.237 442.124 267.997V265.657H440.244ZM445.204 268.917V269.137C445.084 271.497 445.004 272.357 444.764 272.597C444.644 272.757 444.484 272.777 444.224 272.777C443.944 272.777 443.304 272.757 442.584 272.697C442.804 273.077 442.964 273.697 443.004 274.137C443.864 274.177 444.664 274.177 445.104 274.117C445.604 274.077 445.964 273.957 446.264 273.617C446.664 273.157 446.804 272.077 446.924 269.517C446.944 269.317 446.944 268.917 446.944 268.917H445.204ZM447.524 263.557C447.864 269.737 450.824 275.017 454.364 274.997C455.864 275.017 456.484 274.377 456.784 271.777C456.304 271.637 455.684 271.317 455.284 270.957C455.164 272.597 454.984 273.197 454.444 273.217C452.244 273.237 449.664 268.797 449.404 263.557H447.524ZM453.404 267.717C452.064 270.237 449.484 272.257 446.624 273.437C447.004 273.777 447.604 274.497 447.864 274.857C450.764 273.437 453.524 271.157 455.124 268.237L453.404 267.717ZM450.704 264.217C451.444 264.717 452.384 265.537 452.864 266.097L454.224 265.217C453.724 264.677 452.804 263.937 452.004 263.457L450.704 264.217ZM446.464 301.677C444.764 303.137 441.404 304.317 438.344 304.857C438.684 305.177 439.144 305.797 439.384 306.217C442.544 305.577 445.984 304.137 447.944 302.317L446.464 301.677ZM448.904 301.697L447.304 302.057C448.864 305.717 451.704 308.077 456.024 309.077C456.244 308.597 456.724 307.897 457.104 307.537C453.064 306.777 450.224 304.717 448.904 301.697ZM454.404 302.757C453.444 303.517 451.764 304.517 450.544 305.097L451.704 306.037C452.944 305.477 454.544 304.637 455.784 303.757L454.404 302.757ZM438.664 301.217V302.677H456.744V301.217H438.664ZM446.224 293.197V294.797H456.524V293.197H446.224ZM446.724 297.737V299.357H456.104V297.737H446.724ZM443.704 290.537V300.457H445.484V290.537H443.704ZM450.384 290.537V298.677H452.264V290.537H450.384ZM438.704 295.757V297.237H444.584V295.757H438.704ZM440.204 296.257C440.104 297.817 439.764 298.957 438.284 299.617C438.644 299.897 439.104 300.477 439.284 300.857C441.284 299.937 441.784 298.397 441.944 296.257H440.204ZM439.604 290.837V294.697H444.464V293.157H441.224V290.837H439.604ZM442.584 309.237C443.004 308.977 443.704 308.797 449.004 307.617C448.984 307.257 449.044 306.577 449.104 306.137L443.264 307.297L442.484 307.877L442.584 309.237ZM442.584 309.237C442.584 308.577 444.704 307.377 444.704 307.377V303.857H442.864V306.137C442.864 307.097 442.244 307.577 441.844 307.777C442.104 308.117 442.444 308.837 442.584 309.237ZM446.244 300.037C446.644 300.777 447.064 301.757 447.204 302.377L449.144 301.777C448.984 301.157 448.524 300.217 448.084 299.517L446.244 300.037ZM449.244 321.197V322.897H455.344V321.197H449.244ZM449.424 317.517C449.044 320.657 448.284 323.637 446.944 325.497C447.384 325.757 448.184 326.297 448.504 326.577C449.904 324.477 450.784 321.257 451.264 317.797L449.424 317.517ZM454.964 321.197V321.497C454.704 323.177 454.304 325.317 453.964 326.617L455.484 327.017C455.924 325.617 456.404 323.377 456.784 321.457L455.504 321.137L455.224 321.197H454.964ZM450.784 324.297V325.237C450.784 327.817 450.444 331.757 446.524 334.697C446.984 334.997 447.664 335.617 447.964 336.037C452.244 332.757 452.664 328.257 452.664 325.277V324.297H450.784ZM452.544 326.737L450.964 327.017C451.704 331.077 453.064 334.457 455.704 336.077C456.004 335.577 456.564 334.857 457.004 334.497C454.564 333.197 453.184 330.157 452.544 326.737ZM440.804 326.297V327.637H445.764V326.297H440.804ZM440.944 323.597V324.997H444.924V329.157H440.904V330.557H446.644V323.597H440.944ZM442.544 319.597C443.924 320.297 445.804 321.337 446.724 322.037L447.564 320.477C446.604 319.857 444.684 318.857 443.344 318.217L442.544 319.597ZM442.764 317.397C441.764 319.137 439.904 320.717 438.144 321.717C438.424 322.137 438.844 323.077 438.944 323.477C441.004 322.197 443.104 320.137 444.344 317.977L442.764 317.397ZM443.964 331.337C444.584 332.617 445.324 334.357 445.644 335.377L447.164 334.677C446.804 333.697 446.024 332.017 445.404 330.757L443.964 331.337ZM439.584 336.097C439.584 335.497 441.544 334.717 441.544 334.717V323.597H439.784V333.277C439.784 334.017 439.304 334.337 438.944 334.477C439.184 334.877 439.484 335.657 439.584 336.097ZM439.584 336.097C440.024 335.757 440.724 335.457 445.704 333.677C445.604 333.317 445.484 332.657 445.424 332.197L440.124 333.977L439.424 334.617L439.584 336.097ZM441.384 321.377V322.617H444.964V321.377H441.384ZM441.704 344.557V363.097H443.444V344.557H441.704ZM438.564 351.237V352.997H446.584V351.237H438.564ZM438.624 346.157C439.144 347.577 439.564 349.477 439.644 350.697L441.104 350.337C440.984 349.097 440.544 347.237 439.984 345.817L438.624 346.157ZM445.144 345.717C444.884 347.097 444.344 349.097 443.904 350.317L445.124 350.677C445.644 349.537 446.264 347.637 446.764 346.097L445.144 345.717ZM452.824 344.537V363.097H454.604V344.537H452.824ZM446.544 357.177L446.844 358.937L457.124 357.077L456.824 355.337L446.544 357.177ZM447.884 347.117C449.044 347.837 450.424 348.917 451.044 349.697L452.044 348.257C451.384 347.517 449.984 346.497 448.844 345.817L447.884 347.117ZM446.924 352.157C448.104 352.817 449.564 353.877 450.244 354.597L451.204 353.097C450.484 352.377 448.984 351.417 447.804 350.797L446.924 352.157ZM440.244 353.997C439.924 355.677 439.104 357.737 438.264 358.837C438.584 359.437 439.004 360.377 439.184 361.017C440.324 359.597 441.164 356.737 441.604 354.457L440.244 353.997ZM444.304 354.037L443.264 354.777C443.744 355.737 444.784 358.157 445.144 359.317L446.484 357.897C446.164 357.257 444.704 354.617 444.304 354.037Z" fill="#FEFCFC"/>
<path d="M54.2308 249.776V251.296H72.4708V249.776H54.2308ZM54.8108 238.536V239.996H71.6908V238.536H54.8108ZM65.9708 248.536V253.696C65.9708 253.956 65.8708 254.036 65.5508 254.056C65.2308 254.056 64.0908 254.056 62.9908 254.016C63.2308 254.496 63.4708 255.176 63.5508 255.656C65.1308 255.656 66.1908 255.656 66.9108 255.416C67.6108 255.156 67.7908 254.676 67.7908 253.756V248.536H65.9708ZM62.3708 237.116V247.876H64.2308V237.116H62.3708ZM57.4308 252.076C58.5908 252.816 59.9508 253.936 60.6108 254.716L61.9908 253.496C61.3108 252.716 59.8708 251.656 58.7308 250.976L57.4308 252.076ZM58.1508 244.316H68.6108V245.356H58.1508V244.316ZM58.1508 242.156H68.6108V243.176H58.1508V242.156ZM56.3708 240.956V246.556H70.4708V240.956H56.3708ZM66.2508 246.936C67.7708 247.516 69.6308 248.576 70.5908 249.376L71.7108 248.356C70.7308 247.616 68.8908 246.596 67.3508 246.036L66.2508 246.936ZM55.0508 247.536L55.1308 248.956C58.9308 248.896 64.6308 248.796 69.9908 248.636L70.0708 247.416C64.5708 247.516 58.7108 247.556 55.0508 247.536ZM54.5508 276.396V277.976H72.2108V276.396H54.5508ZM54.6108 267.536V269.056H72.1308V267.536H54.6108ZM55.4308 271.076V272.556H71.3908V271.076H55.4308ZM56.4308 273.776V275.176H70.4308V273.776H56.4308ZM62.3708 271.776V282.676H64.2508L64.2508 271.776H62.3708ZM60.6108 264.076V268.296H62.3708V264.076H60.6108ZM64.3508 264.076V268.196H66.1508V264.076H64.3508ZM68.9908 264.296C68.6708 265.196 68.0708 266.476 67.5508 267.296L69.0908 267.796C69.6308 267.016 70.3308 265.896 70.9508 264.796L68.9908 264.296ZM66.4508 268.956C66.1908 269.496 65.6708 270.316 65.2908 270.876L66.8708 271.356C67.3308 270.876 67.8908 270.196 68.4308 269.476L66.4508 268.956ZM56.1708 264.816C56.7908 265.736 57.4508 266.996 57.7108 267.796L59.4108 267.156C59.1508 266.356 58.4508 265.136 57.7908 264.256L56.1708 264.816ZM58.5908 269.336C58.9908 269.956 59.4108 270.796 59.5708 271.316L61.4108 270.856C61.2108 270.316 60.7708 269.516 60.3708 268.936L58.5908 269.336ZM60.2308 278.836C58.9708 279.656 56.5108 280.396 54.4508 280.716C54.8308 281.056 55.3508 281.676 55.5908 282.096C57.6708 281.636 60.2108 280.596 61.6108 279.476L60.2308 278.836ZM65.3508 279.676C67.1708 280.376 69.6508 281.436 70.8908 282.076L72.1708 280.976C70.8308 280.336 68.3508 279.356 66.5708 278.716L65.3508 279.676ZM59.5708 299.336V301.136H72.6308V299.336H59.5708ZM61.9708 294.296V296.076H71.8108V294.296H61.9708ZM65.2508 291.096V300.296H67.1308V291.096H65.2508ZM61.9108 291.396C61.4908 293.916 60.6308 296.396 59.4308 297.976C59.8908 298.196 60.7108 298.716 61.0708 298.996C62.3108 297.276 63.2708 294.556 63.8108 291.736L61.9108 291.396ZM66.9708 300.496V307.056C66.9708 308.876 67.3708 309.436 69.0308 309.436C69.3508 309.436 70.5308 309.436 70.8708 309.436C72.3308 309.436 72.7708 308.596 72.9308 305.556C72.4308 305.416 71.6708 305.116 71.2908 304.796C71.2308 307.336 71.1508 307.736 70.6908 307.736C70.4308 307.736 69.5308 307.736 69.3508 307.736C68.8908 307.736 68.8308 307.636 68.8308 307.056V300.496H66.9708ZM62.8908 300.796C62.6908 304.376 62.2108 306.816 58.5708 308.156C58.9908 308.516 59.5108 309.216 59.7108 309.676C63.8108 307.996 64.5308 305.056 64.7908 300.796H62.8908ZM54.9508 292.616C56.1708 293.276 57.6708 294.316 58.3508 295.076L59.5308 293.616C58.8108 292.876 57.2908 291.916 56.0908 291.316L54.9508 292.616ZM54.0308 298.016C55.2708 298.636 56.8308 299.616 57.5708 300.336L58.6708 298.816C57.8908 298.116 56.3108 297.196 55.0708 296.636L54.0308 298.016ZM54.5708 308.296L56.2308 309.456C57.2308 307.516 58.3308 305.076 59.1908 302.916L57.7908 301.836C56.8108 304.136 55.5108 306.736 54.5708 308.296ZM59.0508 327.336V328.976H72.5708V327.336H59.0508ZM64.5708 325.176V334.496C64.5708 334.776 64.4908 334.856 64.1708 334.856C63.8508 334.876 62.7908 334.876 61.7108 334.836C61.9508 335.336 62.1908 336.056 62.2708 336.556C63.7708 336.556 64.8108 336.536 65.4708 336.256C66.1508 335.996 66.3508 335.516 66.3508 334.516V325.176H64.5708ZM69.8508 318.156C67.4508 318.856 63.2108 319.376 59.5908 319.656C59.7708 320.036 59.9708 320.696 60.0308 321.116C63.7708 320.876 68.1708 320.356 71.1308 319.516L69.8508 318.156ZM60.2508 324.336V325.876H69.3908V330.496H60.1308V332.016H71.0508V324.336H60.2508ZM60.1908 321.896C60.6708 322.656 61.1508 323.716 61.3308 324.416L62.7108 323.756C62.5308 323.056 62.0508 322.056 61.5108 321.316L60.1908 321.896ZM64.1108 321.356C64.5508 322.216 64.9908 323.376 65.1108 324.116L66.5708 323.596C66.4108 322.856 65.9908 321.736 65.4908 320.916L64.1108 321.356ZM69.4508 320.516C69.1108 321.436 68.4108 322.756 67.8708 323.576L69.4108 324.056C69.9508 323.276 70.6108 322.116 71.1908 320.996L69.4508 320.516ZM54.8508 319.716C56.0708 320.296 57.5508 321.296 58.2908 322.036L59.2908 320.496C58.5508 319.776 57.0108 318.856 55.7908 318.336L54.8508 319.716ZM53.8108 325.236C55.0308 325.776 56.5508 326.716 57.2908 327.396L58.2508 325.836C57.4708 325.156 55.9108 324.296 54.7108 323.816L53.8108 325.236ZM54.2908 335.136L55.7508 336.416C56.8308 334.536 58.0708 332.216 59.0308 330.156L57.7908 328.896C56.7108 331.136 55.2708 333.656 54.2908 335.136ZM61.4508 354.456C61.8108 355.436 62.2108 356.736 62.3908 357.536L63.4108 357.136C63.2308 356.396 62.8108 355.136 62.4308 354.156L61.4508 354.456ZM61.5508 351.416V352.836H66.4508V351.416H61.5508ZM63.3308 352.616V355.356C63.3308 357.356 63.0708 359.676 60.8108 361.416C61.1108 361.636 61.5908 362.116 61.8108 362.436C64.3908 360.456 64.7108 357.776 64.7108 355.396V352.616H63.3308ZM65.7508 353.936C65.5708 354.836 65.1308 356.156 64.7908 356.976L65.8108 357.356C66.1708 356.596 66.5908 355.416 66.9908 354.376L65.7508 353.936ZM64.3308 357.436L63.4108 358.156C63.9308 358.736 65.0708 360.176 65.4908 360.876L66.5508 359.616C66.1908 359.236 64.7308 357.796 64.3308 357.436ZM68.7308 346.116C69.6908 346.736 70.8108 347.636 71.3308 348.276L72.4108 347.216C71.8508 346.576 70.7108 345.716 69.7508 345.176L68.7308 346.116ZM70.5508 351.436C69.6908 356.236 67.9108 360.036 64.7908 362.296C65.1508 362.576 65.7908 363.176 66.0308 363.476C69.2108 360.916 71.1308 356.896 72.1708 351.716L70.5508 351.436ZM59.4308 348.196V353.676C59.4308 356.396 59.2708 360.096 57.5908 362.716C57.9908 362.896 58.7108 363.376 59.0108 363.676C60.8108 360.876 61.1108 356.636 61.1108 353.676V348.196H59.4308ZM60.5108 348.196V349.876H72.4108V348.196H60.5108ZM66.6108 345.196C66.8708 355.616 67.7708 363.456 70.8108 363.516C71.5708 363.536 72.4308 362.716 72.8508 359.276C72.5708 359.136 71.8108 358.676 71.5308 358.336C71.3908 360.256 71.1708 361.336 70.8308 361.316C69.4308 361.256 68.4308 353.676 68.3308 345.196H66.6108ZM54.9308 346.716C55.9308 347.456 57.3308 348.496 58.0108 349.156L59.1508 347.656C58.4508 347.056 57.0308 346.076 56.0308 345.416L54.9308 346.716ZM53.8908 352.236C54.9708 352.856 56.4908 353.776 57.2308 354.336L58.1908 352.716C57.4308 352.196 55.8908 351.336 54.8308 350.796L53.8908 352.236ZM54.3908 362.276L55.9908 363.236C56.8708 361.356 57.8908 358.896 58.6708 356.776L57.2308 355.816C56.3908 358.116 55.2108 360.716 54.3908 362.276ZM58.1908 382.256V383.656H68.5108V382.256H58.1908ZM62.4708 380.276L62.4708 387.756H64.1108V380.276H62.4708ZM66.4308 379.076C64.7108 379.556 61.4708 379.876 58.7508 380.036C58.9308 380.336 59.1108 380.876 59.1708 381.176C61.9908 381.096 65.3908 380.756 67.6308 380.156L66.4308 379.076ZM62.2908 382.956C61.3108 384.356 59.4308 385.736 57.7508 386.416C58.0908 386.696 58.5708 387.256 58.8108 387.636C60.5308 386.776 62.4708 385.116 63.5308 383.456L62.2908 382.956ZM56.5708 388.296V389.936H70.1708V388.296H56.5708ZM55.6508 377.096L55.6508 390.676H57.4308L57.4308 378.696H69.2708V390.676H71.1308V377.096H55.6508ZM63.2508 383.776C64.7708 384.916 66.6308 386.596 67.4908 387.656L68.5308 386.596C67.6308 385.556 65.7508 383.956 64.2508 382.856L63.2508 383.776ZM54.5308 373.456V375.116H62.6708V373.456H54.5308ZM58.7108 372.116V376.376H60.4308V372.116H58.7108ZM66.1508 372.116V376.376H67.8908V372.116H66.1508ZM63.9708 373.456V375.116H72.2108V373.456H63.9708Z" fill="#FEFCFC"/>
<defs>
<filter id="filter0_d_16_33" x="0" y="0.661133" width="515" height="535" filterUnits="userSpaceOnUse" color-interpolation-filters="sRGB">
<feFlood flood-opacity="0" result="BackgroundImageFix"/>
<feColorMatrix in="SourceAlpha" type="matrix" values="0 0 0 0 0 0 0 0 0 0 0 0 0 0 0 0 0 0 127 0" result="hardAlpha"/>
<feOffset dx="2" dy="2"/>
<feColorMatrix type="matrix" values="0 0 0 0 0 0 0 0 0 0 0 0 0 0 0 0 0 0 0.2 0"/>
<feBlend mode="normal" in2="BackgroundImageFix" result="effect1_dropShadow_16_33"/>
<feBlend mode="normal" in="SourceGraphic" in2="effect1_dropShadow_16_33" result="shape"/>
</filter>
</defs>
</svg>
