<svg width="133" height="255" viewBox="0 0 133 255" fill="none" xmlns="http://www.w3.org/2000/svg">
<path d="M104.75 10.9301C105.226 11.7882 107.923 19.0346 104.668 26.3491C101.412 33.6636 93.3215 28.5693 93.3215 28.5693V15.0845L104.75 10.9301Z" fill="#E2AF9F"/>
<path d="M76.4178 71.5574C76.4178 71.5574 87.696 73.8457 96.9038 67.9887C106.098 62.1316 103.619 26.3491 103.619 26.3491H89.4395L81.1034 45.9907L76.4178 71.571V71.5574Z" fill="#F5C8BA"/>
<path d="M76.1317 219.7V231.142L97.6666 230.324V219.7H76.1317Z" fill="#F5C8BA"/>
<path d="M26.4013 218.406V229.847L46.3289 229.044V218.406H26.4013Z" fill="#F5C8BA"/>
<path d="M69.7026 92.275C69.7026 92.275 85.2442 116.888 94.452 156.307C102.856 192.253 104.668 221.988 104.668 221.988H68.3269C68.3269 221.988 64.2814 192.676 63.2053 181.084C62.1293 169.493 58.5469 153.965 58.5469 153.965C58.5469 153.965 53.5616 220.858 52.3766 222.002C51.1916 223.146 16.4034 222.247 16.7712 220.721C17.139 219.182 24.0993 113.701 25.0528 106.386C27.9541 83.898 69.7162 92.3022 69.7162 92.3022L69.7026 92.275Z" fill="#162F3A"/>
<path d="M51.2869 248.767C51.2869 250.783 50.6059 253.099 49.2165 253.684C47.8272 254.27 36.5898 255.482 26.7418 254.624C17.3297 253.807 15.3683 253.112 14.6736 252.254C14.3331 251.818 15.0005 249.802 15.7496 247.841C15.8041 247.746 15.8314 247.637 15.8722 247.528C16.2536 246.547 16.6623 245.594 16.9483 244.912C17.2343 244.272 17.5885 243.646 18.0107 243.06C19.0323 241.657 21.0482 238.742 21.5658 237.244C22.2469 235.242 23.2821 230.91 23.9768 228.881C24.6714 226.878 26.3741 226.456 26.3741 226.456C26.3741 226.456 45.7432 225.135 47.1325 226.293C48.5082 227.437 49.2029 236.971 49.2029 238.402V239.845C49.2029 241.18 50.1292 243.836 50.7149 246.029C50.8783 246.574 51.0009 247.092 51.0963 247.569C51.1916 248.032 51.2597 248.44 51.2597 248.781L51.2869 248.767Z" fill="#5D2866"/>
<path d="M132.332 252.881C131.038 253.412 76.0636 254.91 74.7969 252.881C74.4155 252.268 74.1294 250.184 73.9524 247.568C73.5029 241.398 73.5029 232.218 73.5029 232.218C73.5029 232.218 73.0942 229.085 73.176 227.627C73.2441 226.183 99.6825 226.742 99.6825 226.742L116.872 240.295C116.872 240.295 121.585 239.45 126.748 240.295C129.472 240.731 131.242 244.081 132.114 247.228C132.891 250.02 132.959 252.622 132.346 252.881H132.332Z" fill="#5D2866"/>
<path d="M132.332 252.881C131.038 253.412 76.0636 254.91 74.7968 252.881C74.4154 252.268 74.1294 250.184 73.9523 247.568C84.3997 248.318 110.116 249.721 132.114 247.228C132.891 250.02 132.959 252.622 132.346 252.881H132.332Z" fill="white"/>
<path d="M51.2869 248.767C51.2869 250.783 50.6059 253.099 49.2165 253.684C47.8272 254.27 36.5898 255.482 26.7418 254.624C17.3297 253.807 15.3683 253.112 14.6736 252.254C14.3331 251.818 15.0005 249.802 15.7496 247.841C24.4944 248.508 40.2675 249.108 50.7285 246.029C50.8919 246.574 51.0145 247.092 51.1099 247.568C51.2052 248.032 51.2733 248.44 51.2733 248.781L51.2869 248.767Z" fill="white"/>
<path d="M58.547 154.36C58.2882 154.346 58.1247 154.142 58.1383 153.924C58.1383 153.774 59.2825 139.377 59.6094 132.988C59.9363 126.614 59.9499 123.562 59.9499 123.535C59.9499 123.372 60.0453 123.236 60.1951 123.167L71.9637 117.923C72.168 117.828 72.4132 117.923 72.4949 118.128C72.5903 118.332 72.4949 118.577 72.2906 118.659L60.7536 123.794C60.7536 124.666 60.6855 127.676 60.413 133.029C60.0861 139.417 58.9556 153.842 58.942 153.978C58.9284 154.196 58.7513 154.346 58.5333 154.346L58.547 154.36Z" fill="#FFBA57"/>
<path d="M26.8917 236.44C26.7146 236.44 26.5511 236.317 26.4967 236.14C26.4422 235.922 26.5648 235.704 26.7827 235.65C27.096 235.568 34.5739 233.566 38.5513 234.261L40.8805 234.656C38.7556 233.103 34.4377 230.365 31.768 231.509C31.5637 231.591 31.3185 231.509 31.2368 231.291C31.155 231.087 31.2368 230.855 31.4547 230.76C35.5546 229.003 42.3788 234.765 42.6785 235.01C42.8147 235.132 42.8555 235.323 42.7874 235.487C42.7057 235.65 42.5422 235.745 42.3515 235.718L38.4287 235.051C34.642 234.397 27.0824 236.413 27.0143 236.426C26.9734 236.426 26.9461 236.44 26.9053 236.44H26.8917Z" fill="#FFBA57"/>
<path d="M112.745 237.448L102.911 236.44C102.761 236.426 102.638 236.331 102.584 236.195C102.529 236.059 102.557 235.895 102.652 235.786L106.071 231.768C106.221 231.605 106.466 231.577 106.643 231.727C106.806 231.877 106.834 232.122 106.684 232.299L103.769 235.732L112.8 236.658C113.018 236.685 113.181 236.876 113.154 237.108C113.126 237.312 112.963 237.475 112.759 237.475L112.745 237.448Z" fill="#FFBA57"/>
<path d="M42.4741 36.3469C42.4741 36.3469 31.7544 36.3061 25.9654 41.9452C20.1765 47.5843 25.0392 102.75 25.0392 102.75C25.0392 102.75 45.0349 105.092 55.9862 102.75C66.9375 100.407 73.7072 95.6257 73.7072 95.6257C73.7072 95.6257 70.1793 44.4514 67.1691 39.0166C64.1588 33.5818 42.4877 36.3333 42.4877 36.3333L42.4741 36.3469Z" fill="#9BC9DD"/>
<path d="M40.3493 32.3968L40.4037 39.3299C40.4037 39.3299 43.0462 41.5229 46.397 41.5229C50.9192 41.5229 52.4447 38.0223 52.4447 38.0223L52.2677 29.8905L40.3356 32.3968H40.3493Z" fill="#E2AF9F"/>
<path d="M40.3493 32.2198C40.3493 32.2198 43.0871 37.8316 48.195 36.9735C52.3222 36.2925 52.2813 30.4626 52.2813 30.4626L40.3493 32.2061V32.2198Z" fill="black"/>
<path d="M54.0248 12.2377C54.0248 12.2377 56.6264 24.6057 52.6899 30.6125C48.7535 36.6194 43.4821 34.9577 41.112 33.2005C37.8975 30.8169 37.1892 27.4525 37.1892 27.4525C37.1892 27.4525 32.8441 28.3923 31.3321 24.8645C29.7385 21.1595 32.4082 18.0948 34.5876 17.8905C36.7669 17.6725 37.0257 18.0676 37.0257 18.0676L36.3174 14.0902C36.3174 14.0902 49.3119 -0.852074 54.0248 12.2514V12.2377Z" fill="#F5C8BA"/>
<path d="M52.0225 18.0811C52.0225 18.0811 58.5742 15.1526 59.1735 20.2604C59.8682 26.172 52.7852 26.349 52.7852 26.349L52.0089 18.0811H52.0225Z" fill="#F5C8BA"/>
<path d="M55.3869 23.3797C55.3869 23.3797 55.2507 23.3661 55.1962 23.3252C55.0055 23.2163 54.9374 22.9711 55.0464 22.7804L57.1849 18.9665C57.2938 18.7758 57.539 18.7077 57.7297 18.8167C57.9204 18.9256 57.9885 19.1708 57.8795 19.3615L55.741 23.1754C55.6729 23.3116 55.5231 23.3797 55.3869 23.3797Z" fill="black"/>
<path d="M36.3991 23.8292C36.3038 23.8292 36.2221 23.802 36.1403 23.7338L32.7351 20.9007C32.558 20.7645 32.5444 20.5057 32.6806 20.3286C32.8304 20.1651 33.0756 20.1379 33.2527 20.2741L36.6579 23.1073C36.835 23.2435 36.8486 23.5023 36.7124 23.6794C36.6307 23.7747 36.5217 23.8292 36.3991 23.8292Z" fill="black"/>
<path d="M33.3071 24.4149C33.1846 24.4149 33.062 24.3604 32.9939 24.2651C32.8576 24.088 32.8849 23.8292 33.062 23.693L35.0234 22.1674C35.2005 22.0312 35.4456 22.0585 35.5955 22.2355C35.7317 22.4126 35.7044 22.6714 35.5274 22.8076L33.5659 24.3332C33.4978 24.3877 33.4025 24.4149 33.3208 24.4149H33.3071Z" fill="black"/>
<path d="M57.934 22.2083H56.0543C55.8364 22.2083 55.6457 22.0312 55.6457 21.7996C55.6457 21.5681 55.8227 21.391 56.0543 21.391H57.934C58.1519 21.391 58.3426 21.5681 58.3426 21.7996C58.3426 22.0312 58.1656 22.2083 57.934 22.2083Z" fill="black"/>
<path d="M43.4957 20.6146C43.2914 20.6146 43.1143 20.4648 43.1007 20.2469L42.8691 18.122C42.8419 17.904 43.0053 17.6997 43.2233 17.6725C43.4412 17.6589 43.6455 17.8087 43.6728 18.0266L43.9043 20.1515C43.9316 20.3695 43.7681 20.5738 43.5502 20.601C43.5366 20.601 43.5229 20.601 43.5093 20.601L43.4957 20.6146Z" fill="black"/>
<path d="M51.6411 19.7838C51.4368 19.7838 51.2597 19.634 51.2461 19.4161L51.0145 17.2912C50.9873 17.0732 51.1507 16.8689 51.3687 16.8417C51.5866 16.8281 51.7909 16.9779 51.8182 17.1958L52.0497 19.3207C52.077 19.5386 51.9135 19.743 51.6956 19.7702C51.682 19.7702 51.6683 19.7702 51.6547 19.7702L51.6411 19.7838Z" fill="black"/>
<path d="M48.1677 25.5318C47.8817 25.491 47.7318 25.2866 47.7727 25.0687C48.2358 21.9222 47.1053 19.3479 47.0917 19.3342C46.9963 19.1299 47.0917 18.8847 47.296 18.803C47.5003 18.7077 47.7318 18.803 47.8272 19.0073C47.8817 19.1163 49.0803 21.7996 48.5763 25.2049C48.5491 25.4092 48.372 25.5454 48.1813 25.5454L48.1677 25.5318Z" fill="black"/>
<path d="M52.0361 15.9017C52.0361 15.9017 51.9135 15.8881 51.8454 15.8608C51.0281 15.4386 49.7886 15.7519 49.775 15.7519C49.5571 15.8064 49.3391 15.6701 49.2846 15.4658C49.2302 15.2479 49.3664 15.03 49.5707 14.9755C49.6388 14.9619 51.1235 14.5805 52.2132 15.1525C52.4175 15.2615 52.4856 15.4931 52.3902 15.6974C52.3221 15.8336 52.1723 15.9153 52.0361 15.9153V15.9017Z" fill="black"/>
<path d="M41.7658 16.9097C41.6705 16.9097 41.5615 16.8688 41.4798 16.7871C41.3163 16.6373 41.3163 16.3785 41.4798 16.215C42.3379 15.3433 43.8771 15.2207 43.9316 15.2207C44.1359 15.2207 44.3402 15.3705 44.3538 15.6021C44.3674 15.82 44.204 16.0107 43.9724 16.038C43.9724 16.038 42.6784 16.1333 42.0382 16.7871C41.9565 16.8688 41.8612 16.9097 41.7522 16.9097H41.7658Z" fill="black"/>
<path d="M38.9599 19.1572C38.9599 19.1572 42.12 17.0187 41.9293 13.7768C41.7386 10.535 41.0303 9.70415 41.0303 9.70415C41.0303 9.70415 44.2858 11.434 48.3176 10.2081C52.8943 8.83241 55.4005 2.5531 52.9079 0.836852C50.1292 -1.07009 43.3732 1.61325 43.3732 1.61325C43.3732 1.61325 36.3038 1.21824 31.6863 6.84373C27.0688 12.4556 32.2448 19.0754 32.2448 19.0754C32.2448 19.0754 33.6069 16.1741 38.9599 19.1435V19.1572Z" fill="#431949"/>
<path d="M47.5139 28.9779C45.716 28.9779 44.2721 27.5068 44.204 27.4387C44.0542 27.2753 44.0542 27.0301 44.204 26.8666C44.3675 26.7168 44.6263 26.7168 44.7761 26.8666C44.7897 26.8803 46.4787 28.5829 48.195 28.0653C48.4129 27.9972 48.6309 28.1198 48.699 28.3377C48.7671 28.5557 48.6445 28.7736 48.4265 28.8417C48.1133 28.937 47.8 28.9779 47.5003 28.9779H47.5139Z" fill="black"/>
<path d="M51.6411 4.84162C51.6411 4.84162 54.6786 7.62032 55.3869 10.9983C56.0952 14.3764 55.3869 17.2504 55.3869 17.2504H54.7058C54.7058 17.2504 53.0713 9.03691 50.4152 8.27413C47.7727 7.52497 51.6411 4.828 51.6411 4.828V4.84162Z" fill="#431949"/>
<path d="M35.0643 37.423C35.0643 37.423 16.921 38.9213 9.06171 51.548C1.20236 64.1611 0.589417 75.5074 0.589417 75.5074L28.8531 71.5573L35.0643 37.423Z" fill="#9BC9DD"/>
<path d="M65.3439 71.5573L80.1227 72.1839L81.1034 45.977C81.1034 45.977 66.597 36.81 60.7127 36.1017C54.8421 35.3934 65.3439 71.5437 65.3439 71.5437V71.5573Z" fill="#9BC9DD"/>
<path d="M4.03555 75.0307C4.03555 75.0307 2.37378 95.939 17.8337 93.7733C35.3776 91.3079 44.49 55.1031 44.49 55.1031L49.7205 51.8886C49.7205 51.8886 48.7126 56.0158 52.9079 53.7955C57.1031 51.5753 56.2586 47.4073 56.2586 47.4073L51.3551 39.0031C51.3551 39.0031 58.6014 32.2743 56.4493 31.9337C53.1394 31.4161 42.8419 38.2812 42.8419 38.2812C42.8419 38.2812 43.414 34.1404 41.0167 34.8214C38.4287 35.5569 37.5161 43.1984 37.5161 43.1984L10.0152 73.6005L4.03555 75.0307Z" fill="#F5C8BA"/>
<path d="M49.7205 52.2834C49.5979 52.2834 49.489 52.229 49.4072 52.1336C49.2846 51.9974 49.2846 51.7931 49.3936 51.6433L51.3142 48.9463C51.4368 48.7692 51.6956 48.7147 51.8726 48.851C52.0497 48.9872 52.0906 49.2323 51.968 49.4094L50.9328 50.8669L52.4175 50.1722C52.6218 50.0768 52.8533 50.1722 52.9487 50.3629C53.044 50.5672 52.9487 50.8124 52.758 50.8941L49.884 52.2426C49.884 52.2426 49.775 52.2834 49.7069 52.2834H49.7205Z" fill="black"/>
<path d="M38.919 41.9178C38.7965 41.9178 38.6875 41.8634 38.6058 41.768C38.4695 41.5909 38.4832 41.3458 38.6602 41.1959L43.7 37.0551C43.8771 36.9189 44.1223 36.9325 44.2721 37.1096C44.4083 37.2867 44.3947 37.5319 44.2176 37.6817L39.1778 41.8225C39.0961 41.877 39.0144 41.9178 38.919 41.9178Z" fill="black"/>
<path d="M49.489 40.6649C49.3528 40.6649 49.2302 40.5968 49.1485 40.4879C49.0259 40.2972 49.0667 40.052 49.2574 39.9294L51.1235 38.6763C51.3142 38.5537 51.5594 38.5945 51.682 38.7852C51.8046 38.9759 51.7637 39.2211 51.573 39.3437L49.7069 40.5968C49.6388 40.6377 49.5571 40.6649 49.4754 40.6649H49.489Z" fill="black"/>
<path d="M26.8917 118.523C26.7691 118.523 26.6329 118.468 26.5648 118.346C26.4422 118.169 26.483 117.91 26.6601 117.787C32.7078 113.578 34.2879 107.435 34.3015 107.367C34.356 107.149 34.5739 107.013 34.7919 107.067C35.0098 107.122 35.146 107.34 35.0915 107.558C35.0234 107.817 33.4298 114.041 27.1232 118.441C27.0551 118.495 26.9734 118.509 26.8917 118.509V118.523Z" fill="#FFBA57"/>
<path d="M122.423 7.43028L96.7971 6.75477C95.2931 6.71512 94.0417 7.90223 94.0021 9.40625L93.6589 22.4234C93.6193 23.9275 94.8064 25.1788 96.3104 25.2185L121.936 25.894C123.44 25.9337 124.692 24.7465 124.731 23.2425L125.074 10.2253C125.114 8.72132 123.927 7.46993 122.423 7.43028Z" fill="#5D2866"/>
<path d="M97.7395 8.25124L118.436 8.79682C119.675 8.82948 120.656 9.86365 120.624 11.1027L120.334 22.0911C120.301 23.3302 119.267 24.3112 118.028 24.2786L97.3314 23.733C96.0923 23.7003 95.1113 22.6662 95.1439 21.4271L95.4336 10.4387C95.4662 9.19962 96.5004 8.21858 97.7395 8.25124Z" fill="white"/>
<path d="M123.765 16.7053C123.751 17.3455 123.22 17.8495 122.579 17.8359C121.939 17.8222 121.435 17.291 121.449 16.6508C121.463 16.0106 121.994 15.5067 122.634 15.5203C123.274 15.5339 123.778 16.0651 123.765 16.7053Z" fill="#A76FA8"/>
<path d="M89.4259 27.5887C89.4259 27.5887 87.1648 19.5114 88.7312 16.8689C90.2976 14.24 94.1115 11.5567 97.4078 12.2922C100.704 13.0278 95.1467 17.5772 95.1467 17.5772C95.1467 17.5772 98.6201 25.2322 96.359 28.8554C94.0979 32.4786 89.4122 27.5887 89.4122 27.5887H89.4259Z" fill="#F5C8BA"/>
<path d="M95.1195 30.3946C94.956 30.3946 94.8062 30.2993 94.7381 30.1358C94.6564 29.9315 94.7653 29.6999 94.9833 29.6182C97.1082 28.8418 96.6995 24.2651 96.359 22.5761C96.3181 22.3582 96.4544 22.1403 96.6723 22.0994C96.8902 22.0585 97.1082 22.1947 97.149 22.4127C97.2035 22.6851 98.4566 29.2096 95.2557 30.381C95.2148 30.3946 95.1604 30.4082 95.1195 30.4082V30.3946Z" fill="black"/>
<path d="M106.15 18.5517C105.501 19.0222 105.568 20.0064 106.274 20.3924C107.497 21.0609 109.052 21.0117 110.261 20.1363C111.47 19.2609 111.991 17.799 111.722 16.4363C111.566 15.6538 110.649 15.2828 110.001 15.7588C109.971 15.7788 108.009 17.2058 107.978 17.2258C107.953 17.2443 106.175 18.5332 106.15 18.5517Z" fill="#9BC9DD"/>
<path d="M112.138 22.3018C113.236 21.5039 113.899 20.5464 113.619 20.1634C113.338 19.7803 112.22 20.1166 111.122 20.9146C110.023 21.7126 109.36 22.67 109.641 23.0531C109.921 23.4362 111.039 23.0998 112.138 22.3018Z" fill="#64C676"/>
<path d="M108.079 10.4569C107.824 10.6381 107.686 10.9478 107.728 11.2625C107.838 12.0277 107.521 12.8243 106.849 13.3008C106.263 13.7187 105.545 13.7985 104.91 13.5891C104.399 13.4177 103.845 13.4653 103.409 13.7777L101.234 15.3211C100.778 15.645 100.749 16.3168 101.184 16.6689C102.791 17.9697 105.32 17.9917 107.305 16.5823C109.289 15.173 110.094 12.7872 109.378 10.8502C109.184 10.327 108.541 10.1316 108.079 10.4569Z" fill="#64C676"/>
<path d="M107.305 16.5823C108.467 15.755 109.219 14.5988 109.505 13.3956C108.271 14.1769 107.364 15.4221 105.965 15.9688C104.961 16.3624 103.83 16.6832 102.736 16.3834C102.594 16.3443 101.354 15.9236 100.922 15.6715C100.774 15.9842 100.838 16.3819 101.13 16.624C102.732 17.9735 105.295 18.0102 107.305 16.5823Z" fill="#57B565"/>
<path d="M106.291 12.7979C106.905 12.6332 107.271 12.0043 107.107 11.3932C106.943 10.7821 106.312 10.4202 105.698 10.5849C105.083 10.7496 104.717 11.3786 104.881 11.9897C105.045 12.6008 105.676 12.9626 106.291 12.7979Z" fill="#9BC9DD"/>
<path d="M105.851 10.5556C105.887 10.623 105.938 10.6805 106.003 10.7224C106.186 10.8275 106.412 10.9804 106.519 11.1355C106.556 11.1849 106.595 11.2398 106.622 11.2976C106.622 11.2976 106.622 11.2976 106.625 11.3087L106.636 11.3474C106.636 11.3474 106.662 11.3998 106.669 11.4274C106.669 11.4274 106.694 11.5215 106.688 11.4993C106.683 11.4772 106.697 11.5743 106.697 11.5743C106.699 11.627 106.697 11.7104 106.698 11.7341C106.674 11.936 106.578 12.1574 106.459 12.3138C106.292 12.5365 106.121 12.6772 105.906 12.8298C105.906 12.8298 105.9 12.8313 105.896 12.8383C106.043 12.8523 106.199 12.8342 106.348 12.7884C106.951 12.5912 107.285 11.9444 107.094 11.3432C106.921 10.8085 106.395 10.4929 105.852 10.5611L105.851 10.5556Z" fill="#70A0B4"/>
<path d="M110.261 20.1364C111.186 19.4677 111.701 18.452 111.777 17.3999C111.63 17.4512 111.495 17.5287 111.391 17.6516C110.895 18.2054 110.347 18.6963 109.733 19.1217C109.461 19.3073 109.226 19.477 108.914 19.5605C108.858 19.5754 108.853 19.5769 108.892 19.5665C108.858 19.5754 108.829 19.5774 108.794 19.5808C108.713 19.5906 108.632 19.6004 108.55 19.6047C108.398 19.6158 108.343 19.6126 108.241 19.6103C107.606 19.5552 107.18 19.4323 106.615 19.1271C106.565 19.0988 106.558 19.0948 106.602 19.1245C106.574 19.1084 106.551 19.0907 106.523 19.0746C106.458 19.0327 106.392 18.9852 106.327 18.9433C106.217 18.8661 106.109 18.7763 106.008 18.6906C105.51 19.1917 105.614 20.0473 106.265 20.4066C107.488 21.0751 109.044 21.0259 110.253 20.1504L110.261 20.1364Z" fill="#7EAFC5"/>
<path d="M113.615 20.1628C113.465 19.9598 113.078 19.9627 112.585 20.1246C112.744 20.2301 112.974 20.2871 112.951 20.489C112.941 20.5865 112.892 20.6944 112.85 20.7827C112.672 21.1862 112.364 21.5477 112.074 21.8685C111.469 22.5286 110.593 22.7989 109.795 23.1609C110.217 23.3325 111.18 22.9855 112.135 22.2968C113.233 21.4985 113.896 20.5441 113.613 20.1573L113.615 20.1628Z" fill="#57B565"/>
</svg>
