<svg width="515" height="536" viewBox="0 0 515 536" fill="none" xmlns="http://www.w3.org/2000/svg">
<g filter="url(#filter0_d_10_5016)">
<path d="M18.047 167.888C18.6504 150.383 22.4301 133.374 29.2443 117.235C36.4667 100.156 46.7945 84.7985 59.9438 71.6603C73.093 58.5045 88.425 48.1715 105.496 40.9455C123.224 33.4532 142.016 29.6361 161.323 29.6361H318.884V0.661133L363.797 30.8256L424.202 71.4118L360.39 114.288L318.884 142.162V108.749H175.093C147.002 108.749 122.372 123.609 108.637 145.891L70.7152 89.4146L18.047 167.888Z" fill="#64C676"/>
<path d="M143.134 499.413C130.215 497.78 117.598 494.371 105.496 489.258C88.425 482.032 73.093 471.699 59.9437 458.543C46.7945 445.405 36.4667 430.065 29.2443 412.968C21.7558 395.231 17.9405 376.447 17.9405 357.113V194.786H0L18.047 167.888L70.7152 89.4146L108.637 145.891L141.448 194.768H97.0492V343.318C97.0492 379.341 121.414 409.665 154.562 418.685L88.7799 462.893L143.134 499.413Z" fill="#9BC9DD"/>
<path d="M194.099 533.661L143.134 499.431L88.7799 462.91L154.562 418.702L194.099 392.142V421.436H345.253C370.398 421.436 392.154 407.002 402.713 385.981L442.267 444.908L487.092 378.098C485.353 390.065 482.088 401.729 477.332 412.968C470.109 430.065 459.782 445.405 446.632 458.543C433.501 471.699 418.169 482.032 401.08 489.258C383.353 496.75 364.578 500.567 345.253 500.567H194.099V533.661Z" fill="#62A4C1"/>
<path d="M442.285 444.89L402.73 385.964L371.57 339.519H409.562V186.85C409.562 153.934 389.209 125.775 360.408 114.288L424.22 71.4119L363.815 30.8257C376.627 32.4768 389.12 35.8679 401.098 40.9456C418.187 48.1716 433.519 58.5045 446.65 71.6604C459.799 84.7986 470.127 100.156 477.35 117.236C484.838 134.972 488.653 153.756 488.653 173.09V339.519H513L487.11 378.081L442.285 444.89Z" fill="#7AE38D"/>
<g style="mix-blend-mode:overlay" opacity="0.27">
<path d="M402.73 385.964V488.601C402.73 488.601 474.014 461.739 487.127 378.081L442.303 444.89L402.748 385.964H402.73Z" fill="#28364C"/>
</g>
<g style="mix-blend-mode:overlay" opacity="0.27">
<path d="M154.562 418.702L31.5335 418.578C31.5335 418.578 59.6066 487.181 143.134 499.413L88.7799 462.893L154.562 418.685V418.702Z" fill="#28364C"/>
</g>
<g style="mix-blend-mode:overlay" opacity="0.57">
<path d="M108.637 145.909L106.72 40.4307C106.72 40.4307 22.998 69.157 18.047 167.888L70.7152 89.4146L108.637 145.909Z" fill="#28364C"/>
</g>
<g style="mix-blend-mode:overlay" opacity="0.57">
<path d="M360.408 114.288L477.35 117.218C477.35 117.218 452.187 44.1768 363.868 30.8079L424.22 71.3941L360.408 114.271V114.288Z" fill="#28364C"/>
</g>
</g>
<path d="M156.922 86.3255H150.676V61.221C150.676 58.2205 150.747 55.8592 150.889 54.1015C150.48 54.5276 149.984 54.9892 149.38 55.5041C148.795 56.019 146.789 57.6524 143.418 60.4043L140.277 56.4451L151.705 47.4614H156.922V86.3255Z" fill="#FEFCFC"/>
<path d="M429.774 185.483V159.135H434.512L444.574 169.167C447.608 172.132 449.756 174.085 451.016 175.061C452.275 176.02 453.482 176.73 454.582 177.174C455.7 177.618 456.889 177.831 458.167 177.831C459.924 177.831 461.308 177.298 462.319 176.251C463.331 175.203 463.828 173.729 463.828 171.883C463.828 170.392 463.562 168.954 463.011 167.569C462.461 166.184 461.468 164.568 460.03 162.74L464.147 159.366C465.975 161.532 467.27 163.627 468.033 165.669C468.796 167.711 469.169 169.877 469.169 172.185C469.169 175.807 468.228 178.701 466.347 180.884C464.466 183.068 461.929 184.151 458.735 184.151C456.978 184.151 455.31 183.832 453.731 183.21C452.151 182.589 450.536 181.612 448.851 180.316C447.183 179.02 444.911 176.854 442.054 173.818L435.524 167.072H435.258V185.518H429.757L429.774 185.483Z" fill="white"/>
<path d="M208.809 454.388C208.809 456.856 208.1 458.898 206.662 460.549C205.225 462.183 203.202 463.301 200.611 463.869V464.082C203.734 464.473 206.077 465.449 207.62 466.994C209.182 468.539 209.963 470.598 209.963 473.172C209.963 476.919 208.65 479.795 206.006 481.819C203.362 483.843 199.617 484.855 194.737 484.855C190.425 484.855 186.805 484.162 183.842 482.76V477.203C185.492 478.019 187.231 478.641 189.077 479.085C190.922 479.528 192.697 479.741 194.4 479.741C197.417 479.741 199.671 479.191 201.143 478.073C202.634 476.954 203.379 475.232 203.379 472.888C203.379 470.811 202.563 469.284 200.913 468.308C199.262 467.331 196.672 466.852 193.158 466.852H189.786V461.774H193.211C199.404 461.774 202.51 459.626 202.51 455.347C202.51 453.678 201.977 452.4 200.895 451.494C199.813 450.589 198.215 450.145 196.104 450.145C194.631 450.145 193.211 450.358 191.845 450.767C190.478 451.175 188.864 451.992 187 453.199L183.948 448.831C187.515 446.204 191.65 444.89 196.352 444.89C200.274 444.89 203.326 445.724 205.527 447.411C207.727 449.098 208.827 451.423 208.827 454.371L208.809 454.388Z" fill="#FEFCFC"/>
<path d="M52.3488 215.328V210.09H43.8665V204H52.3488V186.246H57.1577L82.8353 204V210.09H57.5304V215.328H52.3488ZM57.5304 204H67.2726C70.7507 204 73.5899 204.089 75.8081 204.267V204.054C74.6369 203.556 73.2173 202.775 71.5492 201.71L57.5127 192.052V203.983L57.5304 204Z" fill="#FEFCFC"/>
<defs>
<filter id="filter0_d_10_5016" x="0" y="0.661133" width="515" height="535" filterUnits="userSpaceOnUse" color-interpolation-filters="sRGB">
<feFlood flood-opacity="0" result="BackgroundImageFix"/>
<feColorMatrix in="SourceAlpha" type="matrix" values="0 0 0 0 0 0 0 0 0 0 0 0 0 0 0 0 0 0 127 0" result="hardAlpha"/>
<feOffset dx="2" dy="2"/>
<feColorMatrix type="matrix" values="0 0 0 0 0 0 0 0 0 0 0 0 0 0 0 0 0 0 0.2 0"/>
<feBlend mode="normal" in2="BackgroundImageFix" result="effect1_dropShadow_10_5016"/>
<feBlend mode="normal" in="SourceGraphic" in2="effect1_dropShadow_10_5016" result="shape"/>
</filter>
</defs>
</svg>
