<svg width="114" height="105" viewBox="0 0 114 105" fill="none" xmlns="http://www.w3.org/2000/svg">
<path d="M113.236 0.0480957H0.236328V104.048H113.236V0.0480957Z" fill="#CA000C"/>
<mask id="mask0_16_51" style="mask-type:luminance" maskUnits="userSpaceOnUse" x="0" y="0" width="114" height="105">
<path d="M113.236 0.0480957H0.236328V104.048H113.236V0.0480957Z" fill="white"/>
</mask>
<g mask="url(#mask0_16_51)">
<path d="M73.2064 23.6908C79.6977 23.6908 84.9691 51.193 84.9691 85.1201H94.3838C94.3838 48.5814 84.9 18.9761 73.2064 18.9761C66.5539 18.9761 60.615 27.8739 56.7248 41.7868C52.8346 27.8739 46.8957 18.9761 40.2433 18.9761C28.5496 18.9761 19.0658 48.5814 19.0658 85.1201H28.4806C28.4806 51.193 33.7519 23.6908 40.2433 23.6908C46.7346 23.6908 52.0059 49.0668 52.0059 80.4054H61.4207C61.4207 49.0899 66.692 23.6908 73.1834 23.6908" fill="#FDD02B"/>
<path d="M100.553 77.4703C102.625 77.4703 104.351 79.1112 104.351 81.2837C104.351 83.4561 102.625 85.1201 100.553 85.1201C98.4812 85.1201 96.7318 83.4792 96.7318 81.2837C96.7318 79.0881 98.4812 77.4703 100.553 77.4703ZM100.553 84.5423C102.302 84.5423 103.66 83.1326 103.66 81.2606C103.66 79.3886 102.302 78.025 100.553 78.025C98.8035 78.025 97.4223 79.4348 97.4223 81.2606C97.4223 83.0863 98.7804 84.5423 100.553 84.5423ZM99.0797 79.0419H100.806C101.865 79.0419 102.348 79.4579 102.348 80.313C102.348 81.1219 101.842 81.4686 101.197 81.5379L102.463 83.5023H101.727L100.53 81.5841H99.7933V83.5023H99.1027V79.0419H99.0797ZM99.7703 81.0294H100.484C101.082 81.0294 101.635 81.0063 101.635 80.2899C101.635 79.689 101.128 79.5966 100.668 79.5966H99.7472V81.0063L99.7703 81.0294Z" fill="#FDD02B"/>
</g>
</svg>
