<svg width="107" height="111" viewBox="0 0 107 111" fill="none" xmlns="http://www.w3.org/2000/svg">
<path d="M106.062 0.309082H0.212097V110.393H106.062V0.309082Z" fill="#006546"/>
<path d="M66.2994 99.5606V103.69H40.9078V99.5552H21.6928C19.8101 99.5552 18.2889 97.5877 18.2889 95.1661L10.2565 13.6979C10.2565 11.271 12.1284 9.30887 14.4372 9.30887H92.0686C94.3774 9.30887 96.2547 11.2764 96.2547 13.6979L88.3087 95.1661C88.3087 97.5877 86.7821 99.5552 84.9048 99.5552H66.2994V99.5606Z" fill="white"/>
<path d="M24.3792 21.2329H76.36C71.2407 23.1572 55.6615 33.7245 51.7667 40.827H24.4385L24.3792 21.2329Z" fill="#FF6600"/>
<path d="M65.8085 77.3828C65.0694 84.4799 65.0425 93.123 65.0425 102.193H42.5099C42.5099 93.1176 42.8821 84.4745 43.6212 77.3828H65.8085Z" fill="#FE000C"/>
<path d="M22.7231 61.1129H30.9604V64.3777H27.3569V67.129H30.9604V69.8803H27.3569V72.6315H30.9604V75.7828H22.7231V61.1129Z" fill="#006546"/>
<path d="M41.8788 61.1129H50.1161V64.3777H46.5126V67.129H50.1161V69.8803H46.5126V72.6315H50.1161V75.7828H41.8788V61.1129Z" fill="#006546"/>
<path d="M62.9818 61.1129H71.2137V64.3777H67.6102V67.129H71.2137V69.8803H67.6102V72.6315H71.2137V75.7828H62.9818V61.1129Z" fill="#006546"/>
<path d="M37.1316 72.6315H40.7351V75.7828H32.5032V61.1129H37.1316V72.6315Z" fill="#006546"/>
<path d="M50.9576 61.1129L53.2502 75.7828H59.2057L61.9946 61.1129H58.5476L56.7458 71.0262L54.998 61.1129H50.9576Z" fill="#006546"/>
<path d="M77.6223 61.1129H73.1611V75.7828H77.6223V61.1129Z" fill="#006546"/>
<path d="M77.6223 65.4696C77.8543 63.8642 80.1415 64.2912 80.1415 65.2101V75.7828H84.6027V63.3507C84.6027 60.7129 80.8859 59.6535 77.6547 61.9778" fill="#006546"/>
<path d="M67.9015 59.0481C68.3547 53.432 76.0202 44.2647 83.4537 41.8594V20.2005C63.0088 29.3678 49.7115 43.2323 46.8362 58.9941L67.8961 59.0481H67.9015Z" fill="#FE000C"/>
<path d="M73.83 83.6205C73.2528 84.1988 72.5569 84.4907 71.737 84.4907C70.917 84.4907 70.2211 84.1988 69.6493 83.6205C69.0775 83.0421 68.7916 82.3448 68.7916 81.5232C68.7916 80.7016 69.0829 80.0152 69.6601 79.4368C70.2319 78.8638 70.9278 78.5774 71.7424 78.5774C72.5569 78.5774 73.2582 78.8638 73.8354 79.4368C74.4126 80.0098 74.7039 80.707 74.7039 81.5232C74.7039 82.3394 74.4126 83.0421 73.8354 83.6205M69.9406 79.7233C69.4443 80.2206 69.2016 80.8205 69.2016 81.5232C69.2016 82.2259 69.4443 82.8367 69.9406 83.334C70.4315 83.8313 71.0357 84.0853 71.7424 84.0853C72.449 84.0853 73.0478 83.8367 73.5495 83.334C74.0458 82.8367 74.2885 82.2313 74.2885 81.5232C74.2885 80.8151 74.0404 80.2206 73.5495 79.7233C73.0478 79.226 72.449 78.9773 71.7424 78.9773C71.0357 78.9773 70.4423 79.226 69.9406 79.7233ZM71.6884 79.8854C72.093 79.8854 72.3897 79.9233 72.5731 80.0044C72.9076 80.1449 73.0802 80.4206 73.0802 80.8314C73.0802 81.1232 72.9723 81.334 72.7673 81.4746C72.654 81.5449 72.4976 81.5989 72.298 81.6313C72.5461 81.6746 72.7295 81.7773 72.8482 81.9502C72.9669 82.1232 73.0262 82.2908 73.0262 82.4529V82.6908C73.0262 82.7664 73.0262 82.8475 73.0316 82.934C73.0316 83.0205 73.0478 83.0745 73.0586 83.1016L73.0802 83.1448H72.5461C72.5461 83.1448 72.5461 83.1232 72.5407 83.1124C72.5407 83.1016 72.5407 83.0854 72.5299 83.0745L72.5192 82.9718V82.7124C72.5192 82.3394 72.4167 82.0908 72.2117 81.9665C72.0876 81.8962 71.8772 81.8638 71.5697 81.8638H71.1166V83.1448H70.5502V79.8908H71.6884V79.8854ZM72.3142 80.4097C72.1685 80.3287 71.9366 80.2908 71.6129 80.2908H71.122V81.453H71.6453C71.8934 81.453 72.0714 81.4313 72.1955 81.3827C72.4221 81.2962 72.5353 81.1286 72.5353 80.88C72.5353 80.6476 72.4652 80.4908 72.3196 80.4097" fill="#006546"/>
</svg>
