<svg width="403" height="236" viewBox="0 0 403 236" fill="none" xmlns="http://www.w3.org/2000/svg">
<path d="M402.695 229.695C402.695 233.05 312.624 235.78 201.511 235.78C90.3981 235.78 0.327553 233.065 0.327553 229.695C0.327553 226.325 90.3981 223.61 201.511 223.61C312.624 223.61 402.695 226.339 402.695 229.695Z" fill="#B2ACBA"/>
<path d="M135.469 89.7906H131.488V101.506H135.469V89.7906Z" fill="#B29186"/>
<path d="M164.729 58.7245C164.729 58.7245 163.379 53.9473 161.673 52.5966C159.966 51.2459 153.753 48.5302 152.843 49.8809C151.933 51.2316 155.587 54.5728 155.587 54.5728C155.587 54.5728 152.019 54.1605 146.673 55.0989C141.312 56.0515 141.398 57.516 141.398 57.516C141.398 57.516 137.644 57.6724 137.232 59.2648C136.82 60.8572 140.161 62.3216 140.161 62.3216C140.161 62.3216 133.521 63.8003 136.08 65.7908C138.639 67.7955 146.019 69.1178 151.791 69.1036C157.564 69.0893 161.815 67.2268 161.815 67.2268L164.758 58.7103L164.729 58.7245Z" fill="#F5C8BA"/>
<path d="M145.962 64.0704C145.862 64.0704 145.763 64.0278 145.692 63.9567C145.549 63.8145 145.564 63.587 145.706 63.4449L152.928 56.7198C153.071 56.5776 153.298 56.5918 153.44 56.734C153.582 56.8762 153.568 57.1037 153.426 57.2458L146.203 63.9709C146.203 63.9709 146.047 64.0704 145.962 64.0704Z" fill="black"/>
<path d="M161.786 61.7669C161.488 61.7385 155.061 61.1271 154.848 56.9044C154.848 56.7053 154.99 56.5347 155.189 56.5205C155.402 56.5205 155.559 56.6627 155.573 56.8617C155.758 60.4589 161.758 61.0276 161.815 61.0276C162.014 61.0418 162.156 61.2266 162.142 61.4257C162.127 61.6105 161.971 61.7527 161.786 61.7527V61.7669Z" fill="black"/>
<path d="M159.582 71.8476C159.582 71.8476 175.777 81.9565 191.701 82.8238C207.625 83.6911 212.374 74.9471 212.374 74.9471L219.682 41.0089C219.682 41.0089 203.175 51.8856 196.407 54.4022C189.625 56.9188 162.924 50.5776 162.924 50.5776L159.597 71.8476H159.582Z" fill="#9BC9DD"/>
<path d="M141.554 66.1462H129.384C128.08 66.1462 127.023 67.2029 127.023 68.5064V90.6864C127.023 91.9899 128.08 93.0465 129.384 93.0465H141.554C142.858 93.0465 143.914 91.9899 143.914 90.6864V68.5064C143.914 67.2029 142.858 66.1462 141.554 66.1462Z" fill="#B29186"/>
<path d="M197.246 64.1984C196.805 64.1984 196.393 64.042 196.08 63.7292C194.246 61.9946 195.184 55.7956 195.298 55.0989C195.326 54.9567 195.426 54.843 195.568 54.8003C195.71 54.7719 195.867 54.8288 195.952 54.9425C196.364 55.5254 199.933 60.7434 199.023 63.0752C198.81 63.6297 198.355 63.9993 197.715 64.1415C197.559 64.1699 197.402 64.1984 197.246 64.1984ZM195.881 56.1653C195.625 58.3548 195.44 62.151 196.577 63.2173C196.833 63.459 197.146 63.5301 197.559 63.4448C197.971 63.3595 198.213 63.1605 198.341 62.8335C198.895 61.3974 197.075 58.042 195.881 56.1795V56.1653Z" fill="white"/>
<path d="M203.416 88.2551C203.416 88.2551 188.658 83.5063 184.819 84.6864C180.98 85.8664 175.777 93.4162 176.743 94.1555L177.71 94.8948C177.71 94.8948 176.743 97.8379 178.279 98.1081C179.829 98.3782 181.62 97.4683 181.62 97.4683C181.62 97.4683 180.127 99.4446 181.379 100.355C182.63 101.264 190.89 97.2692 190.89 97.2692C190.89 97.2692 196.08 100.738 202.094 98.2787C208.108 95.8332 203.416 88.2551 203.416 88.2551Z" fill="#F5C8BA"/>
<path d="M178.108 94.781C178.108 94.781 177.98 94.7668 177.924 94.7241C177.753 94.6246 177.696 94.3971 177.796 94.2265L181.947 87.2028C182.047 87.0322 182.274 86.9753 182.445 87.0749C182.615 87.1744 182.672 87.4019 182.573 87.5725L178.421 94.5961C178.35 94.7099 178.236 94.781 178.108 94.781Z" fill="black"/>
<path d="M181.62 97.8521C181.62 97.8521 181.506 97.8521 181.464 97.8094C181.279 97.7241 181.208 97.4966 181.293 97.326L184.506 90.672C184.592 90.4872 184.819 90.4161 184.99 90.5014C185.175 90.5867 185.246 90.8142 185.16 90.9848L181.947 97.6388C181.89 97.7667 181.748 97.8521 181.62 97.8521Z" fill="black"/>
<path d="M317.046 38.8477H255.696C253.945 38.8477 252.525 40.2672 252.525 42.0183V87.2739C252.525 89.025 253.945 90.4445 255.696 90.4445H317.046C318.797 90.4445 320.216 89.025 320.216 87.2739V42.0183C320.216 40.2672 318.797 38.8477 317.046 38.8477Z" fill="#B7B0C1"/>
<path d="M224.018 39.2316C238.336 37.5397 260.444 40.753 265.364 63.5869C270.283 86.4209 264.084 96.3308 246.155 98.8758C228.227 101.421 199.222 98.8758 199.222 98.8758V79.639L209.004 76.3262C209.004 76.3262 209.701 40.9378 224.018 39.2316Z" fill="#9BC9DD"/>
<path d="M209.004 76.3262C209.004 76.3262 247.037 64.9092 258.326 67.6817C269.615 70.4542 273.098 92.0228 251.26 97.8664C229.421 103.71 199.222 100.013 199.222 100.013V79.639L209.004 76.3262Z" fill="#9BC9DD"/>
<path d="M309.425 38.8477H248.075C246.324 38.8477 244.904 40.2672 244.904 42.0183V87.2739C244.904 89.025 246.324 90.4445 248.075 90.4445H309.425C311.176 90.4445 312.596 89.025 312.596 87.2739V42.0183C312.596 40.2672 311.176 38.8477 309.425 38.8477Z" fill="#CCC5D6"/>
<path d="M290.373 71.2645H271.136V80.5062H290.373V71.2645Z" fill="#ACA3BA"/>
<path d="M284.913 74.9469H276.582C275.435 74.9469 274.506 75.8763 274.506 77.0227V103.88C274.506 105.027 275.435 105.956 276.582 105.956H284.913C286.06 105.956 286.989 105.027 286.989 103.88V77.0227C286.989 75.8763 286.06 74.9469 284.913 74.9469Z" fill="#B7B0C1"/>
<path d="M232.961 31.042L233.359 39.4021C233.359 39.4021 231.966 41.876 227.089 42.5016C223.464 42.9708 222.141 42.2031 222.141 42.2031L222.454 37.9519L222.753 33.8003L231.482 31.4401L232.947 31.042H232.961Z" fill="#F5C8BA"/>
<path d="M231.497 31.4402C231.497 31.6677 231.411 31.9378 231.298 32.2648C229.62 36.5302 224.558 37.6676 222.468 37.9662L222.767 33.8146L231.497 31.4544V31.4402Z" fill="black"/>
<path d="M219.98 14.8338C219.98 14.8338 216.099 25.5256 218.103 31.2555C220.108 36.9853 225.369 35.7341 228.482 34.4118C231.596 33.0896 232.947 31.028 232.947 31.028C232.947 31.028 235.99 31.8526 237.795 28.9522C239.615 26.0659 238.179 22.9664 236.445 22.3408C234.71 21.7152 232.762 23.0802 232.762 23.0802L234.155 19.9522C234.155 19.9522 226.52 5.00919 219.98 14.8196V14.8338Z" fill="#F5C8BA"/>
<path d="M221.274 28.0564C221.132 28.0564 220.99 27.9711 220.933 27.8289C220.08 25.6393 221.757 22.81 221.828 22.6962C221.928 22.5256 222.156 22.4687 222.326 22.5683C222.497 22.6678 222.554 22.8953 222.454 23.0659C222.44 23.0943 220.89 25.7104 221.615 27.573C221.686 27.7578 221.601 27.9711 221.402 28.0422C221.359 28.0564 221.317 28.0706 221.274 28.0706V28.0564Z" fill="black"/>
<path d="M233.53 27.9711C233.445 27.9711 233.373 27.9426 233.302 27.8858C233.146 27.7578 233.132 27.5303 233.245 27.3739L235.862 24.1891C235.99 24.0327 236.217 24.0043 236.373 24.1322C236.53 24.2602 236.544 24.4877 236.43 24.6441L233.814 27.8289C233.743 27.9142 233.644 27.9568 233.53 27.9568V27.9711Z" fill="black"/>
<path d="M236.459 26.9473L234.454 26.7909C234.255 26.7767 234.113 26.6061 234.127 26.407C234.141 26.208 234.34 26.0516 234.511 26.08L236.487 26.2364C236.686 26.2506 236.828 26.4212 236.814 26.6203C236.8 26.8051 236.644 26.9473 236.459 26.9473Z" fill="black"/>
<path d="M227.26 20.0092C227.132 20.0092 227.018 19.9523 226.947 19.8386C226.421 18.9713 225.198 19.3125 225.156 19.3267C224.956 19.3836 224.757 19.2698 224.715 19.085C224.658 18.9002 224.772 18.6869 224.956 18.63C225.028 18.6158 226.762 18.1182 227.573 19.4689C227.672 19.6395 227.615 19.867 227.445 19.9665C227.388 20.0092 227.317 20.0234 227.26 20.0234V20.0092Z" fill="black"/>
<path d="M219.17 19.3692C219.084 19.3692 218.985 19.3407 218.914 19.2696C218.772 19.1275 218.772 18.9 218.914 18.7578C218.942 18.7294 219.738 17.9189 220.677 17.9616C221.132 17.99 221.53 18.2033 221.857 18.6156C221.985 18.772 221.956 18.9995 221.8 19.1275C221.644 19.2554 221.416 19.227 221.288 19.0706C221.103 18.8289 220.89 18.7009 220.648 18.6867C220.137 18.644 219.611 19.099 219.44 19.2554C219.369 19.3265 219.269 19.3692 219.184 19.3692H219.17Z" fill="black"/>
<path d="M153.654 98.876H326.743C328.42 98.876 329.785 100.241 329.785 101.919V227.676C329.785 229.354 328.42 230.719 326.743 230.719H153.654V98.876Z" fill="#B7B0C1"/>
<path d="M121.677 98.876H308.927C310.605 98.876 311.97 100.241 311.97 101.919V227.676C311.97 229.354 310.605 230.719 308.927 230.719H103.862C102.199 230.719 100.862 229.368 100.862 227.719V119.705C100.862 108.203 110.189 98.876 121.692 98.876H121.677Z" fill="#CCC5D6"/>
<path d="M142.905 231.074C142.706 231.074 142.549 230.918 142.549 230.719V98.8758C142.549 98.6768 142.706 98.5204 142.905 98.5204C143.104 98.5204 143.26 98.6768 143.26 98.8758V230.704C143.26 230.903 143.104 231.06 142.905 231.06V231.074Z" fill="#EFE4DF"/>
<path d="M186.909 231.074C186.71 231.074 186.554 230.918 186.554 230.719V98.8758C186.554 98.6768 186.71 98.5204 186.909 98.5204C187.108 98.5204 187.265 98.6768 187.265 98.8758V230.704C187.265 230.903 187.108 231.06 186.909 231.06V231.074Z" fill="#EFE4DF"/>
<path d="M229.065 230.434C228.866 230.434 228.71 230.278 228.71 230.079V98.8758C228.71 98.6768 228.866 98.5204 229.065 98.5204C229.264 98.5204 229.421 98.6768 229.421 98.8758V230.065C229.421 230.264 229.264 230.42 229.065 230.42V230.434Z" fill="#EFE4DF"/>
<path d="M271.335 230.434C271.136 230.434 270.98 230.278 270.98 230.079V98.8758C270.98 98.6768 271.136 98.5204 271.335 98.5204C271.534 98.5204 271.691 98.6768 271.691 98.8758V230.065C271.691 230.264 271.534 230.42 271.335 230.42V230.434Z" fill="#EFE4DF"/>
<path d="M219.938 23.791C219.71 23.7768 219.554 23.6062 219.582 23.4071L219.724 21.4593C219.738 21.2602 219.923 21.1038 220.108 21.1323C220.307 21.1465 220.464 21.3171 220.435 21.5161L220.293 23.464C220.279 23.6488 220.122 23.8052 219.938 23.8052V23.791Z" fill="black"/>
<path d="M225.71 23.8479C225.482 23.8479 225.34 23.6631 225.355 23.464L225.468 21.5162C225.468 21.3171 225.639 21.1749 225.852 21.1749C226.051 21.1749 226.208 21.3598 226.193 21.5588L226.08 23.5067C226.08 23.7057 225.909 23.8479 225.724 23.8479H225.71Z" fill="black"/>
<path d="M225.71 42.9852C223.719 42.9852 222.184 42.5871 222.056 42.5587C221.857 42.5018 221.743 42.3028 221.8 42.1179C221.857 41.9189 222.056 41.8051 222.241 41.862C222.312 41.8762 229.478 43.7245 233.075 39.1748C233.203 39.0184 233.43 38.99 233.587 39.1179C233.743 39.2459 233.772 39.4734 233.644 39.6298C231.482 42.3738 228.227 42.9994 225.71 42.9994V42.9852Z" fill="white"/>
<path d="M224.573 30.6583C223.847 30.6583 223.193 30.4308 223.151 30.4166C223.023 30.3739 222.923 30.2602 222.909 30.118C222.895 29.9758 222.952 29.8479 223.08 29.7768L226.264 27.7436C226.378 27.6725 226.52 27.6725 226.634 27.7436C226.748 27.8005 226.819 27.9285 226.819 28.0564C226.819 28.1275 226.819 29.7057 225.824 30.3597C225.454 30.6014 224.999 30.6867 224.573 30.6867V30.6583ZM224.189 29.9047C224.615 29.9616 225.099 29.9474 225.411 29.7199C225.724 29.5209 225.895 29.1228 225.98 28.7531L224.174 29.9047H224.189Z" fill="black"/>
<path d="M138.895 66.1462H126.725C125.421 66.1462 124.365 67.2029 124.365 68.5064V90.6864C124.365 91.9899 125.421 93.0465 126.725 93.0465H138.895C140.199 93.0465 141.256 91.9899 141.256 90.6864V68.5064C141.256 67.2029 140.199 66.1462 138.895 66.1462Z" fill="#BF9E90"/>
<path d="M137.872 70.2837H127.763C127.268 70.2837 126.867 70.6847 126.867 71.1794V86.9471C126.867 87.4418 127.268 87.8428 127.763 87.8428H137.872C138.366 87.8428 138.767 87.4418 138.767 86.9471V71.1794C138.767 70.6847 138.366 70.2837 137.872 70.2837Z" fill="#F4E5E1"/>
<path d="M134.488 74.1937H128.701C128.502 74.1937 128.346 74.0373 128.346 73.8382C128.346 73.6392 128.502 73.4828 128.701 73.4828H134.488C134.687 73.4828 134.843 73.6392 134.843 73.8382C134.843 74.0373 134.687 74.1937 134.488 74.1937Z" fill="#F2513B"/>
<path d="M134.488 76.895H128.701C128.502 76.895 128.346 76.7386 128.346 76.5395C128.346 76.3405 128.502 76.1841 128.701 76.1841H134.488C134.687 76.1841 134.843 76.3405 134.843 76.5395C134.843 76.7386 134.687 76.895 134.488 76.895Z" fill="#F2513B"/>
<path d="M219.98 14.8337C219.98 14.8337 223.734 13.0849 226.151 14.8337C228.568 16.5825 227.885 21.1749 229.051 22.7531C230.231 24.3313 232.762 23.0943 232.762 23.0943C232.762 23.0943 235.62 21.8574 236.445 22.355L237.269 22.8526C237.269 22.8526 240.013 19.6394 240.013 17.919C240.013 16.1986 238.648 16.483 238.648 16.483C238.648 16.483 238.648 10.3409 236.459 9.2603C234.682 8.37879 233.53 10.7105 233.53 10.7105C233.53 10.7105 230.615 4.95227 226.165 4.95227C223.563 4.95227 223.563 9.03281 223.563 9.03281C223.563 9.03281 220.378 6.98543 219.184 9.2603C217.606 12.2603 219.994 14.8337 219.994 14.8337H219.98Z" fill="black"/>
<path d="M207.17 78.9992C207.013 78.9992 206.857 78.8855 206.814 78.7291C206.757 78.53 206.871 78.331 207.07 78.2883L241.62 69.1178C241.819 69.0609 242.018 69.1747 242.061 69.3737C242.117 69.5728 242.004 69.7718 241.805 69.8145L207.255 78.985C207.255 78.985 207.198 78.985 207.156 78.985L207.17 78.9992Z" fill="white"/>
<path d="M236.103 56.4495H226.862C225.919 56.4495 225.156 57.2133 225.156 58.1556V60.857C225.156 61.7993 225.919 62.5632 226.862 62.5632H236.103C237.046 62.5632 237.809 61.7993 237.809 60.857V58.1556C237.809 57.2133 237.046 56.4495 236.103 56.4495Z" fill="#162F3A"/>
<path d="M209.118 74.1937C208.876 74.1652 208.734 73.9946 208.762 73.7956C208.819 73.2126 210.184 59.4923 211.592 55.0563C211.648 54.8715 211.848 54.7578 212.047 54.8146C212.231 54.8715 212.345 55.0848 212.288 55.2696C210.909 59.6203 209.502 73.7103 209.487 73.8524C209.473 74.0373 209.317 74.1794 209.132 74.1794L209.118 74.1937Z" fill="white"/>
<path d="M233.103 72.1176C232.99 72.1176 232.89 72.0607 232.819 71.9754C232.719 71.8475 232.719 71.6626 232.819 71.5347C233.729 70.3972 238.321 64.7812 240.198 65.8191C240.795 66.1461 240.895 66.5868 240.881 66.8854C240.767 68.8333 234.497 71.5631 233.246 72.0892C233.203 72.1034 233.146 72.1176 233.103 72.1176ZM239.615 66.402C238.663 66.402 236.402 68.4352 234.369 70.7953C237.084 69.5299 240.113 67.7811 240.155 66.8428C240.155 66.7859 240.155 66.6295 239.843 66.4589C239.772 66.4162 239.7 66.402 239.615 66.402Z" fill="white"/>
<path d="M101.573 61.5823C101.573 61.5823 88.6066 78.7433 72.7536 75.8855C56.1898 72.8997 55.7348 59.4212 55.7348 59.4212L69.6826 51.7577C69.6826 51.7577 73.3366 54.9283 77.1043 55.9804C82.3081 57.4449 98.5734 52.5965 98.5734 52.5965L101.573 61.5681V61.5823Z" fill="#F5C8BA"/>
<path d="M113.246 63.9993C113.246 63.9993 100.877 64.9945 98.0473 61.0277C95.2322 57.0609 102.739 50.5065 102.739 50.5065L111.981 52.17L113.246 63.9993Z" fill="#F5C8BA"/>
<path d="M123.497 41.41L113.788 39.0343C112.606 38.745 111.413 39.4689 111.124 40.6511L106.011 61.5464C105.721 62.7286 106.445 63.9215 107.628 64.2108L117.336 66.5865C118.519 66.8758 119.711 66.1519 120.001 64.9697L125.114 44.0745C125.403 42.8922 124.679 41.6993 123.497 41.41Z" fill="#B56A4D"/>
<path d="M121.875 41.0077L112.166 38.632C110.984 38.3427 109.791 39.0665 109.502 40.2488L104.389 61.144C104.1 62.3262 104.823 63.5191 106.006 63.8084L115.714 66.1842C116.897 66.4734 118.09 65.7496 118.379 64.5673L123.492 43.6721C123.781 42.4899 123.057 41.297 121.875 41.0077Z" fill="black"/>
<path d="M113.146 40.9316L119.968 42.6011C120.866 42.8207 121.408 43.7146 121.189 44.6123L117.11 61.2815C116.89 62.1792 115.996 62.7216 115.098 62.5019L108.276 60.8325C107.378 60.6129 106.836 59.719 107.056 58.8213L111.135 42.1521C111.354 41.2544 112.248 40.712 113.146 40.9316Z" fill="#F4E5E1"/>
<path d="M117.099 54.0609C116.602 56.0799 114.583 57.3026 112.564 56.8192C110.545 56.3216 109.322 54.3026 109.806 52.2837C110.303 50.2647 112.322 49.042 114.341 49.5254C116.36 50.023 117.583 52.042 117.099 54.0609Z" fill="#507849"/>
<path d="M112.933 54.7008C112.777 54.6723 112.692 54.6297 112.635 54.5444L111.341 52.6534C111.227 52.4828 111.27 52.2695 111.441 52.1558C111.611 52.042 111.824 52.0847 111.938 52.2553L113.019 53.8335L115.72 51.8572C115.877 51.7434 116.104 51.7719 116.232 51.9425C116.346 52.0989 116.317 52.3264 116.147 52.4543L113.147 54.6439C113.147 54.6439 113.005 54.715 112.933 54.715V54.7008Z" fill="white"/>
<path d="M98.9004 50.0089C98.9004 50.0089 102.697 45.7861 105.512 44.0942C108.313 42.4023 113.957 45.1179 113.957 47.0515C113.957 48.9852 107.644 48.3596 107.644 48.3596C107.644 48.3596 105.156 57.4448 98.9146 57.4448C92.6729 57.4448 98.9146 50.0089 98.9146 50.0089H98.9004Z" fill="#F5C8BA"/>
<path d="M98.9572 57.7861C98.5449 57.7861 98.1042 57.7434 97.6634 57.6723C97.4644 57.6439 97.3364 57.4448 97.3648 57.2458C97.3933 57.0467 97.5923 56.9045 97.7772 56.9472C103.862 57.9993 106.479 50.4496 106.507 50.3785C106.578 50.1937 106.777 50.0799 106.962 50.151C107.147 50.2221 107.261 50.4212 107.189 50.606C107.161 50.6771 104.716 57.7861 98.943 57.7861H98.9572Z" fill="black"/>
<path d="M64.1376 200.633V211.226L84.0711 210.472V200.633H64.1376Z" fill="#F5C8BA"/>
<path d="M15.1284 199.439V210.032L33.5833 209.292V199.439H15.1284Z" fill="#F5C8BA"/>
<path d="M38.1614 229.752C38.1614 231.614 37.5358 233.761 36.242 234.301C34.9624 234.842 24.5549 235.965 15.4412 235.169C6.72561 234.401 4.91994 233.761 4.28013 232.965C3.96734 232.567 4.57871 230.69 5.27538 228.884C5.31804 228.799 5.34647 228.685 5.38913 228.6C5.74458 227.69 6.12846 226.809 6.38438 226.183C6.65452 225.586 6.98153 225.017 7.36542 224.463C8.3038 223.169 10.1806 220.467 10.6498 219.074C11.2753 217.226 12.2279 213.216 12.882 211.325C13.5218 209.477 15.1 209.079 15.1 209.079C15.1 209.079 33.0288 207.856 34.3084 208.922C35.5738 209.989 36.2278 218.804 36.2278 220.14V221.477C36.2278 222.714 37.0809 225.173 37.6354 227.207C37.7918 227.718 37.9055 228.188 37.9908 228.628C38.0761 229.055 38.1472 229.439 38.1472 229.752H38.1614Z" fill="#162F3A"/>
<path d="M117.64 233.562C116.445 234.06 65.5736 235.439 64.3935 233.562C64.0381 232.993 63.7821 231.06 63.6115 228.643C63.1992 222.927 63.1992 214.439 63.1992 214.439C63.1992 214.439 62.8295 211.539 62.9006 210.188C62.9575 208.851 87.4265 209.363 87.4265 209.363L103.166 219.757C103.166 219.757 107.701 221.136 112.464 221.903C114.995 222.302 116.616 225.401 117.426 228.316C118.137 230.903 118.208 233.306 117.64 233.548V233.562Z" fill="#162F3A"/>
<path d="M57.3698 84.3451C57.3698 84.3451 75.0427 105.786 84 141.657C92.9715 177.529 92.3744 203.946 92.3744 203.946H58.4646C58.4646 203.946 57.5689 182.022 53.8438 164.079C50.1187 146.136 44.6875 132.942 44.6875 132.942L41.0335 203.946H7.19481C7.19481 203.946 13.3938 100.895 19.4222 85.4967C24.3274 72.9707 57.3698 84.3451 57.3698 84.3451Z" fill="#9BC9DD"/>
<path d="M16.9767 217.083C16.8061 217.083 16.6497 216.956 16.6213 216.771C16.5929 216.572 16.735 216.387 16.9341 216.358C23.2042 215.505 29.2468 216.358 29.3037 216.358C29.5027 216.387 29.6449 216.572 29.6165 216.771C29.588 216.97 29.4032 217.098 29.2041 217.083C29.1473 217.083 23.19 216.245 17.0336 217.083C17.0194 217.083 17.0052 217.083 16.991 217.083H16.9767Z" fill="white"/>
<path d="M29.2468 221.548C29.133 221.548 23.19 220.709 17.0194 221.548C16.8345 221.577 16.6355 221.434 16.6071 221.235C16.5786 221.036 16.7208 220.851 16.9199 220.823C23.19 219.97 29.2326 220.823 29.2894 220.823C29.4885 220.851 29.6307 221.036 29.6022 221.235C29.5738 221.42 29.4174 221.548 29.2468 221.548Z" fill="white"/>
<path d="M44.6875 133.297C44.4742 133.269 44.3178 133.127 44.332 132.928L44.6306 108.373C44.6306 108.231 44.7301 108.089 44.8581 108.046L53.7016 104.577C53.8864 104.492 54.0997 104.591 54.1708 104.776C54.2419 104.961 54.1566 105.174 53.9718 105.246L45.3557 108.629L45.0713 132.942C45.0713 133.141 44.9007 133.297 44.7159 133.297H44.6875Z" fill="#162F3A"/>
<path d="M90.1421 215.463C89.9431 215.463 89.7867 215.306 89.7867 215.107C89.7867 214.908 89.9431 214.738 90.1421 214.738L95.4596 214.652C95.6587 214.652 95.8293 214.809 95.8293 215.008C95.8293 215.207 95.6729 215.377 95.4739 215.377L90.1564 215.463H90.1421Z" fill="white"/>
<path d="M93.8388 218.392C93.6397 218.392 93.4834 218.235 93.4834 218.036C93.4834 217.837 93.6397 217.667 93.8388 217.667L99.1563 217.581C99.3554 217.581 99.526 217.738 99.526 217.937C99.526 218.136 99.3696 218.306 99.1705 218.306L93.853 218.392H93.8388Z" fill="white"/>
<path d="M56.0334 36.4023C56.0334 36.4023 70.3081 48.8288 81.0995 54.0041L75.8105 76.9376C75.8105 76.9376 58.9765 76.9803 55.8343 69.0893C52.6921 61.1984 56.0334 36.4166 56.0334 36.4166V36.4023Z" fill="#162F3A"/>
<path d="M43.7917 32.1227C43.7917 32.1227 54.8533 33.2459 59.0049 39.3596C63.1565 45.4733 57.6684 83.8048 57.3698 84.3451C57.0713 84.8854 53.8865 91.383 40.4647 91.0418C27.0288 90.7005 16.2374 92.2076 17.7018 83.6342C17.8582 82.7101 17.19 41.3928 20.4459 37.7246C23.7018 34.0563 35.6875 30.9995 43.7917 32.1227Z" fill="#162F3A"/>
<path d="M36.8818 25.5112L37.0667 33.7434C37.0667 33.7434 38.6022 36.0751 43.4363 36.3595C47.0334 36.5728 48.2704 35.7339 48.2704 35.7339L47.6732 31.5681L47.0903 27.516L38.3463 25.7956L36.8818 25.5112Z" fill="#F5C8BA"/>
<path d="M38.3463 25.7958C38.3747 26.0233 38.46 26.2792 38.6022 26.592C40.5358 30.6725 45.5974 31.4403 47.6732 31.5825L47.0903 27.5304L38.3463 25.81V25.7958Z" fill="black"/>
<path d="M48.5121 8.70581C48.5121 8.70581 53.0618 18.9427 51.4836 24.7152C49.9054 30.4877 44.6448 29.6204 41.5026 28.5256C38.3605 27.4308 36.8818 25.5114 36.8818 25.5114C36.8818 25.5114 33.9529 26.5209 31.9766 23.8052C30.0003 21.0896 31.1804 17.9475 32.8581 17.2081C34.5359 16.4688 36.5264 17.6773 36.5264 17.6773L34.9482 14.7058C34.9482 14.7058 41.4173 -0.478971 48.5121 8.70581Z" fill="#F5C8BA"/>
<path d="M48.1282 21.7864C48.1282 21.7864 48.0571 21.7864 48.0144 21.7722C47.8296 21.7153 47.7159 21.5163 47.7727 21.3172C48.3557 19.4404 46.9481 17.4215 46.9339 17.3931C46.8201 17.2225 46.8628 17.0092 47.0192 16.8954C47.1756 16.7817 47.4031 16.8244 47.5168 16.9807C47.5879 17.0803 49.1376 19.3267 48.4552 21.5305C48.4125 21.6869 48.2704 21.7864 48.114 21.7864H48.1282Z" fill="black"/>
<path d="M36.0856 22.5398C35.9861 22.5398 35.9008 22.4971 35.8155 22.426L33.0288 19.4687C32.8866 19.3265 32.9008 19.099 33.043 18.9568C33.1852 18.8147 33.4127 18.8289 33.5548 18.9568L36.3415 21.9142C36.4837 22.0563 36.4695 22.2838 36.3273 22.426C36.2562 22.4971 36.1709 22.5255 36.0856 22.5255V22.5398Z" fill="black"/>
<path d="M33.1283 21.7437C32.9577 21.7437 32.8013 21.6157 32.7728 21.4309C32.7444 21.2319 32.8724 21.047 33.0714 21.0186L35.0051 20.72C35.1899 20.6916 35.3889 20.8195 35.4174 21.0186C35.4458 21.2176 35.3178 21.4025 35.1188 21.4309L33.1852 21.7295C33.1852 21.7295 33.1425 21.7295 33.1283 21.7295V21.7437Z" fill="black"/>
<path d="M43.4789 17.9475C43.2941 17.9475 43.1377 17.8195 43.1235 17.6347L42.8818 15.7295C42.8533 15.5305 42.9955 15.3456 43.1946 15.3314C43.3936 15.2887 43.5785 15.4451 43.5927 15.6442L43.8344 17.5494C43.8628 17.7484 43.7206 17.9333 43.5216 17.9475C43.5074 17.9475 43.4932 17.9475 43.4789 17.9475Z" fill="black"/>
<path d="M61.0665 65.8477C60.8817 65.8477 60.7253 65.7055 60.711 65.5207L59.6874 52.1559C59.6731 51.9568 59.8153 51.7862 60.0144 51.772C60.2134 51.772 60.384 51.8999 60.3982 52.099L61.4219 65.4638C61.4362 65.6629 61.294 65.8335 61.0949 65.8477H61.0665Z" fill="white"/>
<path d="M49.1519 17.4924C48.9813 17.4924 48.8249 17.3644 48.7964 17.1796L48.5121 15.2744C48.4836 15.0753 48.6258 14.8905 48.8107 14.862C48.9955 14.8478 49.1945 14.9758 49.223 15.1606L49.5073 17.0658C49.5358 17.2649 49.3936 17.4497 49.2088 17.4781C49.1945 17.4781 49.1803 17.4781 49.1519 17.4781V17.4924Z" fill="black"/>
<path d="M42.2846 14.0232C42.1851 14.0232 42.0714 13.9806 42.0003 13.8953C41.8723 13.7389 41.8865 13.5114 42.0429 13.3834C43.1946 12.4308 44.7017 12.9 44.7728 12.9142C44.9576 12.9711 45.0714 13.1701 45.0145 13.3692C44.9576 13.5682 44.7586 13.6678 44.5595 13.6109C44.5595 13.6109 43.351 13.2554 42.5121 13.9379C42.441 13.9948 42.3557 14.0232 42.2846 14.0232Z" fill="black"/>
<path d="M47.6021 12.8859C47.5168 12.8859 47.4173 12.8575 47.3462 12.7864C47.204 12.6442 47.204 12.4167 47.3462 12.2745C48.2988 11.3077 49.3652 11.6774 49.7917 12.0044C49.9481 12.1324 49.9765 12.3598 49.8628 12.5162C49.749 12.6726 49.5216 12.7011 49.3509 12.5873C49.2656 12.5305 48.5832 12.0613 47.8581 12.7864C47.787 12.8575 47.6874 12.9001 47.6021 12.9001V12.8859Z" fill="black"/>
<path d="M44.4173 36.7577C42.2704 36.7577 39.5121 36.189 36.8392 34.0279C36.6828 33.8999 36.6543 33.6724 36.7823 33.516C36.9102 33.3596 37.1377 33.3454 37.2941 33.4591C42.5405 37.6961 48.0713 35.4212 48.1282 35.407C48.313 35.3359 48.5263 35.407 48.5974 35.5918C48.6685 35.7767 48.5974 35.9899 48.4125 36.061C48.3841 36.061 46.7633 36.7435 44.4173 36.7435V36.7577Z" fill="white"/>
<path d="M36.5264 17.6915C36.5264 17.6915 35.8297 13.483 39.2704 12.175C42.7112 10.8669 51.9244 9.00439 51.8249 4.99494C51.7253 0.985482 45.3841 3.87172 45.3841 3.87172C45.3841 3.87172 46.3794 -0.223041 42.5832 0.260368C38.8012 0.743778 37.5074 4.11342 37.5074 4.11342C37.5074 4.11342 34.4506 3.97125 32.4458 5.7627C30.4411 7.55416 31.3226 11.4214 31.3226 11.4214C31.3226 11.4214 28.7492 12.8717 29.1473 15.2461C29.5454 17.6062 31.1662 19.3266 31.1662 19.3266C31.1662 19.3266 32.6449 15.957 36.5264 17.7058V17.6915Z" fill="black"/>
<path d="M66.7821 204.316C66.5973 204.316 66.4409 204.174 66.4267 203.989C66.384 203.335 61.3224 138.657 44.7159 119.449C44.5879 119.293 44.6022 119.065 44.7586 118.937C44.9149 118.809 45.1424 118.823 45.2704 118.98C62.0333 138.359 67.1091 203.278 67.166 203.932C67.1802 204.131 67.038 204.302 66.839 204.316H66.8105H66.7821Z" fill="#162F3A"/>
<path d="M20.6165 101.051C20.3748 101.051 20.1331 101.051 19.8772 101.008C19.6781 100.994 19.536 100.809 19.5502 100.61C19.5644 100.411 19.7492 100.269 19.9483 100.283C24.498 100.738 27.5264 96.2596 27.5691 96.217C27.6828 96.0463 27.9103 96.0037 28.0667 96.1174C28.2373 96.2312 28.28 96.4587 28.1662 96.6151C28.0383 96.7999 25.1662 101.037 20.6165 101.037V101.051Z" fill="#162F3A"/>
<path d="M13.1663 204.316C12.9388 204.302 12.7967 204.131 12.8109 203.932L20.8298 100.667C20.844 100.468 21.0288 100.326 21.2137 100.34C21.4127 100.355 21.5549 100.525 21.5407 100.724L13.5218 203.989C13.5076 204.174 13.3512 204.316 13.1663 204.316Z" fill="#162F3A"/>
<path d="M46.4363 24.6156C45.1993 24.6156 44.4031 23.4782 44.3747 23.4213C44.2609 23.2507 44.3036 23.0375 44.4742 22.9237C44.6448 22.81 44.8581 22.8526 44.9718 23.0232C44.9718 23.0232 45.7396 24.1038 46.7633 23.8621C46.9623 23.8052 47.1472 23.9332 47.204 24.1322C47.2467 24.3313 47.1329 24.5161 46.9339 24.573C46.7633 24.6156 46.6069 24.6299 46.4505 24.6299L46.4363 24.6156Z" fill="black"/>
<path d="M233.146 22.6537C233.146 22.6537 230.217 25.0992 227.231 24.957C224.246 24.8006 223.947 24.1323 221.558 23.976C219.17 23.8338 217.52 24.8575 217.52 24.8575C217.52 24.8575 216.554 34.3693 221.359 35.5636C229.549 37.5825 232.577 31.3693 232.577 31.3693C232.577 31.3693 229.947 28.6821 233.146 22.6537Z" fill="white"/>
<path d="M231.355 25.5539C231.099 25.5254 230.971 25.3406 230.999 25.1416C231.383 22.4402 234.212 21.8004 235.677 21.7861C235.876 21.7861 236.032 21.9567 236.032 22.1558C236.032 22.3548 235.862 22.5112 235.677 22.5112C235.293 22.5112 232.094 22.5823 231.724 25.2411C231.696 25.4259 231.539 25.5539 231.369 25.5539H231.355Z" fill="white"/>
<path d="M232.705 31.753C231.696 31.753 230.658 31.5824 230.018 30.9852C229.876 30.843 229.862 30.6156 230.004 30.4734C230.146 30.3312 230.373 30.317 230.516 30.4592C231.539 31.4118 234.369 30.9426 235.378 30.6867C235.577 30.644 235.776 30.7577 235.819 30.9426C235.876 31.1416 235.748 31.3407 235.563 31.3833C235.463 31.4118 234.113 31.753 232.705 31.753Z" fill="white"/>
<path d="M36.4269 17.2508C36.4269 17.2508 39.4411 19.611 42.4126 19.355C45.3841 19.0991 45.6685 18.4167 48.0571 18.1892C50.4457 17.9617 51.8249 18.5588 51.8249 18.5588C51.8249 18.5588 53.8296 27.9569 48.64 29.7483C40.9482 32.4071 37.2941 25.9237 37.2941 25.9237C37.2941 25.9237 39.8392 23.1512 36.4411 17.2366L36.4269 17.2508Z" fill="white"/>
<path d="M38.3178 20.0941C38.1472 20.0941 37.9908 19.9662 37.9624 19.7956C37.479 17.0657 34.0667 17.1795 33.9245 17.1937C33.7255 17.1937 33.5548 17.0515 33.5406 16.8525C33.5406 16.6534 33.6828 16.4828 33.8819 16.4686C35.3321 16.4259 38.1899 16.9662 38.6591 19.6676C38.6875 19.8667 38.5595 20.0515 38.3605 20.0799C38.3321 20.0799 38.3178 20.0799 38.3036 20.0799L38.3178 20.0941Z" fill="white"/>
<path d="M35.9008 26.2221C35.0335 26.2221 34.3652 26.08 34.3084 26.0657C34.1093 26.0231 33.9814 25.8382 34.024 25.6392C34.0667 25.4401 34.2515 25.3122 34.4506 25.3548C34.479 25.3548 37.7065 26.0231 38.9718 24.3027C39.0856 24.1321 39.3131 24.1037 39.4837 24.2316C39.6401 24.3454 39.6827 24.5729 39.5548 24.7435C38.6591 25.9662 37.0951 26.2221 35.9008 26.2221Z" fill="white"/>
<path d="M62.9859 65.3783L54.0997 66.4731L58.8627 89.563C58.9338 90.1033 62.1186 90.1602 65.9717 89.691C69.8247 89.2218 72.91 88.3972 72.8389 87.8427L71.8721 64.2836L62.9859 65.3783Z" fill="#D2F0F7"/>
<path opacity="0.25" d="M64.0096 73.7385C59.8153 74.2504 56.2751 74.1082 55.5357 73.44L57.2845 81.9423C57.9528 82.6247 61.2087 82.8096 65.0617 82.3404C68.9148 81.8712 72.0285 80.8901 72.5119 80.0655L72.1565 71.3926C71.602 72.2172 68.1897 73.2267 64.0096 73.7385Z" fill="#191818"/>
<path opacity="0.25" d="M54.0997 66.4588L54.2846 67.3546C55.4789 67.7527 58.9622 67.5394 63.185 67.0133C67.4219 66.4873 70.8484 65.8617 71.9006 65.1792L71.8579 64.2693L62.9717 65.3641L54.0855 66.4588H54.0997Z" fill="#191818"/>
<path d="M72.0001 62.1793L53.4457 64.4542L53.7727 66.4589C53.8722 67.2978 57.9386 67.1272 63.1139 66.4873C68.2892 65.8475 72.2702 65.0371 72.1707 64.1983L72.0001 62.1793Z" fill="#D2F0F7"/>
<path d="M62.9209 64.8411C68.0414 64.2124 72.1094 63.0267 72.007 62.1928C71.9046 61.3588 67.6706 61.1925 62.5501 61.8212C57.4295 62.4499 53.3615 63.6356 53.4639 64.4696C53.5663 65.3035 57.8003 65.4699 62.9209 64.8411Z" fill="white"/>
<path d="M70.6067 60.8144L54.4694 62.7907L54.512 63.8712C54.5831 64.4115 58.2798 64.4115 62.7869 63.857C67.294 63.3025 70.8911 62.421 70.82 61.8665L70.5925 60.8002L70.6067 60.8144Z" fill="#D2F0F7"/>
<path d="M70.6067 60.8144C70.6778 61.3546 67.1233 62.2504 62.6589 62.7907C58.2087 63.3309 54.5405 63.3452 54.4694 62.7907C54.3983 62.2504 57.9528 61.3546 62.4172 60.8144C66.8674 60.2741 70.5356 60.2599 70.6067 60.8144Z" fill="white"/>
<path d="M68.8579 61.0419C68.8864 61.2409 68.0759 61.4968 67.0523 61.6248C66.0286 61.7528 65.1897 61.6959 65.1613 61.4968C65.1328 61.2978 65.9433 61.0419 66.9669 60.9139C67.9906 60.7859 68.8295 60.8428 68.8579 61.0419Z" fill="#D2F0F7"/>
<path opacity="0.25" d="M65.5025 61.6532C65.8437 61.71 66.4124 61.6958 67.038 61.6247C67.6636 61.5536 68.2181 61.4115 68.5451 61.2835C68.2039 61.2266 67.6352 61.2409 67.0096 61.3119C66.384 61.383 65.8295 61.5252 65.5025 61.6532Z" fill="#191818"/>
<path d="M72.1849 70.8665C71.9859 71.7195 68.4172 72.8285 63.967 73.3688C59.5025 73.9091 55.7775 73.71 55.3793 72.9281C55.3793 72.9707 55.3793 72.9991 55.3793 73.0418C55.3793 73.056 55.3793 73.0702 55.3793 73.0844L57.1139 81.3308C57.2277 82.1981 60.7537 82.4825 65.0191 81.9706C69.2703 81.4446 72.6399 80.3214 72.5404 79.4399L72.2276 71.0086C72.2276 71.0086 72.2276 70.9802 72.2276 70.966C72.2276 70.9233 72.2134 70.8949 72.1991 70.8665H72.1849Z" fill="#5DBF52"/>
<mask id="mask0_35_135" style="mask-type:luminance" maskUnits="userSpaceOnUse" x="55" y="70" width="18" height="13">
<path d="M72.1849 70.8665C71.9859 71.7195 68.4172 72.8285 63.967 73.3688C59.5025 73.9091 55.7775 73.71 55.3793 72.9281C55.3793 72.9707 55.3793 72.9991 55.3793 73.0418C55.3793 73.056 55.3793 73.0702 55.3793 73.0844L57.1139 81.3308C57.2277 82.1981 60.7537 82.4825 65.0191 81.9706C69.2703 81.4446 72.6399 80.3214 72.5404 79.4399L72.2276 71.0086C72.2276 71.0086 72.2276 70.9802 72.2276 70.966C72.2276 70.9233 72.2134 70.8949 72.1991 70.8665H72.1849Z" fill="white"/>
</mask>
<g mask="url(#mask0_35_135)">
<path d="M63.8347 71.9087L63.75 71.9191L65.0981 82.8982L65.1828 82.8878L63.8347 71.9087Z" fill="#F9F6F4"/>
<path d="M66.204 71.6331L66.1191 71.642L67.2754 82.6429L67.3602 82.634L66.204 71.6331Z" fill="#F9F6F4"/>
<path d="M68.661 71.331L68.5759 71.3369L69.3475 82.3715L69.4326 82.3656L68.661 71.331Z" fill="#F9F6F4"/>
<path d="M71.1303 71.0329L71.0451 71.0359L71.4311 82.0907L71.5164 82.0877L71.1303 71.0329Z" fill="#F9F6F4"/>
<path d="M61.4644 72.2141L61.3799 72.226L62.9194 83.1798L63.0038 83.168L61.4644 72.2141Z" fill="#F9F6F4"/>
<path d="M58.9966 72.5091L58.9126 72.5239L60.8334 83.4174L60.9174 83.4026L58.9966 72.5091Z" fill="#F9F6F4"/>
<path d="M56.5338 72.8261L56.4504 72.8439L58.7502 83.6637L58.8336 83.646L56.5338 72.8261Z" fill="#F9F6F4"/>
</g>
<path d="M72.2276 70.9659C72.2276 70.9659 72.2276 70.9659 72.2276 70.9517C72.2276 70.9517 72.2276 70.9375 72.2276 70.9232C72.2276 70.909 72.2276 70.8948 72.2134 70.8806C72.2134 70.8806 72.1849 70.8237 72.1565 70.7953V70.9801C71.7015 71.819 68.2466 72.8427 63.9812 73.3687C59.7158 73.8948 56.1187 73.7242 55.4647 73.0275L55.422 72.8427C55.422 72.8427 55.3936 72.8995 55.3936 72.928C55.3936 72.928 55.3936 72.9564 55.3936 72.9706V72.9991V73.0275C55.5073 73.8948 59.3604 74.1507 64.0096 73.5678C68.6589 72.9848 72.3555 71.819 72.2418 70.9517C72.2418 70.9517 72.2418 70.9517 72.2418 70.9375L72.2276 70.9659Z" fill="#D2F0F7"/>
<path opacity="0.25" d="M72.2276 70.9659C72.2276 70.9659 72.2276 70.9659 72.2276 70.9517C72.2276 70.9517 72.2276 70.9375 72.2276 70.9232C72.2276 70.909 72.2276 70.8948 72.2134 70.8806C72.2134 70.8806 72.1849 70.8237 72.1565 70.7953V70.9801C71.7015 71.819 68.2466 72.8427 63.9812 73.3687C59.7158 73.8948 56.1187 73.7242 55.4647 73.0275L55.422 72.8427C55.422 72.8427 55.3936 72.8995 55.3936 72.928C55.3936 72.928 55.3936 72.9564 55.3936 72.9706V72.9991V73.0275C55.5073 73.8948 59.3604 74.1507 64.0096 73.5678C68.6589 72.9848 72.3555 71.819 72.2418 70.9517C72.2418 70.9517 72.2418 70.9517 72.2418 70.9375L72.2276 70.9659Z" fill="#191818"/>
<path d="M64.5073 81.018C66.2897 81.018 67.7347 79.5731 67.7347 77.7906C67.7347 76.0081 66.2897 74.5631 64.5073 74.5631C62.7248 74.5631 61.2798 76.0081 61.2798 77.7906C61.2798 79.5731 62.7248 81.018 64.5073 81.018Z" fill="white"/>
<path d="M56.6732 80.492C56.6732 80.492 64.3935 75.6721 65.3603 76.9233C66.3271 78.1887 62.2039 83.5631 62.2039 83.5631L65.6731 87.2739H76.2654L75.1565 88.454C75.1565 88.454 77.8152 88.3829 77.4882 90.0749C77.1612 91.7668 69.2134 95.3782 62.4599 96.345C55.7063 97.3118 46.1519 87.9706 46.1519 87.9706L56.6874 80.492H56.6732Z" fill="#F5C8BA"/>
<path d="M25.8061 57.3878C25.8061 57.3878 41.1756 76.8664 53.7727 79.5678C66.3698 82.2692 51.4694 91.0416 51.4694 91.0416C51.4694 91.0416 18.1426 90.8426 14.1616 70.2835C11.6877 57.4731 25.8061 57.3878 25.8061 57.3878Z" fill="#F5C8BA"/>
<path d="M36.0856 32.0801C36.0856 32.0801 14.3322 32.0801 10.8915 52.4401C8.40333 67.1841 17.5597 81.1603 17.5597 81.1603L38.2183 64.2552L36.0714 32.0943L36.0856 32.0801Z" fill="#162F3A"/>
<path d="M33.2989 60.8997C33.1852 60.8997 33.0714 60.8429 33.0003 60.7576C32.389 59.9045 29.3321 55.5965 30.0146 54.0041C30.1141 53.7623 30.3558 53.4496 30.8819 53.3785C31.3084 53.3216 31.7065 53.4496 32.0335 53.7339C33.5975 55.0988 33.6544 59.9898 33.6544 60.5443C33.6544 60.7007 33.5548 60.8429 33.3984 60.8855C33.3558 60.8855 33.3273 60.8997 33.2847 60.8997H33.2989ZM31.0951 54.0751C31.0951 54.0751 31.024 54.0751 30.9956 54.0751C30.7965 54.1036 30.7255 54.1889 30.697 54.26C30.37 55.0135 31.6354 57.3879 32.9008 59.3073C32.7871 57.5585 32.4458 55.0277 31.5785 54.26C31.4221 54.132 31.2657 54.0609 31.0951 54.0609V54.0751Z" fill="white"/>
</svg>
