<svg width="296" height="218" viewBox="0 0 296 218" fill="none" xmlns="http://www.w3.org/2000/svg">
<g opacity="0.36">
<path d="M148.178 217.915C229.734 217.915 295.848 214.837 295.848 211.039C295.848 207.241 229.734 204.163 148.178 204.163C66.6219 204.163 0.507812 207.241 0.507812 211.039C0.507812 214.837 66.6219 217.915 148.178 217.915Z" fill="#DBD3E0"/>
</g>
<path d="M228.373 130.023H218.355V198.348H228.373V130.023Z" fill="#BDB2C2"/>
<path d="M244.46 202.437H202.424C200.684 202.437 199.269 201.022 199.269 199.281C199.269 197.541 200.684 196.126 202.424 196.126H244.46C246.2 196.126 247.615 197.541 247.615 199.281C247.615 201.022 246.2 202.437 244.46 202.437Z" fill="#BDB2C2"/>
<path d="M201.292 214.038C205.035 214.038 208.069 211.004 208.069 207.261C208.069 203.518 205.035 200.484 201.292 200.484C197.549 200.484 194.515 203.518 194.515 207.261C194.515 211.004 197.549 214.038 201.292 214.038Z" fill="#BDB2C2"/>
<path d="M230.127 207.261C230.127 210.997 227.099 214.038 223.35 214.038C219.6 214.038 216.573 211.011 216.573 207.261C216.573 203.512 219.6 200.484 223.35 200.484C227.099 200.484 230.127 203.512 230.127 207.261Z" fill="#BDB2C2"/>
<path d="M252.114 207.261C252.114 210.997 249.086 214.038 245.337 214.038C241.587 214.038 238.56 211.011 238.56 207.261C238.56 203.512 241.587 200.484 245.337 200.484C249.086 200.484 252.114 203.512 252.114 207.261Z" fill="#BDB2C2"/>
<path d="M246.738 54.6958C246.738 54.6958 274.568 67.0052 267.579 106.522C262.485 135.358 233.905 144.752 208.932 137.933C183.96 131.113 188.12 111.432 188.12 111.432L246.738 54.6816V54.6958Z" fill="#EEECF1"/>
<path d="M249.284 19.8192C249.284 19.8192 242.422 11.6696 236.664 8.27391C230.905 4.87822 228.174 5.0197 227.552 5.81203C226.929 6.59021 230.056 9.53314 230.056 9.53314C230.056 9.53314 224.552 6.49117 223.222 8.23146C221.892 9.97175 226.42 13.1835 226.42 13.1835C226.42 13.1835 222.034 11.8252 221.935 13.7495C221.822 15.6878 230.651 20.8662 230.651 20.8662C230.651 20.8662 225.472 19.7626 225.373 21.2483C225.274 22.748 231.471 27.0209 234.357 27.4029C237.258 27.785 241.389 27.0351 241.389 27.0351L249.284 19.8192Z" fill="#F5C8BA"/>
<path d="M240.739 21.885C240.739 21.885 240.654 21.885 240.611 21.8567C234.357 19.027 230.849 21.121 230.82 21.1351C230.665 21.2342 230.467 21.1776 230.382 21.0361C230.283 20.8805 230.339 20.6965 230.481 20.5975C230.636 20.4984 234.287 18.3054 240.88 21.2766C241.036 21.3474 241.106 21.5454 241.036 21.7011C240.979 21.8143 240.866 21.885 240.739 21.885Z" fill="black"/>
<path d="M229.052 20.2014C228.967 20.2014 228.896 20.1731 228.825 20.1023C228.698 19.975 228.698 19.7769 228.825 19.6496L236.607 11.7829C236.734 11.6555 236.933 11.6555 237.06 11.7829C237.187 11.9102 237.187 12.1083 237.06 12.2356L229.278 20.1023C229.278 20.1023 229.137 20.2014 229.052 20.2014Z" fill="black"/>
<path d="M216.375 17.018C216.375 17.018 225.614 11.6981 232.193 10.4813C238.772 9.2645 241.276 10.3256 241.602 11.2878C241.913 12.2357 237.965 13.9194 237.965 13.9194C237.965 13.9194 244.177 12.9432 244.842 15.0372C245.507 17.1312 240.144 18.6026 240.144 18.6026C240.144 18.6026 244.729 18.8149 244.163 20.6683C243.597 22.5218 233.537 24.3753 233.537 24.3753C233.537 24.3753 238.772 25.111 238.362 26.5401C237.951 27.9832 230.665 29.8792 227.807 29.2425C224.949 28.6058 221.327 26.4976 221.327 26.4976L216.375 17.018Z" fill="#F5C8BA"/>
<path d="M233.523 24.7291C233.424 24.7291 233.311 24.6866 233.24 24.5876C233.212 24.5593 230.636 21.4324 223.817 21.9276C223.619 21.9559 223.449 21.8003 223.435 21.6022C223.421 21.4041 223.562 21.2343 223.76 21.2202C230.99 20.6684 233.678 24.0075 233.792 24.149C233.905 24.3046 233.891 24.5168 233.735 24.6442C233.664 24.7008 233.594 24.7149 233.523 24.7149V24.7291Z" fill="black"/>
<path d="M235.362 24.3469C235.235 24.3469 235.093 24.2761 235.037 24.1347L230.424 14.0891C230.339 13.9051 230.424 13.7071 230.594 13.6222C230.778 13.5373 230.976 13.6222 231.061 13.792L235.673 23.8375C235.758 24.0215 235.673 24.2195 235.503 24.3044C235.461 24.3327 235.404 24.3327 235.362 24.3327V24.3469Z" fill="black"/>
<path d="M154.219 165.848L144.952 179.841L152.578 190.693L164.053 187.453L173.688 175.229L154.219 165.848Z" fill="#F5C8BA"/>
<path d="M183.592 174.337L174.339 188.33L181.965 199.168L193.439 195.942L203.075 183.704L183.592 174.337Z" fill="#F5C8BA"/>
<path d="M157.601 205.747C157.601 205.747 171.99 182.925 168.184 181.072C164.378 179.233 158.704 180.195 158.704 180.195C158.704 180.195 153.512 170.687 148.461 170.715C143.41 170.743 137.991 174.564 137.991 174.564L110.146 174.337C110.146 174.337 105.307 176.53 104.741 178.851C104.303 180.662 134.454 199.437 147.725 207.601C151.149 209.709 155.507 208.874 157.587 205.733L157.601 205.747Z" fill="#162F3A"/>
<path d="M185.771 214.053C185.771 214.053 200.273 193.282 196.425 191.528C192.576 189.759 190.157 189.943 190.157 189.943C190.157 189.943 186.026 182.246 181.059 181.383C175.81 180.478 173.504 183.166 173.504 183.166L139.745 181.751C139.745 181.751 137.934 184.793 137.425 187.128C137.029 188.953 162.51 208.252 175.966 216.118C179.432 218.156 183.776 217.236 185.785 214.038L185.771 214.053Z" fill="#162F3A"/>
<path d="M256.5 122.468C256.401 122.468 256.316 122.426 256.246 122.355C256.118 122.213 256.118 121.987 256.26 121.86C262.443 116.144 263.631 104.924 263.645 104.81C263.659 104.612 263.829 104.457 264.027 104.499C264.225 104.513 264.367 104.697 264.339 104.881C264.296 105.348 263.108 116.483 256.727 122.383C256.656 122.44 256.571 122.482 256.486 122.482L256.5 122.468Z" fill="white"/>
<g opacity="0.57">
<path d="M250.119 111.715C251.095 114.842 243.752 119.907 233.735 123.02C223.718 126.133 214.804 126.118 213.828 122.992C212.851 119.865 220.195 114.8 230.212 111.687C240.229 108.574 249.143 108.588 250.119 111.715Z" fill="#C8BCCE"/>
</g>
<path d="M222.119 29.3696L219.926 13.8627C219.926 13.8627 197.132 14.4569 187.95 24.7713C173.617 40.8584 206.301 56.7474 206.301 56.7474L213.941 36.6987L222.105 29.3838L222.119 29.3696Z" fill="#162F3A"/>
<path d="M237.725 30.8412L245.096 14.641C245.096 14.641 265.287 21.7153 272.927 36.4158C282.873 55.5449 241.771 65.548 241.771 65.548L243.809 40.4624L237.711 30.8412H237.725Z" fill="#162F3A"/>
<path d="M223.138 31.3079C223.138 31.3079 215.922 30.8976 209.795 36.4015C203.669 41.9053 200.698 87.0963 200.995 87.6905C201.292 88.2847 204.914 89.6855 220.803 90.8315C237.951 92.0766 244.53 91.3692 245.21 90.6051C245.889 89.8411 248.506 42.7542 244.884 38.453C241.262 34.1518 233.551 31.5768 223.138 31.3079Z" fill="#162F3A"/>
<path d="M223.604 36.0763L217.549 88.6104L221.553 89.2754L227.708 36.3168L223.604 36.0763Z" fill="#9BC9DD"/>
<path d="M258.439 215.765C256.995 215.765 255.835 214.604 255.835 213.161V86.7144H261.042V213.147C261.042 214.59 259.882 215.751 258.439 215.751V215.765Z" fill="#BDB2C2"/>
<path d="M97.0868 215.765C95.6437 215.765 94.4835 214.604 94.4835 213.161V86.7144H99.6902V213.147C99.6902 214.59 98.53 215.751 97.0868 215.751V215.765Z" fill="#BDB2C2"/>
<path d="M94.8655 84.776H143.084C144.626 84.776 145.886 83.5309 145.886 81.9745C145.886 80.4182 144.641 79.1731 143.084 79.1731H94.8655C93.3233 79.1731 92.0641 80.4182 92.0641 81.9745C92.0641 83.5309 93.3092 84.776 94.8655 84.776Z" fill="#DDD7E0"/>
<path d="M74.0669 63.7368L151.05 63.7368C153.543 63.7368 155.563 61.7161 155.563 59.2234V24.7147C155.563 22.222 153.543 20.2013 151.05 20.2013L74.0669 20.2013C71.5742 20.2013 69.5535 22.222 69.5535 24.7147V59.2234C69.5535 61.7161 71.5742 63.7368 74.0669 63.7368Z" fill="#DDD7E0"/>
<path d="M106.213 85.54H118.89V48.4563H106.213V85.54Z" fill="#A89FB3"/>
<path d="M103.029 52.05H122.088C123.744 52.05 125.087 50.7071 125.087 49.0505V48.6261C125.087 46.9695 123.744 45.6265 122.088 45.6265H103.029C101.373 45.6265 100.03 46.9695 100.03 48.6261V49.0505C100.03 50.7071 101.373 52.05 103.029 52.05Z" fill="#A89FB3"/>
<path d="M144.796 23.2997H118.975C118.777 23.2997 118.621 23.1441 118.621 22.946C118.621 22.7479 118.777 22.5923 118.975 22.5923H144.796C144.994 22.5923 145.15 22.7479 145.15 22.946C145.15 23.1441 144.994 23.2997 144.796 23.2997Z" fill="white"/>
<path d="M200.967 89.2754C200.967 89.2754 170.802 114.856 168.283 121.294C165.765 127.746 148.942 169.428 148.942 169.428L179.814 179.431L200.967 89.2754Z" fill="#9BC9DD"/>
<path d="M244.997 84.2666C245.054 83.6158 245.719 102.504 244.332 110.371C242.946 118.252 200.104 192.023 200.104 192.023L174.48 177.719L201.023 85.5542L244.997 84.2808V84.2666Z" fill="#9BC9DD"/>
<path d="M174.961 176.445C174.961 176.445 174.862 176.445 174.806 176.417C174.636 176.332 174.551 176.12 174.636 175.95L211.224 100.156L204.32 94.5244C204.164 94.397 204.15 94.1848 204.263 94.0292C204.391 93.8735 204.603 93.8594 204.758 93.9726L211.875 99.7735C212.003 99.8726 212.045 100.057 211.974 100.198L175.258 176.247C175.202 176.375 175.074 176.445 174.933 176.445H174.961Z" fill="white"/>
<path d="M240.017 99.2926C234.06 99.0945 232.66 92.671 232.646 92.6144C232.603 92.4305 232.73 92.2324 232.914 92.2041C233.098 92.1617 233.296 92.289 233.339 92.4729C233.395 92.7135 234.64 98.4154 240.031 98.5993C240.229 98.5993 240.385 98.7691 240.371 98.9672C240.371 99.1653 240.201 99.3068 240.017 99.3068V99.2926Z" fill="white"/>
<path d="M193.553 137.933C192.732 137.862 185.799 137.14 184.795 135.259C184.597 134.905 184.611 134.509 184.795 134.141C184.993 133.759 185.332 133.518 185.785 133.419C188.105 132.952 193.199 136.857 193.765 137.31C193.892 137.409 193.935 137.579 193.878 137.72C193.821 137.862 193.694 137.947 193.553 137.947V137.933ZM186.238 134.07C186.125 134.07 186.026 134.07 185.927 134.098C185.686 134.155 185.53 134.268 185.417 134.452C185.332 134.622 185.318 134.763 185.417 134.905C185.955 135.909 189.506 136.688 192.293 137.055C190.539 135.81 187.752 134.056 186.252 134.056L186.238 134.07Z" fill="white"/>
<path d="M185.12 214.902C185.12 214.902 157.318 186.703 142.179 182.26C137.679 180.945 135.826 180.987 135.005 182.416C134.185 183.845 135.119 187.92 137.481 191.075C139.264 193.466 171.509 215.567 177.197 217.264C182.899 218.962 185.106 214.902 185.106 214.902H185.12Z" fill="#0A1B22"/>
<path d="M137.029 175.78C136.816 175.78 136.661 175.597 136.675 175.413C136.675 175.328 137.142 166.485 135.034 164.249C134.751 163.952 134.439 163.797 134.086 163.797C133.675 163.797 133.392 163.924 133.223 164.207C132.515 165.339 133.52 168.451 134.383 170.574C134.765 171.338 135.005 171.96 135.076 172.13C135.147 172.3 135.062 172.512 134.892 172.583C134.722 172.654 134.51 172.583 134.439 172.413C134.354 172.229 134.086 171.663 133.76 170.899C133.01 169.399 131.878 167.546 130.817 167.263C130.492 167.178 130.209 167.249 129.926 167.475C129.7 167.659 129.601 167.886 129.601 168.183C129.572 170.107 133.491 173.87 135.005 175.158C135.161 175.285 135.175 175.512 135.048 175.653C134.92 175.809 134.694 175.823 134.553 175.696C134.326 175.498 128.865 170.814 128.907 168.168C128.907 167.645 129.119 167.221 129.501 166.909C129.968 166.541 130.492 166.414 131.03 166.556C131.624 166.711 132.204 167.192 132.727 167.815C132.303 166.258 132.119 164.688 132.671 163.811C132.883 163.471 133.307 163.075 134.128 163.075C134.68 163.075 135.175 163.301 135.6 163.754C137.92 166.202 137.467 175.059 137.439 175.441C137.439 175.625 137.269 175.78 137.085 175.78H137.029Z" fill="#5F8457"/>
<path d="M169.91 184.539C169.726 184.539 169.571 184.397 169.556 184.213C169.259 181.072 168.226 175.993 166.713 175.766C166.529 175.738 166.458 175.795 166.401 175.865C165.708 176.7 166.755 180.874 167.576 183.294C167.632 183.463 167.547 183.661 167.392 183.732C167.222 183.803 167.024 183.732 166.939 183.577C165.439 180.874 162.765 177.28 161.562 177.747C161.435 177.804 161.364 177.86 161.336 177.988C161.081 179.049 163.444 182.204 165.001 183.944C165.128 184.086 165.114 184.312 164.972 184.44C164.831 184.567 164.604 184.553 164.477 184.411C164.038 183.93 160.232 179.601 160.657 177.818C160.742 177.464 160.968 177.21 161.308 177.082C162.779 176.516 164.788 178.907 166.147 180.917C165.609 178.865 165.142 176.276 165.878 175.399C166.048 175.2 166.331 174.974 166.84 175.059C169.401 175.441 170.207 183.251 170.278 184.142C170.292 184.341 170.151 184.51 169.953 184.524H169.924L169.91 184.539Z" fill="#5F8457"/>
<path d="M25.0841 123.982C22.2119 123.982 19.8632 120.954 19.8632 117.233C19.8632 113.512 22.2119 110.484 25.0841 110.484C27.9563 110.484 30.305 113.512 30.305 117.233C30.305 120.954 27.9704 123.982 25.0841 123.982ZM25.0841 111.729C22.891 111.729 21.0942 114.205 21.0942 117.233C21.0942 120.261 22.8769 122.737 25.0841 122.737C27.2913 122.737 29.074 120.261 29.074 117.233C29.074 114.205 27.2913 111.729 25.0841 111.729Z" fill="#5F8457"/>
<path d="M9.30827 209.935H65.2381C68.6763 209.935 71.4635 207.148 71.4635 203.71L71.4635 132.004C71.4635 128.566 68.6763 125.779 65.2381 125.779L9.30827 125.779C5.87006 125.779 3.08284 128.566 3.08284 132.004L3.08284 203.71C3.08284 207.148 5.87006 209.935 9.30827 209.935Z" fill="#DDD7E0"/>
<path d="M71.4494 153.751H3.06874C2.87066 153.751 2.71503 153.595 2.71503 153.397C2.71503 153.199 2.87066 153.043 3.06874 153.043H71.4494C71.6475 153.043 71.8031 153.199 71.8031 153.397C71.8031 153.595 71.6475 153.751 71.4494 153.751Z" fill="#BDB2C2"/>
<path d="M71.4494 183.095H3.06874C2.87066 183.095 2.71503 182.94 2.71503 182.742C2.71503 182.543 2.87066 182.388 3.06874 182.388H71.4494C71.6475 182.388 71.8031 182.543 71.8031 182.742C71.8031 182.94 71.6475 183.095 71.4494 183.095Z" fill="#BDB2C2"/>
<path d="M29.6683 140.295H44.864C45.7554 140.295 46.477 139.574 46.477 138.682C46.477 137.791 45.7554 137.069 44.864 137.069H29.6683C28.7769 137.069 28.0554 137.791 28.0554 138.682C28.0554 139.574 28.7769 140.295 29.6683 140.295Z" fill="#EEECF1"/>
<path d="M29.6683 198.121H44.864C45.7554 198.121 46.477 197.399 46.477 196.508C46.477 195.617 45.7554 194.895 44.864 194.895H29.6683C28.7769 194.895 28.0554 195.617 28.0554 196.508C28.0554 197.399 28.7769 198.121 29.6683 198.121Z" fill="#EEECF1"/>
<path d="M29.6683 168.579H44.864C45.7554 168.579 46.477 167.857 46.477 166.966C46.477 166.074 45.7554 165.353 44.864 165.353H29.6683C28.7769 165.353 28.0554 166.074 28.0554 166.966C28.0554 167.857 28.7769 168.579 29.6683 168.579Z" fill="#EEECF1"/>
<path d="M29.6117 152.718L47.7079 171.14L61.4887 152.718H29.6117Z" fill="white"/>
<path d="M29.4702 84.3939C29.4702 84.3939 43.435 84.9598 51.6271 83.9836C62.2528 82.7102 67.5727 78.9467 67.5727 78.9467C67.5727 78.9467 67.799 85.5258 60.4842 90.874C53.1834 96.2222 29.4702 84.3939 29.4702 84.3939Z" fill="#A7A1AF"/>
<path d="M60.5796 105.295L21.0637 104.964C20.1573 104.957 19.4163 105.685 19.4087 106.592L19.2631 123.98C19.2555 124.886 19.9841 125.627 20.8905 125.635L60.4064 125.966C61.3128 125.973 62.0538 125.245 62.0614 124.338L62.207 106.95C62.2146 106.044 61.486 105.303 60.5796 105.295Z" fill="#CCC5D6"/>
<path d="M62.9895 96.3035L20.3609 95.9464C19.7046 95.9409 19.168 96.4685 19.1625 97.1249L19.0958 105.09C19.0903 105.747 19.6179 106.283 20.2743 106.289L62.9028 106.646C63.5592 106.651 64.0957 106.124 64.1012 105.467L64.168 97.5019C64.1735 96.8455 63.6458 96.309 62.9895 96.3035Z" fill="#B7B0C1"/>
<path d="M59.5902 89.9792L20.0884 89.6482C19.5961 89.6441 19.1937 90.0398 19.1896 90.5321L19.1518 95.0454C19.1477 95.5376 19.5434 95.94 20.0357 95.9442L59.5375 96.2751C60.0297 96.2792 60.4321 95.8835 60.4363 95.3912L60.4741 90.878C60.4782 90.3857 60.0825 89.9833 59.5902 89.9792Z" fill="#CCC5D6"/>
<path d="M21.6153 83.641L60.9313 87.4821C61.4241 87.5303 61.7799 87.9631 61.7317 88.4559L61.2929 92.948C61.2447 93.4408 60.8119 93.7966 60.3191 93.7484L21.0031 89.9073C20.5102 89.8592 20.1545 89.4264 20.2026 88.9335L20.6415 84.4415C20.6896 83.9486 21.1224 83.5928 21.6153 83.641Z" fill="#DDD7E0"/>
<path d="M223.534 27.304L222.869 30.8129L222.359 33.487C222.359 33.487 224.1 35.4961 226.845 35.9489C231.146 36.6563 232.645 34.0954 232.645 34.0954L233.947 26.3136L232.518 26.4834L223.534 27.304Z" fill="#F5C8BA"/>
<path d="M223.534 27.3039L222.869 30.8128C224.142 31.2231 225.585 31.407 227.085 31.0533C231.259 30.0487 233.65 26.7379 233.947 26.3135C233.919 26.271 232.518 26.4833 232.518 26.4833L223.534 27.3039Z" fill="black"/>
<path d="M223.463 9.20773C223.463 9.20773 218.454 18.9986 219.699 24.7289C220.945 30.4732 226.137 29.8931 229.278 28.9876C232.419 28.0821 233.961 26.2852 233.961 26.2852C233.961 26.2852 236.777 27.4313 238.857 24.8845C240.937 22.3236 239.946 19.1826 238.347 18.3761C236.749 17.5696 234.725 18.6449 234.725 18.6449L236.437 15.8152C236.437 15.8152 230.905 0.577026 223.449 9.20773H223.463Z" fill="#F5C8BA"/>
<path d="M223.166 22.0406C223.01 22.0406 222.869 21.9274 222.826 21.7718C222.275 19.5646 223.916 17.4564 223.987 17.3574C224.1 17.2017 224.326 17.1734 224.482 17.3008C224.637 17.414 224.666 17.6403 224.538 17.796C224.524 17.8101 223.039 19.7344 223.505 21.602C223.548 21.7859 223.435 21.984 223.251 22.0264C223.222 22.0264 223.194 22.0264 223.166 22.0264V22.0406Z" fill="black"/>
<path d="M234.923 23.413C234.824 23.413 234.74 23.3705 234.669 23.2998C234.541 23.1583 234.541 22.9319 234.669 22.8046L237.555 20.0597C237.697 19.9324 237.923 19.9324 238.05 20.0597C238.178 20.2012 238.178 20.4276 238.05 20.5549L235.164 23.2998C235.164 23.2998 235.008 23.3988 234.923 23.3988V23.413Z" fill="black"/>
<path d="M237.866 22.8047C237.866 22.8047 237.824 22.8047 237.796 22.8047L235.928 22.4227C235.744 22.3802 235.617 22.1963 235.659 21.9982C235.702 21.8143 235.871 21.6869 236.084 21.7294L237.951 22.1114C238.135 22.1538 238.263 22.3378 238.22 22.5359C238.192 22.7056 238.036 22.8188 237.866 22.8188V22.8047Z" fill="black"/>
<path d="M229.872 15.037C229.731 15.037 229.604 14.9663 229.547 14.8248C229.151 13.9334 227.948 14.1173 227.892 14.1173C227.693 14.1456 227.524 14.0183 227.481 13.8202C227.453 13.6221 227.58 13.4523 227.778 13.4099C227.849 13.4099 229.575 13.1411 230.198 14.5277C230.283 14.7116 230.198 14.9097 230.014 14.9946C229.971 15.0087 229.915 15.0229 229.872 15.0229V15.037Z" fill="black"/>
<path d="M224.496 13.5797C224.383 13.5797 224.255 13.5231 224.199 13.4099C224.043 13.1552 223.859 13.0138 223.633 12.9713C223.166 12.8864 222.586 13.2401 222.416 13.3816C222.274 13.4948 222.048 13.4807 221.921 13.325C221.808 13.1694 221.822 12.9572 221.977 12.8298C222.02 12.8015 222.897 12.1224 223.76 12.278C224.199 12.3629 224.552 12.6176 224.807 13.0421C224.906 13.2118 224.85 13.4241 224.694 13.5231C224.637 13.5514 224.581 13.5797 224.51 13.5797H224.496Z" fill="black"/>
<path d="M220.605 1.86458C221.1 1.76554 221.567 1.70894 222.006 1.68065C222.388 0.845874 223.293 0.209183 225.189 0.23748C226.604 0.251629 227.835 0.605346 228.896 1.1147C229.816 0.478008 231.344 0.180885 233.876 1.28448C235.518 1.99192 236.664 3.16626 237.484 4.4255C238.659 4.4255 239.89 4.80751 240.894 6.06674C242.436 8.00512 242.153 9.75955 241.587 10.948C242.182 11.4998 242.705 12.3205 242.861 13.5797C243.271 16.9471 239.239 19.1543 239.239 19.1543C239.239 19.1543 237.088 17.7394 234.725 18.6449C234.725 18.6449 233.65 19.2675 232.957 18.0507C232.263 16.8339 234.103 13.4382 234.103 13.4382C234.103 13.4382 230.948 13.9759 229.08 12.844C227.212 11.7121 226.42 8.82574 226.42 8.82574C226.42 8.82574 224.85 11.6979 220.662 10.1699C216.488 8.64181 215.992 2.81254 220.591 1.87873L220.605 1.86458Z" fill="black"/>
<path d="M209.88 33.9823C208.904 33.9823 208.069 33.8549 207.631 33.5154C207.376 33.3173 207.234 33.0343 207.234 32.723C207.234 32.4118 207.376 32.1429 207.631 31.9449C209.116 30.7988 215.172 32.2986 215.851 32.4825C216.007 32.525 216.12 32.6664 216.12 32.8362C216.12 33.006 216.007 33.1334 215.851 33.1758C215.37 33.289 212.229 33.9964 209.894 33.9964L209.88 33.9823ZM209.569 32.1995C208.876 32.1995 208.324 32.2844 208.069 32.4825C207.984 32.5533 207.956 32.6099 207.956 32.7089C207.956 32.7796 207.97 32.8645 208.083 32.9494C208.819 33.5437 211.734 33.2324 214.125 32.7938C212.583 32.4684 210.828 32.1995 209.583 32.1995H209.569Z" fill="white"/>
<path d="M251.435 41.6366C249.016 41.6366 244.233 39.1464 243.625 38.821C243.483 38.7503 243.413 38.5946 243.441 38.439C243.469 38.2833 243.611 38.1702 243.766 38.156C244.474 38.1136 250.798 37.8023 252.468 39.4718C252.779 39.7831 252.921 40.151 252.906 40.5613C252.878 40.9574 252.694 41.2687 252.355 41.4668C252.114 41.5941 251.803 41.6507 251.435 41.6507V41.6366ZM245.181 38.8068C247.714 40.0378 251.081 41.3395 252.001 40.816C252.086 40.7735 252.171 40.6886 252.185 40.4905C252.185 40.2925 252.128 40.1227 251.958 39.9529C250.968 38.9625 247.487 38.7785 245.181 38.8068Z" fill="white"/>
<path d="M240.738 35.9345C240.738 35.9345 240.639 35.9345 240.597 35.9062C240.413 35.8214 240.342 35.6091 240.427 35.4393L248.973 16.6499C249.058 16.4801 249.27 16.3952 249.44 16.4801C249.624 16.565 249.695 16.7772 249.61 16.947L241.064 35.7365C241.007 35.8638 240.88 35.9487 240.738 35.9487V35.9345Z" fill="white"/>
<path d="M218.525 31.5062C218.355 31.5062 218.2 31.3788 218.171 31.209L215.412 14.6834C215.384 14.4853 215.511 14.3155 215.709 14.2731C215.908 14.2306 216.091 14.3721 216.12 14.5702L218.879 31.0959C218.907 31.2939 218.78 31.4637 218.582 31.5062C218.567 31.5062 218.539 31.5062 218.525 31.5062Z" fill="white"/>
<path d="M222.572 32.3551C222.572 32.3551 217.719 40.0661 218.638 40.052C219.558 40.0237 225.585 36.4865 225.585 36.4865C225.585 36.4865 229.519 41.8772 230.792 42.1036C232.065 42.3299 232.928 32.7513 232.928 32.7513C232.928 32.7513 231.697 35.8923 226.873 35.581C222.388 35.298 222.572 32.3551 222.572 32.3551Z" fill="white"/>
<path d="M224.227 24.7572C223.958 24.7572 223.803 24.7147 223.774 24.7147C223.59 24.6723 223.463 24.4742 223.52 24.2903C223.562 24.1064 223.76 23.979 223.944 24.0356C223.987 24.0356 224.92 24.2337 225.925 23.3706C226.066 23.2433 226.293 23.2574 226.42 23.4131C226.547 23.5687 226.533 23.7809 226.378 23.9083C225.529 24.6299 224.708 24.7572 224.213 24.7572H224.227Z" fill="black"/>
<path d="M227.679 18.0082C226.76 18.0082 226.307 17.4705 226.279 17.4422C226.151 17.2866 226.18 17.0744 226.335 16.947C226.491 16.8197 226.703 16.848 226.83 16.9895C226.859 17.0178 227.425 17.6403 228.712 17.0461C228.882 16.9612 229.094 17.0461 229.179 17.2159C229.264 17.3857 229.179 17.5979 229.009 17.6828C228.486 17.9233 228.047 18.0082 227.679 18.0082Z" fill="black"/>
<path d="M221.963 17.2727C221.567 17.2727 221.072 17.1595 220.563 16.7775C220.407 16.6643 220.379 16.4379 220.506 16.2823C220.619 16.1267 220.846 16.0984 221.001 16.2257C221.737 16.7916 222.458 16.4945 222.487 16.4804C222.671 16.4096 222.869 16.4804 222.954 16.6643C223.039 16.8482 222.954 17.0463 222.784 17.1312C222.756 17.1312 222.43 17.2869 221.977 17.2869L221.963 17.2727Z" fill="black"/>
<path d="M175.721 66.5486L168.753 66.6266L170.426 84.9697C170.431 85.3983 172.889 85.7181 175.917 85.6842C178.946 85.6504 181.397 85.2757 181.392 84.8471L182.688 66.4706L175.72 66.5485L175.721 66.5486Z" fill="#D2F0F7"/>
<g style="mix-blend-mode:color-burn" opacity="0.25">
<path d="M175.788 73.1268C172.504 73.1633 169.776 72.743 169.258 72.1583L169.874 78.9143C170.329 79.5049 172.837 79.9324 175.858 79.8992C178.879 79.8652 181.377 79.3815 181.82 78.7807L182.297 72.0121C181.791 72.6087 179.072 73.0903 175.788 73.1268Z" fill="#191818"/>
</g>
<g style="mix-blend-mode:color-burn" opacity="0.25">
<path d="M168.753 66.6266L168.818 67.3403C169.703 67.751 172.416 67.8884 175.734 67.8515C179.052 67.8145 181.761 67.6165 182.638 67.1856L182.688 66.4706L175.72 66.5485L168.753 66.6266Z" fill="#191818"/>
</g>
<path d="M182.977 64.8545L168.431 65.0173L168.507 66.5991C168.514 67.2573 171.668 67.4739 175.73 67.4279C179.792 67.3826 182.941 67.096 182.934 66.4371L182.977 64.8538L182.977 64.8545Z" fill="#D2F0F7"/>
<path d="M175.716 66.1282C179.733 66.0833 182.984 65.513 182.977 64.8545C182.971 64.1961 179.709 63.6987 175.692 63.7437C171.675 63.7886 168.424 64.3589 168.431 65.0173C168.438 65.6758 171.699 66.1732 175.716 66.1282Z" fill="white"/>
<path d="M182.018 63.673L169.365 63.8142L169.304 64.6613C169.308 65.0899 172.176 65.4051 175.708 65.3659C179.241 65.3267 182.101 64.9468 182.097 64.5182L182.018 63.6723L182.018 63.673Z" fill="#D2F0F7"/>
<path d="M182.018 63.6729C182.022 64.1015 179.194 64.4807 175.7 64.52C172.205 64.5592 169.369 64.2433 169.365 63.8147C169.361 63.3861 172.189 63.0069 175.684 62.9676C179.178 62.9284 182.014 63.2443 182.018 63.6729Z" fill="white"/>
<path d="M180.639 63.6883C180.64 63.8447 179.992 63.9781 179.192 63.9872C178.391 63.9963 177.741 63.8767 177.739 63.7203C177.738 63.5639 178.386 63.4305 179.186 63.4214C179.986 63.4123 180.637 63.5319 180.639 63.6883Z" fill="#D2F0F7"/>
<g style="mix-blend-mode:color-burn" opacity="0.25">
<path d="M177.997 63.8783C178.259 63.9495 178.696 63.9927 179.192 63.9872C179.688 63.9816 180.124 63.9281 180.385 63.8516C180.123 63.7803 179.685 63.7371 179.19 63.7427C178.694 63.7483 178.258 63.8017 177.997 63.8783Z" fill="#191818"/>
</g>
<path d="M182.365 71.613C182.137 72.2627 179.281 72.805 175.785 72.8447C172.289 72.8838 169.422 72.4054 169.182 71.7608C169.172 71.7902 169.166 71.818 169.167 71.8471C169.167 71.8599 169.167 71.8721 169.169 71.8844L169.797 78.4408C169.804 79.1281 172.516 79.6545 175.855 79.6171C179.194 79.5797 181.895 78.993 181.887 78.3056L182.379 71.7367C182.381 71.7241 182.382 71.7121 182.382 71.6994C182.382 71.6702 182.375 71.6426 182.365 71.6137L182.365 71.613Z" fill="#64C676"/>
<mask id="mask0_35_51" style="mask-type:luminance" maskUnits="userSpaceOnUse" x="168" y="71" width="15" height="9">
<path d="M182.046 72.0371C181.805 72.6818 178.938 73.1629 175.442 73.1278C171.946 73.092 169.09 72.5523 168.864 71.9028C168.853 71.9319 168.847 71.9596 168.846 71.9887C168.846 72.0015 168.847 72.0137 168.848 72.026L169.335 78.5944C169.328 79.2817 172.028 79.866 175.367 79.9001C178.706 79.9341 181.419 79.4054 181.426 78.718L182.058 72.1611C182.06 72.1486 182.062 72.1367 182.062 72.1239C182.062 72.0948 182.057 72.067 182.046 72.0378L182.046 72.0371Z" fill="white"/>
</mask>
<g mask="url(#mask0_35_51)">
<path d="M177.607 71.9581L177.537 71.9574L177.441 80.6016L177.511 80.6023L177.607 71.9581Z" fill="#F9F6F4"/>
<path d="M179.465 71.9778L179.395 71.9758L179.149 80.6172L179.219 80.6191L179.465 71.9778Z" fill="#F9F6F4"/>
<path d="M181.399 72.0047L181.329 72.0002L180.782 80.628L180.852 80.6324L181.399 72.0047Z" fill="#F9F6F4"/>
<path d="M175.749 71.9387L175.679 71.9392L175.733 80.5836L175.803 80.5831L175.749 71.9387Z" fill="#F9F6F4"/>
<path d="M173.816 71.9227L173.746 71.9257L174.1 80.5626L174.171 80.5597L173.816 71.9227Z" fill="#F9F6F4"/>
<path d="M171.882 71.9122L171.812 71.9176L172.467 80.5366L172.537 80.5312L171.882 71.9122Z" fill="#F9F6F4"/>
</g>
<path d="M182.381 71.6857C182.381 71.6822 182.379 71.6778 182.379 71.6742C182.379 71.667 182.377 71.6591 182.376 71.6518C182.373 71.6394 182.37 71.6263 182.365 71.6137C182.357 71.5915 182.346 71.5689 182.331 71.5466L182.32 71.696C181.89 72.3081 179.132 72.8075 175.785 72.8447C172.439 72.8821 169.671 72.4445 169.229 71.8427L169.215 71.6935C169.201 71.716 169.19 71.7382 169.182 71.7615C169.178 71.7738 169.174 71.7869 169.172 71.7995C169.171 71.8072 169.17 71.8142 169.17 71.8219C169.169 71.8254 169.169 71.8296 169.168 71.8331C169.168 71.8373 169.167 71.8422 169.167 71.8464C169.174 72.5331 172.138 73.0571 175.787 73.0161C179.437 72.975 182.389 72.3853 182.382 71.6987C182.383 71.6944 182.381 71.69 182.381 71.685L182.381 71.6857Z" fill="#D2F0F7"/>
<g style="mix-blend-mode:color-burn" opacity="0.25">
<path d="M182.381 71.6857C182.381 71.6822 182.379 71.6778 182.379 71.6742C182.379 71.667 182.377 71.6591 182.376 71.6518C182.373 71.6394 182.37 71.6263 182.365 71.6137C182.357 71.5915 182.346 71.5689 182.331 71.5466L182.32 71.696C181.89 72.3081 179.132 72.8075 175.785 72.8447C172.439 72.8821 169.671 72.4445 169.229 71.8427L169.215 71.6935C169.201 71.716 169.19 71.7382 169.182 71.7615C169.178 71.7738 169.174 71.7869 169.172 71.7995C169.171 71.8072 169.17 71.8142 169.17 71.8219C169.169 71.8254 169.169 71.8296 169.168 71.8331C169.168 71.8373 169.167 71.8422 169.167 71.8464C169.174 72.5331 172.138 73.0571 175.787 73.0161C179.437 72.975 182.389 72.3853 182.382 71.6987C182.383 71.6944 182.381 71.69 182.381 71.685L182.381 71.6857Z" fill="#191818"/>
</g>
<path d="M177.833 77.8348C178.665 76.7189 178.438 75.1384 177.327 74.3045C176.216 73.4706 174.641 73.6992 173.809 74.815C172.977 75.9309 173.204 77.5114 174.315 78.3453C175.426 79.1792 177.001 78.9506 177.833 77.8348Z" fill="#FEFCFC"/>
<path d="M175.205 76.5643C175.006 76.6157 174.931 76.8562 175.063 77.0139C175.291 77.287 175.666 77.4202 176.036 77.3246C176.405 77.2289 176.665 76.9295 176.728 76.58C176.764 76.3793 176.58 76.2055 176.382 76.2584C176.372 76.2604 175.773 76.4172 175.763 76.4191C175.756 76.4212 175.212 76.5622 175.205 76.5643Z" fill="#9BC9DD"/>
<path d="M176.28 78.0148C176.616 77.9272 176.863 77.7612 176.832 77.6438C176.801 77.5265 176.504 77.5024 176.168 77.5899C175.832 77.6774 175.585 77.8435 175.616 77.9609C175.647 78.0782 175.945 78.1023 176.28 78.0148Z" fill="#64C676"/>
<path d="M176.418 74.8174C176.341 74.8367 176.279 74.8976 176.26 74.9765C176.215 75.1688 176.065 75.3288 175.86 75.3796C175.682 75.4245 175.504 75.3765 175.372 75.2675C175.266 75.1791 175.13 75.1388 174.997 75.1726L174.336 75.3372C174.197 75.3717 174.128 75.529 174.198 75.6532C174.459 76.1126 175.059 76.3536 175.663 76.2031C176.267 76.0526 176.681 75.5598 176.691 75.0321C176.693 74.8895 176.559 74.783 176.418 74.8174Z" fill="#64C676"/>
<path d="M175.663 76.203C176.017 76.1144 176.304 75.9093 176.484 75.6496C176.117 75.7206 175.785 75.9324 175.401 75.9321C175.126 75.9322 174.827 75.9032 174.594 75.7299C174.564 75.7073 174.308 75.4916 174.229 75.3914C174.164 75.452 174.143 75.5527 174.19 75.6374C174.445 76.108 175.052 76.3556 175.663 76.203Z" fill="#57B565"/>
<path d="M175.775 75.2084C175.936 75.2266 176.082 75.1108 176.1 74.95C176.118 74.7891 176.002 74.644 175.84 74.6259C175.678 74.6078 175.532 74.7235 175.514 74.8844C175.496 75.0453 175.613 75.1903 175.775 75.2084Z" fill="#9BC9DD"/>
<path d="M175.879 74.6332C175.881 74.6527 175.888 74.6711 175.9 74.6872C175.933 74.7293 175.973 74.7868 175.984 74.8338C175.988 74.849 175.992 74.8656 175.993 74.882C175.993 74.882 175.993 74.882 175.993 74.8849L175.992 74.8951C175.992 74.8951 175.993 74.91 175.992 74.9173C175.992 74.9173 175.99 74.942 175.99 74.9362C175.991 74.9304 175.985 74.9548 175.985 74.9548C175.981 74.9676 175.973 74.9873 175.971 74.993C175.946 75.0389 175.903 75.0827 175.86 75.1089C175.799 75.1463 175.745 75.1639 175.68 75.1801C175.68 75.1801 175.678 75.18 175.677 75.1813C175.71 75.1983 175.749 75.2086 175.789 75.2115C175.951 75.2208 176.091 75.0979 176.102 74.9368C176.11 74.7933 176.014 74.669 175.879 74.6347L175.879 74.6332Z" fill="#70A0B4"/>
<path d="M176.036 77.3246C176.318 77.2516 176.535 77.0578 176.651 76.8145C176.611 76.813 176.572 76.8189 176.536 76.8384C176.366 76.9241 176.19 76.9898 176.004 77.0338C175.922 77.0526 175.85 77.0711 175.769 77.0619C175.754 77.0603 175.752 77.0601 175.763 77.0613C175.754 77.0603 175.747 77.058 175.738 77.0556C175.718 77.0504 175.698 77.0452 175.678 77.0385C175.641 77.027 175.628 77.0211 175.604 77.0111C175.458 76.9388 175.368 76.8698 175.262 76.7445C175.253 76.7331 175.251 76.7315 175.259 76.7427C175.254 76.7362 175.25 76.7299 175.245 76.7234C175.233 76.7074 175.222 76.6899 175.21 76.6739C175.191 76.6452 175.174 76.6139 175.158 76.5841C174.993 76.6569 174.938 76.8703 175.059 77.0164C175.288 77.2895 175.663 77.4228 176.032 77.3271L176.036 77.3246Z" fill="#7EAFC5"/>
<path d="M176.831 77.6434C176.814 77.5811 176.722 77.5457 176.59 77.5383C176.618 77.5782 176.667 77.6132 176.643 77.6591C176.631 77.6814 176.61 77.7026 176.592 77.7197C176.511 77.7991 176.404 77.8564 176.305 77.9057C176.1 78.0064 175.866 77.9891 175.643 78.0009C175.727 78.0811 175.989 78.0883 176.28 78.0133C176.616 77.9257 176.863 77.7603 176.831 77.6419L176.831 77.6434Z" fill="#57B565"/>
<path d="M283.227 91.1429H72.2983C70.4024 91.1429 68.8602 89.6007 68.8602 87.7047C68.8602 85.8088 70.4024 84.2666 72.2983 84.2666H283.227C285.123 84.2666 286.665 85.8088 286.665 87.7047C286.665 89.6007 285.123 91.1429 283.227 91.1429Z" fill="#BDB2C2"/>
</svg>
