<svg width="138" height="210" viewBox="0 0 138 210" fill="none" xmlns="http://www.w3.org/2000/svg">
<g clip-path="url(#clip0_10_5033)">
<path d="M67.8652 35.7137L5.36456 43.4159L38.8287 206.469C39.2988 210.314 61.6971 210.715 88.8597 207.368C116.022 204.021 137.658 198.193 137.188 194.348L130.36 28.0115L67.8589 35.7137H67.8652Z" fill="#D2F0F7"/>
<g style="mix-blend-mode:color-burn" opacity="0.25">
<path d="M75.0815 94.7235C45.6257 98.3514 20.6991 97.3185 15.4584 92.5875L27.782 152.643C32.4636 157.489 55.4146 158.809 82.5137 155.474C109.613 152.133 131.56 145.279 134.933 139.438L132.418 78.1714C128.473 84.0373 104.537 91.0955 75.0815 94.7235Z" fill="#191818"/>
</g>
<g style="mix-blend-mode:color-burn" opacity="0.25">
<path d="M5.36456 43.4159L6.66679 49.76C15.0328 52.559 39.5274 51.067 69.2945 47.4009C99.0552 43.7347 123.188 39.2332 130.626 34.4831L130.36 28.0115L67.8589 35.7137L5.36456 43.4159Z" fill="#191818"/>
</g>
<path d="M131.331 13.2063L0.854401 29.2866L3.12854 43.4158C3.8527 49.3199 32.4001 48.0957 68.8308 43.6007C105.261 39.112 133.256 33.3736 132.532 27.463L131.331 13.2V13.2063Z" fill="#D2F0F7"/>
<path d="M67.4042 31.9425C103.434 27.5021 132.056 19.1141 131.334 13.2074C130.611 7.30063 100.817 6.11191 64.7875 10.5523C28.7577 14.9927 0.135561 23.3806 0.858127 29.2874C1.58069 35.1941 31.3744 36.3829 67.4042 31.9425Z" fill="white"/>
<path d="M121.53 3.5596L8.03894 17.5421L8.3375 25.2125C8.80757 29.0572 34.8776 29.0062 66.563 25.1041C98.2485 21.202 123.556 14.9152 123.086 11.0705L121.53 3.55322V3.5596Z" fill="#D2F0F7"/>
<path d="M121.53 3.55961C122 7.40433 96.978 13.6528 65.6355 17.5166C34.2931 21.3805 8.50897 21.3932 8.0389 17.5485C7.56882 13.7038 32.5907 7.45534 63.9331 3.59149C95.2756 -0.272357 121.06 -0.285109 121.53 3.55961Z" fill="white"/>
<path d="M109.155 5.0834C109.327 6.48612 103.642 8.33515 96.4634 9.22142C89.279 10.1077 83.3205 9.68686 83.149 8.28415C82.9774 6.88143 88.6628 5.03239 95.8409 4.14613C103.019 3.25987 108.984 3.68068 109.155 5.0834Z" fill="#D2F0F7"/>
<g style="mix-blend-mode:color-burn" opacity="0.25">
<path d="M85.62 9.44468C88.0466 9.82086 92.0168 9.76986 96.4634 9.22152C100.91 8.67319 104.772 7.75504 107.04 6.80502C104.613 6.42884 100.643 6.47985 96.1966 7.02818C91.75 7.57652 87.8878 8.49466 85.62 9.44468Z" fill="#191818"/>
</g>
<path d="M132.621 74.5178C131.23 80.5814 106.125 88.3218 74.7702 92.1921C43.4151 96.0559 17.1863 94.6404 14.3785 89.0933C14.315 89.3675 14.2959 89.6225 14.3277 89.8839C14.3404 89.9987 14.3595 90.1071 14.3912 90.2155L26.6131 148.467C27.3691 154.632 52.2512 156.634 82.2024 152.942C112.154 149.251 135.816 141.268 135.06 135.102L132.875 75.6145C132.875 75.4997 132.875 75.3913 132.862 75.2766C132.831 75.0151 132.748 74.7729 132.621 74.5242V74.5178Z" fill="#9BC9DD"/>
<mask id="mask0_10_5033" style="mask-type:luminance" maskUnits="userSpaceOnUse" x="14" y="74" width="122" height="81">
<path d="M132.621 74.5178C131.23 80.5814 106.125 88.3218 74.7702 92.1921C43.4151 96.0559 17.1863 94.6404 14.3785 89.0933C14.315 89.3675 14.2959 89.6225 14.3277 89.8839C14.3404 89.9987 14.3595 90.1071 14.3912 90.2155L26.6131 148.467C27.3691 154.632 52.2512 156.634 82.2024 152.942C112.154 149.251 135.816 141.268 135.06 135.102L132.875 75.6145C132.875 75.4997 132.875 75.3913 132.862 75.2766C132.831 75.0151 132.748 74.7729 132.621 74.5242V74.5178Z" fill="white"/>
</mask>
<g mask="url(#mask0_10_5033)">
<path d="M73.8311 81.8952L73.2006 81.9729L82.6863 159.516L83.3168 159.438L73.8311 81.8952Z" fill="#F9F6F4"/>
<path d="M90.4991 79.8472L89.8673 79.9138L98.0033 157.611L98.6351 157.544L90.4991 79.8472Z" fill="#F9F6F4"/>
<path d="M107.85 77.7739L107.216 77.8184L112.646 155.753L113.28 155.709L107.85 77.7739Z" fill="#F9F6F4"/>
<path d="M125.199 75.7365L124.565 75.7588L127.281 153.836L127.916 153.814L125.199 75.7365Z" fill="#F9F6F4"/>
<path d="M57.1647 83.9459L56.5356 84.0347L67.3682 161.399L67.9972 161.311L57.1647 83.9459Z" fill="#F9F6F4"/>
<path d="M39.8305 86.1166L39.2049 86.2273L52.7209 163.165L53.3465 163.055L39.8305 86.1166Z" fill="#F9F6F4"/>
<path d="M22.4983 88.3374L21.877 88.47L38.0598 164.888L38.6812 164.755L22.4983 88.3374Z" fill="#F9F6F4"/>
</g>
<path d="M132.837 75.1555C132.837 75.1236 132.818 75.0853 132.812 75.0535C132.799 74.9897 132.78 74.9196 132.761 74.8558C132.723 74.7474 132.678 74.6326 132.627 74.5242C132.532 74.333 132.405 74.1417 132.246 73.9568L132.303 75.3085C129.057 81.2382 104.791 88.494 74.7703 92.1921C44.7555 95.8902 19.4542 94.7425 14.8805 89.782L14.6073 88.4558C14.4993 88.6726 14.4231 88.883 14.3786 89.0998C14.3532 89.2145 14.3342 89.3357 14.3278 89.4504C14.3278 89.5206 14.3278 89.5843 14.3278 89.6545C14.3278 89.6863 14.3278 89.7246 14.3278 89.7565C14.3278 89.7947 14.3278 89.8394 14.3278 89.8776C15.0837 96.0368 42.2273 97.7647 74.9609 93.7287C107.694 89.6927 133.618 81.4294 132.862 75.2702C132.862 75.232 132.843 75.1937 132.837 75.1491V75.1555Z" fill="#D2F0F7"/>
<g style="mix-blend-mode:color-burn" opacity="0.25">
<path d="M132.837 75.1555C132.837 75.1236 132.818 75.0853 132.812 75.0535C132.799 74.9897 132.78 74.9196 132.761 74.8558C132.723 74.7474 132.678 74.6326 132.627 74.5242C132.532 74.333 132.405 74.1417 132.246 73.9568L132.303 75.3085C129.057 81.2382 104.791 88.494 74.7703 92.1921C44.7555 95.8902 19.4542 94.7425 14.8805 89.782L14.6073 88.4558C14.4993 88.6726 14.4231 88.883 14.3786 89.0998C14.3532 89.2145 14.3342 89.3357 14.3278 89.4504C14.3278 89.5206 14.3278 89.5843 14.3278 89.6545C14.3278 89.6863 14.3278 89.7246 14.3278 89.7565C14.3278 89.7947 14.3278 89.8394 14.3278 89.8776C15.0837 96.0368 42.2273 97.7647 74.9609 93.7287C107.694 89.6927 133.618 81.4294 132.862 75.2702C132.862 75.232 132.843 75.1937 132.837 75.1491V75.1555Z" fill="#191818"/>
</g>
<path d="M98.1751 134.949C104.524 124.092 100.902 110.125 90.085 103.753C79.2684 97.3802 65.3531 101.016 59.0045 111.873C52.6558 122.73 56.2779 136.697 67.0946 143.069C77.9112 149.441 91.8265 145.806 98.1751 134.949Z" fill="#FEFCFC"/>
<path d="M73.2955 126.179C71.5653 126.841 71.1261 129.077 72.4703 130.36C74.7994 132.583 78.2996 133.403 81.5204 132.172C84.7412 130.942 86.7775 127.992 86.9904 124.79C87.1102 122.951 85.2869 121.575 83.5567 122.25C83.4768 122.276 78.2464 124.287 78.1666 124.314C78.1 124.34 73.362 126.153 73.2955 126.179Z" fill="#9BC9DD"/>
<path d="M84.4128 138.126C87.3407 137.002 89.3924 135.262 88.9953 134.24C88.5982 133.217 85.9027 133.299 82.9748 134.423C80.0468 135.547 77.9951 137.286 78.3922 138.309C78.7893 139.331 81.4848 139.249 84.4128 138.126Z" fill="#64C676"/>
<path d="M82.4387 109.272C81.76 109.523 81.2675 110.132 81.1744 110.859C80.9614 112.632 79.7769 114.22 77.9935 114.881C76.4364 115.463 74.786 115.212 73.4951 114.365C72.457 113.677 71.1926 113.452 70.0347 113.889L64.2586 116.032C63.0475 116.482 62.5817 117.964 63.3403 119.009C66.1485 122.872 71.7782 124.433 77.0486 122.475C82.3189 120.517 85.5397 115.675 85.1005 110.925C84.9807 109.642 83.6632 108.822 82.4387 109.272Z" fill="#64C676"/>
<path d="M77.0486 122.475C80.1363 121.324 82.5053 119.194 83.8628 116.68C80.642 117.686 77.8738 119.922 74.4267 120.305C71.9513 120.583 69.2362 120.623 66.9737 119.3C66.6809 119.128 64.1655 117.448 63.3536 116.627C62.8346 117.236 62.7414 118.162 63.2472 118.877C66.0154 122.845 71.7117 124.46 77.0486 122.475Z" fill="#57B565"/>
<path d="M77.0486 113.425C78.5186 113.425 79.7104 112.241 79.7104 110.78C79.7104 109.318 78.5186 108.134 77.0486 108.134C75.5785 108.134 74.3867 109.318 74.3867 110.78C74.3867 112.241 75.5785 113.425 77.0486 113.425Z" fill="#9BC9DD"/>
<path d="M77.4079 108.16C77.4479 108.332 77.5277 108.491 77.6475 108.623C77.9935 108.967 78.4061 109.443 78.5525 109.854C78.6058 109.986 78.659 110.131 78.6856 110.277C78.6856 110.277 78.6856 110.277 78.6856 110.303V110.396C78.6856 110.396 78.7122 110.528 78.7122 110.594C78.7122 110.594 78.7122 110.819 78.7122 110.766C78.7122 110.714 78.6856 110.938 78.6856 110.938C78.659 111.057 78.6058 111.243 78.5924 111.296C78.4194 111.732 78.0734 112.169 77.714 112.447C77.2083 112.844 76.7425 113.055 76.1702 113.267C76.1702 113.267 76.1569 113.267 76.1436 113.28C76.463 113.399 76.8223 113.452 77.1817 113.439C78.6457 113.359 79.7769 112.116 79.7104 110.661C79.6439 109.364 78.659 108.345 77.4079 108.173V108.16Z" fill="#70A0B4"/>
<path d="M81.5205 132.173C83.9826 131.233 85.7394 129.275 86.538 126.973C86.1786 127 85.8326 127.092 85.5265 127.304C84.0891 128.243 82.5719 129.011 80.9482 129.593C80.2295 129.844 79.604 130.082 78.8587 130.082C78.7256 130.082 78.7123 130.082 78.8054 130.082C78.7256 130.082 78.659 130.069 78.5792 130.056C78.3929 130.029 78.2065 130.003 78.0202 129.963C77.6742 129.897 77.5544 129.857 77.3281 129.791C75.944 129.288 75.0656 128.759 73.9876 127.741C73.8944 127.648 73.8811 127.635 73.961 127.727C73.9077 127.674 73.8678 127.621 73.8146 127.569C73.6948 127.436 73.575 127.291 73.4552 127.158C73.2556 126.92 73.0693 126.656 72.8962 126.404C71.4855 127.225 71.206 129.196 72.4437 130.386C74.7728 132.609 78.2731 133.429 81.4939 132.199L81.5205 132.173Z" fill="#7EAFC5"/>
<path d="M88.9869 134.236C88.7739 133.694 87.9088 133.469 86.711 133.535C87.0038 133.866 87.483 134.13 87.3099 134.567C87.2301 134.779 87.0571 134.99 86.9107 135.162C86.2718 135.956 85.3668 136.578 84.5284 137.12C82.7849 138.232 80.6687 138.311 78.6724 138.642C79.5109 139.277 81.8666 139.078 84.4086 138.112C87.3366 136.988 89.3861 135.255 88.9869 134.223V134.236Z" fill="#57B565"/>
</g>
<defs>
<clipPath id="clip0_10_5033">
<rect width="136.353" height="208.954" fill="white" transform="translate(0.841675 0.684082)"/>
</clipPath>
</defs>
</svg>
