<svg width="535" height="638" viewBox="0 0 535 638" fill="none" xmlns="http://www.w3.org/2000/svg">
<g opacity="0.19" clip-path="url(#clip0_24_37)">
<path d="M419.043 658.14C487.676 659.236 544.216 604.487 545.329 535.855C546.442 467.223 491.707 410.697 423.074 409.601C354.442 408.504 297.902 463.253 296.788 531.885C295.675 600.518 350.411 657.044 419.043 658.14Z" fill="#6DC1BB"/>
<g style="mix-blend-mode:screen" opacity="0.2">
<path d="M452.338 601.857C389.079 622.104 321.405 587.269 301.187 524.03C300.119 520.643 299.191 517.259 298.418 513.862C303.486 482.759 320.317 453.556 347.797 433.496C403.24 393.017 480.984 405.141 521.449 460.574C527.424 468.771 532.254 477.441 535.955 486.43C536.346 537.642 503.713 585.407 452.352 601.843L452.338 601.857Z" fill="#6DC1BB"/>
</g>
<g style="mix-blend-mode:screen" opacity="0.2">
<path d="M461.755 534.598C402.504 553.561 339.236 522.419 317.72 464.747C325.592 452.952 335.649 442.33 347.769 433.467C403.213 392.989 480.956 405.112 521.421 460.545C524.856 465.233 527.908 470.098 530.565 475.097C517.175 502.487 493.046 524.553 461.741 534.583L461.755 534.598Z" fill="#6DC1BB"/>
</g>
<g style="mix-blend-mode:multiply" opacity="0.28">
<path d="M353.501 546.685C350.583 548.239 347.239 544.928 343.962 545.283C339.7 545.734 336.522 552.128 332.706 550.158C330.019 548.781 329.496 543.816 326.485 544.189C325.303 544.339 324.444 545.392 323.422 546.05C319.521 548.529 314.741 544.563 310.142 544.153C307.815 543.947 305.542 544.683 303.34 545.434C301.618 545.996 299.895 546.587 298.173 547.149C297.847 547.326 297.48 547.461 297.128 547.497C297.072 547.524 297.001 547.537 296.945 547.565C296.945 547.565 296.945 547.536 296.946 547.508C296.004 547.535 295.086 547.015 294.826 545.719C294.41 543.663 294.695 541.674 294.827 539.612C294.976 537.368 294.11 535.36 294.806 533.139C295.101 532.217 295.898 531.555 296.869 531.473C296.869 531.473 296.869 531.445 296.87 531.417C296.813 531.416 296.743 531.4 296.687 531.4C296.744 531.344 296.815 531.331 296.871 531.304C300.906 529.249 305.174 527.576 309.059 525.251C310.292 524.498 311.542 523.648 312.167 522.352C312.777 521.098 312.702 519.651 312.837 518.249C313.395 512.431 317.757 507.516 322.913 504.734C328.054 501.966 333.94 500.937 339.713 499.962C337.339 497.425 334.779 494.21 335.704 490.855C336.076 489.556 336.937 488.418 337.184 487.074C337.826 483.799 334.766 481.152 332.759 478.509C328.045 472.27 329.075 462.429 334.999 457.301C336.537 455.978 338.527 454.465 338.152 452.479C337.958 451.479 337.349 450.908 336.526 450.572C335.962 450.703 335.404 450.526 334.974 450.168C334.68 450.121 334.372 450.088 334.035 450.055C334.178 449.916 334.32 449.778 334.463 449.64C334.065 449.058 333.951 448.312 334.411 447.674C339.997 440.026 348.756 434.115 356.85 429.344C366.533 423.644 377.141 421.44 387.363 417.124C388.635 416.583 390.65 416.98 390.876 418.669C391.05 420.02 391.164 420.794 390.745 421.531C392.804 425.313 395.661 428.349 399.801 429.314C401.76 429.766 403.825 429.701 405.724 430.321C407.638 430.955 409.464 432.613 409.277 434.618C409.19 435.67 408.571 436.601 408.106 437.548C406.566 440.753 406.922 444.774 408.982 447.643C404.624 450.536 399.676 443.998 394.44 443.901C389.555 443.823 386.411 449.796 387.5 454.545C387.763 455.644 388.179 456.788 387.993 457.909C387.836 458.889 387.233 459.722 386.63 460.527C384.879 462.885 383.128 465.244 381.391 467.618C386.053 464.098 390.729 460.592 395.392 457.072C395.975 456.618 396.6 456.179 397.319 456.008C400.278 455.325 401.821 459.772 400.61 462.575C399.413 465.364 396.877 467.626 396.534 470.64C396.025 475.139 400.605 479.326 399.327 483.658C398.346 487.012 393.942 488.458 390.734 487.143C387.498 485.828 385.488 482.496 384.672 479.113C382.926 478.594 381.499 480.86 381.793 482.648C382.087 484.435 383.284 485.957 383.789 487.706C384.294 489.455 383.595 491.873 381.767 492.012C378.713 490.714 376.214 488.105 375.043 484.983C374.733 484.178 374.481 483.289 373.816 482.773C372.041 481.369 369.759 483.579 368.05 485.068C363.165 489.3 354.246 486.911 352.141 480.798C351.323 478.412 351.409 475.704 350.138 473.535C348.854 471.352 345.177 470.353 343.99 472.58C341.645 476.924 341.858 482.824 345.783 485.821C346.879 486.639 348.281 487.63 348.02 488.988C347.851 489.898 346.971 490.474 346.287 491.109C343.891 493.373 343.814 497.289 345.141 500.315C346.439 503.341 348.844 505.738 350.993 508.243C353.736 511.446 356.257 515.249 356.217 519.489C356.19 523.715 352.581 528.094 348.393 527.48C350.836 530.917 352.882 534.656 354.461 538.599C355.553 541.382 356.051 545.293 353.417 546.683L353.501 546.685ZM454.853 485.71C458.339 482.887 461.597 479.401 465.939 478.319C470.38 477.225 475.254 478.833 479.561 477.287C481.99 476.427 484.013 474.662 486.401 473.732C492.308 471.383 499.32 474.486 505.241 472.151C509.735 470.37 512.233 466.099 513.812 461.364C515.75 458.742 515.255 453.777 513.358 451.248C506.103 441.528 494.294 435.471 483.779 430.178C472.443 424.465 461.841 420.195 449.479 417.134C438.822 414.492 427.844 410.919 416.771 412.357C415.153 412.57 414.888 415.065 416.266 415.775C417.102 416.209 417.506 416.398 418.082 416.337C424.219 420.648 429.06 426.847 431.543 433.949C432.053 435.361 432.519 436.927 433.727 437.803C435.53 439.151 438.818 439.035 439.147 441.259C439.236 441.78 439.073 442.325 438.938 442.842C437.331 448.433 435.738 454.01 434.146 459.587C433.64 461.32 433.119 463.122 432.015 464.579C431.197 465.647 430.102 466.486 429.008 467.297C423.621 471.325 418.221 475.339 412.834 479.366C414.277 482.998 419.051 483.875 422.933 483.459C426.815 483.044 430.933 481.93 434.501 483.56C437.498 484.913 439.484 487.992 442.539 489.206C446.711 490.831 451.368 488.505 454.854 485.682L454.853 485.71ZM412.235 595.094C409.824 590.465 412.418 584.665 416.114 580.975C418.812 578.28 422.444 575.095 421.239 571.481C420.488 569.251 418.177 568.063 416.247 566.726C413.456 564.814 411.085 562.08 410.197 558.823C409.296 555.551 410.088 551.716 412.637 549.497C410.176 548.011 409.824 544.594 407.765 542.553C405.913 540.726 402.936 540.791 400.596 539.63C397.922 538.296 396.171 535.404 393.322 534.488C389.662 533.334 385.97 535.886 382.982 538.31C382.513 538.682 382.043 539.081 381.823 539.625C381.574 540.281 381.731 541.014 381.79 541.703C381.98 543.812 381.116 546.002 379.563 547.424C378.836 548.072 377.957 548.62 377.48 549.469C376.843 550.61 377.101 552.018 377.375 553.3C378.328 557.766 379.402 562.501 382.578 565.809C384.442 567.734 387.163 569.687 386.628 572.333C386.521 572.907 386.245 573.45 386.292 574.04C384.723 573.79 381.775 572.887 380.265 573.382C379.771 573.557 379.262 573.773 378.904 574.175C378.075 575.088 378.375 576.511 378.566 577.736C378.897 579.819 378.805 582.008 377.876 583.903C376.961 585.784 375.125 587.313 373.03 587.462C371.442 587.591 369.781 586.961 368.284 587.498C368.284 587.498 354.834 597.786 354.796 607.108C354.789 608.358 352.247 607.559 352.254 608.823C352.248 610.072 353.271 611.1 354.384 611.679C355.108 612.056 355.905 612.307 356.702 612.474C357.752 612.702 358.845 612.803 359.924 612.919C361.088 613.036 362.251 613.153 363.401 613.255C366.569 613.559 369.878 613.864 372.845 612.704C375.248 611.76 376.419 609.658 378.979 609.39C379.223 608.187 380.9 607.834 382 608.371C383.115 608.895 383.856 609.945 384.784 610.761C388.037 613.607 393.808 612.716 396.058 609.017C397.039 607.404 397.438 605.36 398.889 604.148C401.139 602.246 404.506 603.269 407.388 603.933C410.255 604.582 414.223 604.056 414.79 601.159C415.205 598.961 413.297 597.133 412.262 595.151L412.235 595.094ZM504.266 621.402C510.961 614.671 516.971 607.663 522.132 600.262C523.151 598.888 524.143 597.486 525.051 596.054C525.756 594.956 526.392 593.843 526.958 592.715C532.718 582.964 536.989 572.446 539.411 560.788C539.958 558.185 537.626 556.548 535.59 557.386C534.166 556.914 532.741 556.498 531.271 556.207C530.683 556.086 530.039 555.991 529.445 556.234C528.654 556.559 528.191 557.394 527.674 558.088C526.037 560.336 523.193 561.681 520.515 561.455C515.79 561.057 511.556 556.286 507.141 558.434C505.91 559.018 504.91 560.097 503.625 560.512C501.268 561.274 498.966 559.525 497.692 557.524C496.405 555.538 495.601 553.166 493.757 551.691C490.444 549.04 484.824 550.144 481.883 547.106C483.141 545.694 484.622 544.454 486.252 543.512C483.951 541.65 485.43 537.04 484.309 534.284C483.35 531.952 480.785 530.816 478.427 529.894C473.447 527.918 468.438 525.943 463.471 523.982C461.351 523.134 458.95 522.281 456.731 523.187C456.236 523.389 455.768 523.677 455.508 524.122C454.873 525.179 455.695 526.427 456.539 527.213C458.903 529.483 461.739 531.242 464.852 532.373C465.926 532.769 467.044 533.096 467.917 533.797C468.791 534.499 469.432 535.675 469.09 536.807C468.704 538.121 467.154 539.345 467.668 540.533C468.006 541.311 469.166 541.68 469.123 542.55C469.116 542.999 468.773 543.387 468.444 543.733C467.116 545.13 465.76 546.498 464.431 547.895C462.312 547.875 459.974 547.402 457.855 547.355C454.163 547.282 450.081 547.062 447.681 544.412C446.757 543.4 446.188 542.128 445.349 541.033C442.654 537.508 437.812 536.504 433.758 534.572C429.02 532.334 424.294 528.509 419.046 530.054C418.679 530.161 418.284 530.323 418.012 530.613C417.383 531.334 417.773 532.393 418.266 533.131C420.184 536.11 423.024 538.444 426.257 539.928C427.888 540.67 429.621 541.203 431.05 542.251C432.494 543.257 433.632 544.918 433.434 546.74C433.338 547.496 433.045 548.25 432.948 549.007C432.656 551.445 434.577 553.343 436.321 554.887C438.854 557.132 441.387 559.377 443.948 561.622C445.844 563.295 440.691 568.535 438.127 568.199C435.535 567.862 433.187 566.295 430.569 566.674C427.164 567.153 424.959 570.614 423.267 573.662C420.664 578.338 418.06 583.042 415.471 587.733C415.167 588.275 414.863 588.846 414.811 589.449C414.572 592.085 418.513 592.358 421.001 591.303C423.475 590.261 426.961 589.18 428.174 591.432C428.623 592.295 428.493 593.416 428.758 594.375C429.474 596.97 432.732 597.823 434.156 600.064C435.881 602.787 434.459 606.457 433.466 609.685C432.487 612.899 432.46 617.209 435.473 618.38C437.873 619.317 441.199 617.699 443.095 619.428C443.703 620 444.041 620.834 444.153 621.692C445.055 627.533 438.337 634.011 441.161 639.097C441.762 640.145 442.716 641.045 442.794 642.268C442.86 643.392 442.141 644.448 441.605 645.464C440.433 647.622 439.861 649.999 439.78 652.399C439.663 652.678 439.531 652.999 439.413 653.362C439.132 654.242 439.355 655.215 439.949 655.828C441.33 657.254 442.677 657.275 444.216 656.752C444.427 656.77 444.679 656.774 444.919 656.736C468.286 653.065 487.68 638.099 504.294 621.403L504.266 621.402Z" fill="#6DC1BB"/>
</g>
<path d="M353.583 541.603C350.666 543.157 347.322 539.846 344.044 540.201C339.783 540.653 336.604 547.047 332.789 545.076C330.101 543.699 329.578 538.735 326.567 539.108C325.385 539.257 324.526 540.311 323.504 540.968C319.603 543.447 314.823 539.482 310.224 539.071C307.897 538.866 305.625 539.602 303.422 540.353C301.7 540.915 299.977 541.505 298.255 542.067C297.929 542.245 297.562 542.379 297.211 542.416C297.154 542.443 297.084 542.456 297.027 542.483C297.027 542.483 297.027 542.455 297.028 542.427C296.087 542.454 295.168 541.934 294.909 540.638C294.493 538.581 294.778 536.592 294.909 534.53C295.058 532.286 294.192 530.279 294.902 528.072C295.198 527.15 295.995 526.488 296.965 526.406C296.965 526.406 296.965 526.377 296.966 526.349C296.91 526.348 296.84 526.333 296.783 526.332C296.841 526.277 296.911 526.264 296.968 526.237C301.003 524.181 305.27 522.509 309.155 520.184C310.389 519.431 311.638 518.581 312.263 517.285C312.873 516.031 312.798 514.583 312.933 513.182C313.491 507.364 317.853 502.449 323.009 499.667C328.151 496.899 334.036 495.869 339.809 494.895C337.435 492.357 334.875 489.143 335.8 485.788C336.173 484.488 337.033 483.351 337.28 482.007C337.923 478.732 334.863 476.085 332.856 473.442C328.141 467.202 329.171 457.362 335.095 452.234C336.633 450.91 338.623 449.398 338.248 447.412C338.054 446.412 337.445 445.841 336.622 445.505C336.058 445.636 335.5 445.459 335.07 445.101C334.776 445.054 334.468 445.021 334.131 444.987C334.274 444.849 334.417 444.711 334.559 444.573C334.162 443.991 334.047 443.245 334.507 442.607C340.093 434.959 348.852 429.048 356.947 424.277C366.629 418.576 377.237 416.373 387.459 412.057C388.731 411.516 390.733 411.899 390.972 413.602C391.147 414.952 391.26 415.726 390.841 416.464C392.9 420.246 395.757 423.282 399.898 424.247C401.856 424.699 403.921 424.634 405.821 425.254C407.734 425.888 409.56 427.546 409.373 429.551C409.286 430.603 408.667 431.533 408.203 432.481C406.662 435.686 407.018 439.707 409.078 442.576C404.72 445.469 399.772 438.931 394.536 438.834C389.651 438.756 386.508 444.729 387.596 449.478C387.859 450.577 388.276 451.721 388.089 452.842C387.933 453.822 387.329 454.655 386.727 455.459C384.975 457.818 383.224 460.177 381.487 462.551C386.149 459.031 390.826 455.525 395.488 452.005C396.071 451.551 396.696 451.112 397.415 450.941C400.374 450.258 401.917 454.705 400.706 457.508C399.51 460.297 396.974 462.559 396.63 465.572C396.122 470.071 400.701 474.258 399.423 478.591C398.442 481.945 394.038 483.391 390.83 482.076C387.594 480.761 385.584 477.429 384.768 474.046C383.022 473.527 381.595 475.793 381.889 477.581C382.183 479.368 383.38 480.89 383.885 482.639C384.39 484.388 383.691 486.806 381.863 486.945C378.81 485.647 376.31 483.037 375.14 479.916C374.83 479.111 374.577 478.222 373.912 477.706C372.137 476.301 369.855 478.512 368.146 480.001C363.261 484.233 354.342 481.844 352.237 475.731C351.419 473.345 351.505 470.636 350.234 468.468C348.95 466.285 345.273 465.286 344.086 467.513C341.741 471.857 341.954 477.757 345.879 480.754C346.975 481.572 348.377 482.563 348.116 483.921C347.947 484.831 347.067 485.407 346.383 486.042C343.987 488.306 343.91 492.222 345.251 495.234C346.55 498.26 348.954 500.657 351.104 503.162C353.846 506.365 356.368 510.169 356.327 514.408C356.301 518.634 352.691 523.013 348.503 522.399C350.947 525.836 352.992 529.575 354.571 533.518C355.663 536.301 356.161 540.212 353.527 541.602L353.583 541.603ZM454.936 480.629C458.421 477.806 461.679 474.32 466.021 473.238C470.462 472.143 475.336 473.752 479.644 472.206C482.073 471.346 484.095 469.581 486.483 468.65C492.39 466.302 499.402 469.404 505.323 467.07C509.817 465.288 512.315 461.018 513.894 456.283C515.833 453.66 515.337 448.696 513.441 446.167C506.185 436.447 494.377 430.389 483.862 425.096C472.525 419.383 461.923 415.114 449.561 412.052C438.905 409.411 427.927 405.838 416.853 407.276C415.235 407.488 414.97 409.983 416.349 410.693C417.184 411.128 417.588 411.317 418.165 411.256C424.301 415.566 429.143 421.765 431.625 428.867C432.136 430.28 432.602 431.846 433.809 432.721C435.612 434.07 438.9 433.954 439.229 436.178C439.319 436.699 439.155 437.244 439.021 437.761C437.414 443.352 435.821 448.928 434.228 454.505C433.723 456.238 433.202 458.041 432.097 459.498C431.279 460.566 430.185 461.405 429.09 462.216C423.704 466.244 418.303 470.257 412.916 474.285C414.36 477.917 419.133 478.793 423.015 478.378C426.897 477.962 431.015 476.849 434.583 478.478C437.58 479.832 439.566 482.91 442.621 484.125C446.793 485.75 451.45 483.423 454.936 480.601L454.936 480.629ZM412.317 590.013C409.907 585.383 412.5 579.584 416.197 575.894C418.894 573.199 422.526 570.014 421.321 566.4C420.571 564.17 418.259 562.981 416.329 561.645C413.538 559.733 411.168 556.999 410.28 553.741C409.378 550.47 410.17 546.635 412.72 544.415C410.258 542.93 409.907 539.512 407.848 537.472C405.996 535.645 403.018 535.709 400.678 534.549C398.004 533.214 396.254 530.322 393.404 529.406C389.744 528.252 386.052 530.805 383.064 533.229C382.595 533.6 382.125 534 381.906 534.544C381.656 535.2 381.813 535.932 381.872 536.621C382.063 538.731 381.199 540.921 379.645 542.342C378.932 543.005 378.039 543.538 377.562 544.387C376.926 545.528 377.184 546.937 377.458 548.219C378.41 552.685 379.485 557.42 382.661 560.728C384.525 562.653 387.245 564.606 386.711 567.251C386.603 567.825 386.328 568.368 386.374 568.959C384.806 568.709 381.858 567.806 380.347 568.301C379.853 568.476 379.344 568.692 378.987 569.094C378.157 570.007 378.457 571.43 378.648 572.654C378.979 574.738 378.888 576.927 377.958 578.821C377.043 580.702 375.207 582.231 373.113 582.381C371.524 582.51 369.863 581.879 368.366 582.417C368.366 582.417 354.917 592.705 354.878 602.027C354.872 603.277 352.329 602.478 352.337 603.742C352.331 604.991 353.353 606.018 354.467 606.598C355.191 606.974 355.987 607.226 356.785 607.393C357.834 607.62 358.928 607.722 360.007 607.838C361.17 607.954 362.334 608.071 363.484 608.174C366.652 608.477 369.96 608.783 372.928 607.623C375.33 606.678 376.501 604.577 379.061 604.309C379.305 603.105 380.982 602.753 382.083 603.29C383.197 603.813 383.938 604.864 384.866 605.679C388.119 608.525 393.891 607.635 396.141 603.936C397.122 602.323 397.52 600.279 398.972 599.067C401.221 597.165 404.588 598.188 407.47 598.851C410.338 599.501 414.306 598.975 414.872 596.077C415.287 593.879 413.379 592.052 412.344 590.07L412.317 590.013ZM510.715 622.895C517.395 616.15 523.364 609.127 528.429 601.598C529.434 600.21 530.398 598.779 531.306 597.347C531.998 596.235 532.606 595.093 533.158 593.951C538.767 584.043 542.802 573.283 544.879 561.269C545.343 558.58 542.887 556.814 540.796 557.595C539.316 557.066 537.808 556.565 536.283 556.217C535.668 556.067 535.01 555.958 534.402 556.187C533.597 556.497 533.134 557.332 532.631 558.04C531.022 560.317 528.123 561.605 525.348 561.28C520.443 560.696 515.878 555.582 511.394 557.659C510.135 558.215 509.149 559.308 507.837 559.694C505.424 560.4 502.984 558.508 501.586 556.379C500.188 554.279 499.26 551.779 497.292 550.175C493.758 547.296 487.986 548.243 484.824 544.977C486.068 543.551 487.563 542.325 489.22 541.411C486.768 539.392 488.122 534.654 486.863 531.755C485.794 529.309 483.091 528.03 480.622 526.994C475.393 524.762 470.136 522.53 464.921 520.313C462.69 519.35 460.178 518.384 457.904 519.232C457.395 519.42 456.927 519.708 456.667 520.153C456.06 521.238 456.951 522.558 457.85 523.401C460.38 525.842 463.382 527.772 466.646 529.06C467.776 529.513 468.95 529.897 469.878 530.656C470.806 531.415 471.502 532.647 471.203 533.822C470.844 535.164 469.294 536.389 469.877 537.648C470.257 538.468 471.471 538.895 471.457 539.793C471.463 540.257 471.12 540.644 470.792 540.99C469.463 542.387 468.121 543.77 466.792 545.167C464.59 545.061 462.17 544.503 459.967 544.37C456.152 544.168 451.904 543.777 449.324 540.942C448.331 539.859 447.692 538.515 446.785 537.349C443.855 533.582 438.82 532.378 434.558 530.232C429.572 527.737 424.543 523.599 419.17 525.016C418.789 525.108 418.394 525.27 418.122 525.561C417.493 526.281 417.938 527.397 418.487 528.192C420.584 531.357 423.604 533.876 427.017 535.545C428.73 536.373 430.545 536.992 432.057 538.125C433.584 539.216 434.819 540.977 434.69 542.871C434.621 543.656 434.328 544.409 434.273 545.209C434.064 547.733 436.109 549.759 437.991 551.446C440.704 553.876 443.403 556.292 446.129 558.709C448.164 560.524 443.01 565.763 440.336 565.314C437.633 564.863 435.148 563.153 432.447 563.447C428.945 563.826 426.782 567.33 425.145 570.435C422.625 575.196 420.104 579.986 417.583 584.748C417.294 585.305 416.989 585.875 416.965 586.507C416.809 589.228 420.902 589.659 423.445 588.66C425.974 587.676 429.543 586.68 430.866 589.046C431.371 589.966 431.268 591.116 431.575 592.118C432.415 594.841 435.825 595.85 437.373 598.22C439.25 601.1 437.911 604.856 437.015 608.183C436.119 611.482 436.243 615.949 439.409 617.277C441.933 618.343 445.314 616.782 447.334 618.64C447.984 619.254 448.363 620.13 448.503 621.017C449.653 627.115 442.935 633.593 446.035 638.964C446.691 640.07 447.715 641.041 447.834 642.306C447.942 643.473 447.25 644.557 446.728 645.588C445.597 647.788 445.094 650.238 445.082 652.709C444.965 652.987 444.848 653.323 444.729 653.686C444.462 654.58 444.726 655.595 445.376 656.266C446.853 657.791 448.242 657.856 449.822 657.376C450.047 657.407 450.299 657.411 450.552 657.387C474.61 654.43 494.142 639.606 510.729 622.882L510.715 622.895Z" fill="#2BAD66"/>
<g style="mix-blend-mode:difference" opacity="0.1">
<path d="M353.583 541.603C350.666 543.157 347.322 539.846 344.044 540.201C339.783 540.653 336.604 547.047 332.789 545.076C330.101 543.699 329.578 538.735 326.567 539.108C325.385 539.257 324.526 540.311 323.504 540.968C319.603 543.447 314.823 539.482 310.224 539.071C307.897 538.866 305.625 539.602 303.422 540.353C301.7 540.915 299.977 541.505 298.255 542.067C297.929 542.245 297.562 542.379 297.211 542.416C297.154 542.443 297.084 542.456 297.027 542.483C297.027 542.483 297.027 542.455 297.028 542.427C296.087 542.454 295.168 541.934 294.909 540.638C294.493 538.581 294.778 536.592 294.909 534.53C295.058 532.286 294.192 530.279 294.902 528.072C295.198 527.15 295.995 526.488 296.965 526.406C296.965 526.406 296.965 526.377 296.966 526.349C296.91 526.348 296.84 526.333 296.783 526.332C296.841 526.277 296.911 526.264 296.968 526.237C301.003 524.181 305.27 522.509 309.155 520.184C310.389 519.431 311.638 518.581 312.263 517.285C312.873 516.031 312.798 514.583 312.933 513.182C313.491 507.364 317.853 502.449 323.009 499.667C328.151 496.899 334.036 495.869 339.809 494.895C337.435 492.357 334.875 489.143 335.8 485.788C336.173 484.488 337.033 483.351 337.28 482.007C337.923 478.732 334.863 476.085 332.856 473.442C328.141 467.202 329.171 457.362 335.095 452.234C336.633 450.91 338.623 449.398 338.248 447.412C338.054 446.412 337.445 445.841 336.622 445.505C336.058 445.636 335.5 445.459 335.07 445.101C334.776 445.054 334.468 445.021 334.131 444.987C334.274 444.849 334.417 444.711 334.559 444.573C334.162 443.991 334.047 443.245 334.507 442.607C340.093 434.959 348.852 429.048 356.947 424.277C366.629 418.576 377.237 416.373 387.459 412.057C388.731 411.516 390.733 411.899 390.972 413.602C391.147 414.952 391.26 415.726 390.841 416.464C392.9 420.246 395.757 423.282 399.898 424.247C401.856 424.699 403.921 424.634 405.821 425.254C407.734 425.888 409.56 427.546 409.373 429.551C409.286 430.603 408.667 431.533 408.203 432.481C406.662 435.686 407.018 439.707 409.078 442.576C404.72 445.469 399.772 438.931 394.536 438.834C389.651 438.756 386.508 444.729 387.596 449.478C387.859 450.577 388.276 451.721 388.089 452.842C387.933 453.822 387.329 454.655 386.727 455.459C384.975 457.818 383.224 460.177 381.487 462.551C386.149 459.031 390.826 455.525 395.488 452.005C396.071 451.551 396.696 451.112 397.415 450.941C400.374 450.258 401.917 454.705 400.706 457.508C399.51 460.297 396.974 462.559 396.63 465.572C396.122 470.071 400.701 474.258 399.423 478.591C398.442 481.945 394.038 483.391 390.83 482.076C387.594 480.761 385.584 477.429 384.768 474.046C383.022 473.527 381.595 475.793 381.889 477.581C382.183 479.368 383.38 480.89 383.885 482.639C384.39 484.388 383.691 486.806 381.863 486.945C378.81 485.647 376.31 483.037 375.14 479.916C374.83 479.111 374.577 478.222 373.912 477.706C372.137 476.301 369.855 478.512 368.146 480.001C363.261 484.233 354.342 481.844 352.237 475.731C351.419 473.345 351.505 470.636 350.234 468.468C348.95 466.285 345.273 465.286 344.086 467.513C341.741 471.857 341.954 477.757 345.879 480.754C346.975 481.572 348.377 482.563 348.116 483.921C347.947 484.831 347.067 485.407 346.383 486.042C343.987 488.306 343.91 492.222 345.251 495.234C346.55 498.26 348.954 500.657 351.104 503.162C353.846 506.365 356.368 510.169 356.327 514.408C356.301 518.634 352.691 523.013 348.503 522.399C350.947 525.836 352.992 529.575 354.571 533.518C355.663 536.301 356.161 540.212 353.527 541.602L353.583 541.603ZM454.936 480.629C458.421 477.806 461.679 474.32 466.021 473.238C470.462 472.143 475.336 473.752 479.644 472.206C482.073 471.346 484.095 469.581 486.483 468.65C492.39 466.302 499.402 469.404 505.323 467.07C509.817 465.288 512.315 461.018 513.894 456.283C515.833 453.66 515.337 448.696 513.441 446.167C506.185 436.447 494.377 430.389 483.862 425.096C472.525 419.383 461.923 415.114 449.561 412.052C438.905 409.411 427.927 405.838 416.853 407.276C415.235 407.488 414.97 409.983 416.349 410.693C417.184 411.128 417.588 411.317 418.165 411.256C424.301 415.566 429.143 421.765 431.625 428.867C432.136 430.28 432.602 431.846 433.809 432.721C435.612 434.07 438.9 433.954 439.229 436.178C439.319 436.699 439.155 437.244 439.021 437.761C437.414 443.352 435.821 448.928 434.228 454.505C433.723 456.238 433.202 458.041 432.097 459.498C431.279 460.566 430.185 461.405 429.09 462.216C423.704 466.244 418.303 470.257 412.916 474.285C414.36 477.917 419.133 478.793 423.015 478.378C426.897 477.962 431.015 476.849 434.583 478.478C437.58 479.832 439.566 482.91 442.621 484.125C446.793 485.75 451.45 483.423 454.936 480.601L454.936 480.629ZM412.317 590.013C409.907 585.383 412.5 579.584 416.197 575.894C418.894 573.199 422.526 570.014 421.321 566.4C420.571 564.17 418.259 562.981 416.329 561.645C413.538 559.733 411.168 556.999 410.28 553.741C409.378 550.47 410.17 546.635 412.72 544.415C410.258 542.93 409.907 539.512 407.848 537.472C405.996 535.645 403.018 535.709 400.678 534.549C398.004 533.214 396.254 530.322 393.404 529.406C389.744 528.252 386.052 530.805 383.064 533.229C382.595 533.6 382.125 534 381.906 534.544C381.656 535.2 381.813 535.932 381.872 536.621C382.063 538.731 381.199 540.921 379.645 542.342C378.932 543.005 378.039 543.538 377.562 544.387C376.926 545.528 377.184 546.937 377.458 548.219C378.41 552.685 379.485 557.42 382.661 560.728C384.525 562.653 387.245 564.606 386.711 567.251C386.603 567.825 386.328 568.368 386.374 568.959C384.806 568.709 381.858 567.806 380.347 568.301C379.853 568.476 379.344 568.692 378.987 569.094C378.157 570.007 378.457 571.43 378.648 572.654C378.979 574.738 378.888 576.927 377.958 578.821C377.043 580.702 375.207 582.231 373.113 582.381C371.524 582.51 369.863 581.879 368.366 582.417C368.366 582.417 354.917 592.705 354.878 602.027C354.872 603.277 352.329 602.478 352.337 603.742C352.331 604.991 353.353 606.018 354.467 606.598C355.191 606.974 355.987 607.226 356.785 607.393C357.834 607.62 358.928 607.722 360.007 607.838C361.17 607.954 362.334 608.071 363.484 608.174C366.652 608.477 369.96 608.783 372.928 607.623C375.33 606.678 376.501 604.577 379.061 604.309C379.305 603.105 380.982 602.753 382.083 603.29C383.197 603.813 383.938 604.864 384.866 605.679C388.119 608.525 393.891 607.635 396.141 603.936C397.122 602.323 397.52 600.279 398.972 599.067C401.221 597.165 404.588 598.188 407.47 598.851C410.338 599.501 414.306 598.975 414.872 596.077C415.287 593.879 413.379 592.052 412.344 590.07L412.317 590.013ZM510.715 622.895C517.395 616.15 523.364 609.127 528.429 601.598C529.434 600.21 530.398 598.779 531.306 597.347C531.998 596.235 532.606 595.093 533.158 593.951C538.767 584.043 542.802 573.283 544.879 561.269C545.343 558.58 542.887 556.814 540.796 557.595C539.316 557.066 537.808 556.565 536.283 556.217C535.668 556.067 535.01 555.958 534.402 556.187C533.597 556.497 533.134 557.332 532.631 558.04C531.022 560.317 528.123 561.605 525.348 561.28C520.443 560.696 515.878 555.582 511.394 557.659C510.135 558.215 509.149 559.308 507.837 559.694C505.424 560.4 502.984 558.508 501.586 556.379C500.188 554.279 499.26 551.779 497.292 550.175C493.758 547.296 487.986 548.243 484.824 544.977C486.068 543.551 487.563 542.325 489.22 541.411C486.768 539.392 488.122 534.654 486.863 531.755C485.794 529.309 483.091 528.03 480.622 526.994C475.393 524.762 470.136 522.53 464.921 520.313C462.69 519.35 460.178 518.384 457.904 519.232C457.395 519.42 456.927 519.708 456.667 520.153C456.06 521.238 456.951 522.558 457.85 523.401C460.38 525.842 463.382 527.772 466.646 529.06C467.776 529.513 468.95 529.897 469.878 530.656C470.806 531.415 471.502 532.647 471.203 533.822C470.844 535.164 469.294 536.389 469.877 537.648C470.257 538.468 471.471 538.895 471.457 539.793C471.463 540.257 471.12 540.644 470.792 540.99C469.463 542.387 468.121 543.77 466.792 545.167C464.59 545.061 462.17 544.503 459.967 544.37C456.152 544.168 451.904 543.777 449.324 540.942C448.331 539.859 447.692 538.515 446.785 537.349C443.855 533.582 438.82 532.378 434.558 530.232C429.572 527.737 424.543 523.599 419.17 525.016C418.789 525.108 418.394 525.27 418.122 525.561C417.493 526.281 417.938 527.397 418.487 528.192C420.584 531.357 423.604 533.876 427.017 535.545C428.73 536.373 430.545 536.992 432.057 538.125C433.584 539.216 434.819 540.977 434.69 542.871C434.621 543.656 434.328 544.409 434.273 545.209C434.064 547.733 436.109 549.759 437.991 551.446C440.704 553.876 443.403 556.292 446.129 558.709C448.164 560.524 443.01 565.763 440.336 565.314C437.633 564.863 435.148 563.153 432.447 563.447C428.945 563.826 426.782 567.33 425.145 570.435C422.625 575.196 420.104 579.986 417.583 584.748C417.294 585.305 416.989 585.875 416.965 586.507C416.809 589.228 420.902 589.659 423.445 588.66C425.974 587.676 429.543 586.68 430.866 589.046C431.371 589.966 431.268 591.116 431.575 592.118C432.415 594.841 435.825 595.85 437.373 598.22C439.25 601.1 437.911 604.856 437.015 608.183C436.119 611.482 436.243 615.949 439.409 617.277C441.933 618.343 445.314 616.782 447.334 618.64C447.984 619.254 448.363 620.13 448.503 621.017C449.653 627.115 442.935 633.593 446.035 638.964C446.691 640.07 447.715 641.041 447.834 642.306C447.942 643.473 447.25 644.557 446.728 645.588C445.597 647.788 445.094 650.238 445.082 652.709C444.965 652.987 444.848 653.323 444.729 653.686C444.462 654.58 444.726 655.595 445.376 656.266C446.853 657.791 448.242 657.856 449.822 657.376C450.047 657.407 450.299 657.411 450.552 657.387C474.61 654.43 494.142 639.606 510.729 622.882L510.715 622.895Z" fill="#2BAD66"/>
</g>
<path d="M358.052 600.252C358.201 599.693 358.223 599.23 358.228 598.949C358.251 594.064 364.596 587.173 369.15 583.454C369.36 583.472 369.584 583.504 369.767 583.52C370.509 583.603 371.434 583.702 372.461 583.62C375.989 583.353 379.228 581.046 380.884 577.618C382.003 575.32 382.398 572.56 382.067 569.62C382.417 569.696 382.767 569.772 383.033 569.818C383.662 569.954 384.264 570.09 384.74 570.154C386.071 570.358 387.397 569.93 388.367 569.019C389.194 568.218 389.689 567.13 389.722 565.993C389.84 565.658 389.929 565.351 389.99 565.043C390.845 560.788 387.959 557.808 386.882 556.695C386.509 556.31 386.136 555.925 385.735 555.568C385.445 555.268 385.126 554.996 384.85 554.711C382.572 552.358 381.675 548.749 380.723 544.283C380.697 544.114 380.606 543.706 380.555 543.396C380.612 543.341 380.683 543.272 380.754 543.231C381.038 543.011 381.323 542.762 381.594 542.528C384.159 540.182 385.535 536.722 385.24 533.249C386.677 532.107 389.477 530.003 391.112 530.521C391.796 530.742 392.654 531.514 393.581 532.357C394.729 533.401 396.03 534.573 397.772 535.429C399.081 536.068 400.367 536.425 401.513 536.724C402.408 536.963 403.513 537.248 403.817 537.562C404.217 537.975 404.598 538.739 405.005 539.588C405.318 540.225 405.671 540.933 406.123 541.656C404.544 544.65 404.133 548.336 405.115 551.89C405.857 554.625 407.36 557.149 409.528 559.388C410.522 560.415 411.672 561.374 412.894 562.236C413.227 562.466 413.575 562.682 413.908 562.912C414.741 563.459 415.506 563.962 415.975 564.447C416.141 564.618 416.223 564.732 416.222 564.788C416.476 565.564 413.808 568.203 412.795 569.184L412.153 569.806C407.358 574.615 404.044 582.411 407.489 589.023C407.87 589.759 408.309 590.412 408.692 591.008C408.83 591.207 408.98 591.448 409.131 591.689C408.667 591.724 408.063 591.7 407.434 591.564L406.678 591.383C403.573 590.66 398.874 589.545 395.158 592.701C393.463 594.149 392.647 595.989 392.064 597.328C391.831 597.829 391.627 598.303 391.425 598.637C391.035 599.291 390.185 599.783 389.214 599.922C388.243 600.061 387.291 599.849 386.724 599.348C386.516 599.163 386.309 598.949 386.116 598.749C385.398 598.007 384.403 596.981 382.954 596.312C381.073 595.425 378.784 595.431 376.944 596.356C376.363 596.642 375.838 597.012 375.41 597.455C373.898 598.006 372.775 598.873 371.879 599.547C371.268 600 370.799 600.372 370.333 600.547C368.27 601.356 365.55 601.088 362.901 600.835L359.424 600.499C358.947 600.463 358.485 600.414 358.036 600.35L358.052 600.252ZM298.145 534.133C298.165 533.754 298.2 533.333 298.235 532.941C298.269 532.548 298.304 532.156 298.324 531.749C298.415 530.472 298.28 529.305 298.154 528.376C298.106 527.898 298.056 527.504 298.047 527.181C298.359 527.017 298.657 526.812 298.914 526.591C300.074 526.02 301.277 525.463 302.521 524.894C305.139 523.686 307.841 522.423 310.45 520.864C312.208 519.797 314.154 518.41 315.259 516.097C316.087 514.383 316.199 512.644 316.276 511.382C316.294 511.115 316.313 510.82 316.331 510.554C316.757 505.969 320.649 502.339 324.133 500.457C328.737 497.989 334.256 497.038 339.592 496.155C340.155 496.051 340.678 495.849 341.146 495.562C342.456 497.913 344.193 499.879 345.751 501.659C346.123 502.072 346.495 502.513 346.867 502.926C349.733 506.286 351.066 508.947 351.056 511.333C351.052 512.442 350.441 513.752 349.558 514.497C349.23 514.786 348.734 515.101 348.229 515.037C346.493 514.785 344.809 515.586 343.886 517.06C342.977 518.548 343.031 520.43 344.047 521.85C346.298 525.031 348.18 528.459 349.61 532.076C349.988 533.037 350.142 533.882 350.175 534.458C349.756 534.339 349.254 534.135 348.877 534.002C347.174 533.357 345.067 532.579 342.62 532.821C339.511 533.151 337.15 535.022 335.286 536.523C334.789 536.922 334.106 537.473 333.595 537.802C333.403 537.49 333.143 537.079 332.925 536.71C332.378 535.803 331.763 534.768 330.893 533.869C329.305 532.229 327.239 531.466 325.086 531.727C323.032 531.975 321.666 533.104 320.742 533.834C320.571 533.971 320.386 534.123 320.201 534.246C319.549 534.657 317.567 533.923 315.822 533.292C313.98 532.616 311.9 531.867 309.642 531.677C306.376 531.386 303.439 532.378 301.081 533.169L298.131 534.147L298.145 534.133ZM448.426 649.968C448.426 649.968 448.444 649.729 448.446 649.617C448.449 647.708 448.842 645.973 449.596 644.497L449.828 644.079C450.45 642.896 451.406 641.114 451.191 638.807C450.999 636.754 449.942 635.291 449.242 634.311C449.091 634.098 448.926 633.899 448.803 633.687C448.202 632.638 448.865 630.697 449.95 627.85C451.153 624.696 452.517 621.109 451.781 617.152C451.472 615.406 450.697 613.835 449.565 612.666C449.468 612.566 449.385 612.48 449.289 612.381C446.854 610.123 443.862 610.202 441.896 610.255C441.292 610.259 440.379 610.287 440.099 610.198C439.907 609.914 439.667 608.267 440.22 606.24L440.473 605.332C441.456 601.837 442.812 597.043 440.031 592.772C439.661 592.219 439.248 591.707 438.751 591.193C437.95 590.366 437.09 589.707 436.341 589.133C435.8 588.717 435.273 588.316 434.955 587.988C434.79 587.816 434.749 587.746 434.749 587.746C434.709 587.591 434.684 587.394 434.659 587.197C434.546 586.394 434.383 585.17 433.716 583.91C433.388 583.315 433.004 582.804 432.576 582.361C429.247 578.924 424.269 580.291 421.769 581.192C423.841 577.251 425.926 573.325 427.998 569.385C428.592 568.257 430.374 564.846 431.936 564.688C432.583 564.614 433.643 564.996 434.788 565.408C435.933 565.819 437.217 566.289 438.659 566.522C443.098 567.253 447.489 563.167 449.054 560.159C450.503 557.403 450.24 554.59 448.362 552.651C448.293 552.579 447.947 552.251 447.947 552.251C445.276 549.863 442.591 547.49 439.934 545.089C439.532 544.731 439.131 544.374 438.758 543.989C437.709 542.905 437.66 542.455 437.66 542.455C437.677 542.272 437.722 542.091 437.767 541.909C437.873 541.419 438.009 540.818 438.077 540.117C438.259 537.508 437.248 534.95 435.245 532.883C435.121 532.754 435.011 532.64 434.886 532.512C435.082 532.599 435.277 532.686 435.486 532.76C438.052 533.84 440.464 534.875 441.97 536.43C442.135 536.601 442.301 536.772 442.424 536.957C442.713 537.34 442.973 537.752 443.219 538.149C443.753 538.986 444.356 539.922 445.184 540.834L445.418 541.076C449.368 545.155 455.26 545.474 458.781 545.656C459.665 545.713 460.688 545.855 461.752 546.013C463.013 546.201 464.301 546.39 465.62 546.44C466.897 546.502 468.112 546.016 468.984 545.089L472.983 540.913C473.498 540.359 474.883 538.907 474.85 536.618C474.862 535.86 474.671 534.692 473.806 533.484C474.066 533.011 474.3 532.453 474.464 531.824C474.988 529.825 474.546 527.683 473.283 525.894C474.845 526.565 476.421 527.222 477.982 527.893C479.349 528.476 480.854 529.146 481.614 529.93C481.78 530.102 481.89 530.244 481.957 530.399C482.146 530.852 482.21 532.116 482.279 533.044C482.344 534.253 482.406 535.601 482.736 536.941C481.995 537.575 481.296 538.28 480.638 539.027C479.136 540.73 479.207 543.287 480.781 544.913C483.35 547.565 486.693 548.335 489.393 548.953C491.113 549.36 492.75 549.737 493.637 550.453C493.72 550.539 493.803 550.624 493.885 550.71C494.479 551.323 495.039 552.329 495.639 553.378C496.062 554.129 496.499 554.894 497.02 555.688C497.5 556.412 498.05 557.095 498.672 557.737C501.461 560.617 504.897 561.711 508.128 560.766C509.539 560.339 510.604 559.612 511.385 559.077C511.697 558.857 512.052 558.624 512.236 558.529C513.085 558.149 514.951 559.078 516.762 559.977C518.837 561.007 521.191 562.182 523.882 562.506C528.198 562.996 532.61 561.073 535.152 557.561C536.131 557.829 537.165 558.155 538.351 558.581C538.686 558.699 539.036 558.774 539.386 558.822C537.418 569.349 533.82 579.134 528.413 588.708C528.37 588.778 528.34 588.861 528.297 588.931C527.717 590.101 527.195 591.076 526.648 591.937C525.855 593.202 524.963 594.536 523.929 595.952C519.152 603.036 513.525 609.784 506.659 616.709C493.998 629.466 474.299 646.773 449.213 649.924C448.947 649.906 448.694 649.902 448.441 649.926L448.426 649.968ZM339.388 485.354C339.061 484.731 338.971 484.238 339.075 483.861C339.134 483.665 339.324 483.261 339.512 482.885C339.905 482.063 340.399 481.032 340.658 479.758C340.673 479.688 340.674 479.632 340.703 479.576C340.8 479.676 340.883 479.762 340.979 479.862C341.214 480.104 341.463 480.361 341.726 480.576C340.524 481.988 339.795 483.634 339.43 485.341L339.388 485.354ZM336.575 469.176C336.176 468.707 335.762 468.223 335.405 467.74C332.093 463.348 332.857 456.059 337.015 452.447L337.358 452.115C339.123 450.627 342.411 447.83 341.597 443.534C341.338 442.182 340.725 440.979 339.814 440.038C339.621 439.838 339.427 439.638 339.191 439.48C344.541 433.416 352.047 428.579 358.228 424.943C363.941 421.566 370.04 419.501 376.478 417.302C379.471 416.282 382.535 415.25 385.601 414.049C385.678 414.528 385.838 415.008 386.084 415.461C387.202 417.501 388.465 419.262 389.86 420.703C392.18 423.098 394.906 424.686 397.97 425.395C399.047 425.651 400.112 425.781 401.037 425.88C401.976 425.993 402.873 426.091 403.529 426.312C403.654 426.357 403.766 426.415 403.877 426.473C403.834 426.57 403.79 426.64 403.747 426.737C403.616 427.002 403.471 427.252 403.355 427.531C402.352 429.635 401.893 431.931 401.982 434.221C399.589 432.919 396.888 431.472 393.702 431.407C390.417 431.354 387.417 432.823 385.21 435.54C382.56 438.797 381.504 443.329 382.435 447.374C382.5 447.67 382.567 447.909 382.633 448.177C382.698 448.445 382.791 448.797 382.844 449.023C382.714 449.231 382.469 449.579 382.312 449.787C381.005 451.549 379.671 453.339 378.364 455.129L377.072 456.878C375.808 458.599 375.967 460.96 377.444 462.486C377.458 462.5 377.486 462.529 377.513 462.557C379.047 464.084 381.473 464.249 383.193 462.943L395.162 453.923C394.931 454.313 394.672 454.702 394.413 455.091C393.233 456.869 391.75 459.106 391.423 461.993C391.047 465.259 392.278 468.1 393.266 470.377C393.916 471.904 394.606 473.473 394.368 474.284C394.309 474.479 394.081 474.7 393.741 474.863C393.076 475.176 392.205 475.218 391.605 474.97C391.089 474.751 390.603 474.42 390.161 473.964C389.236 473.008 388.515 471.579 388.134 469.958C387.964 469.183 387.568 468.489 387.03 467.932C386.519 467.405 385.893 467.016 385.153 466.793C383.085 466.17 380.943 466.642 379.248 468.117C378.023 469.193 377.171 470.681 376.808 472.276C376.67 472.105 376.533 471.935 376.381 471.778C376.16 471.55 375.938 471.35 375.689 471.149C371.239 467.638 366.553 471.733 364.787 473.278L364.43 473.623C362.409 475.332 358.54 474.933 356.441 472.765C355.985 472.295 355.657 471.756 355.455 471.205C355.227 470.57 355.1 469.753 354.931 468.894C354.609 467.134 354.248 465.134 353.086 463.164C352.759 462.597 352.346 462.057 351.877 461.572C349.902 459.533 347.026 458.504 344.395 458.869C342.213 459.185 340.367 460.448 339.368 462.355C338.05 464.819 337.375 467.462 337.333 470.045C337.1 469.746 336.852 469.462 336.617 469.191L336.575 469.176ZM430.726 462.649C431.849 461.81 433.37 460.669 434.589 459.074C436.181 457.007 436.866 454.632 437.416 452.717C439.038 447.056 440.631 441.479 442.238 435.889C442.447 435.162 442.818 433.918 442.562 432.37C442.386 431.131 441.788 429.914 440.849 428.944C439.551 427.604 437.931 427.045 436.646 426.603C436.283 426.485 435.739 426.293 435.502 426.163C435.324 425.894 435.083 425.16 434.909 424.665L434.788 424.313C432.923 418.961 429.762 413.898 425.688 409.691C425.232 409.221 424.777 408.75 424.292 408.307C430.449 408.756 436.713 410.373 442.837 411.959C444.431 412.378 446.011 412.782 447.577 413.172C458.667 415.919 468.98 419.832 480.957 425.864C489.048 429.939 499.104 435.014 505.953 442.087C507.072 443.243 508.105 444.453 508.998 445.66C509.933 446.911 510.055 449.749 509.438 450.596C509.165 450.97 508.948 451.374 508.814 451.807C507.323 456.29 505.4 458.871 502.771 459.924C500.708 460.734 498.043 460.579 495.209 460.421C491.73 460.225 487.789 459.98 483.931 461.505C482.462 462.071 481.171 462.851 480.037 463.535C479.044 464.137 478.095 464.697 477.247 464.993C475.708 465.544 473.701 465.47 471.582 465.394C469.295 465.315 466.685 465.217 464.035 465.877C459.551 467.013 456.205 469.894 453.258 472.416C452.589 472.981 451.933 473.56 451.25 474.111C448.12 476.645 445.141 477.706 443.271 476.974C442.378 476.623 441.381 475.765 440.357 474.85C439 473.677 437.463 472.318 435.428 471.415C431.456 469.597 427.417 470.164 423.842 470.669C423.096 470.783 422.337 470.883 421.605 470.956C420.846 471.028 420.13 471.031 419.485 470.992L430.727 462.593L430.726 462.649Z" fill="#2BAD66"/>
<path d="M254.381 316.538C257.37 315.002 260.375 313.472 263.364 311.936C263.709 311.764 264.053 311.591 264.436 311.575C264.727 311.564 265.001 311.656 265.276 311.747C266.956 312.307 268.61 313.271 270.387 313.109C272.697 312.909 274.415 310.932 276.51 309.924L282.704 320.158C281.395 320.853 280.119 321.667 279.155 322.782C278.191 323.897 277.572 325.379 277.728 326.849C277.814 327.668 278.121 328.524 277.804 329.262C277.594 329.731 277.195 330.065 276.802 330.383C273.528 332.991 270.237 335.593 266.963 338.201" fill="#BDEDFF"/>
<path d="M108.85 423.648C101.364 423.003 93.7214 422.342 86.8222 419.397C84.7972 418.525 82.756 417.378 81.6249 415.493C80.5208 413.634 80.4776 411.286 81.0861 409.19C81.6946 407.095 82.874 405.225 84.1287 403.453C87.6561 398.469 92.5191 393.141 99.1486 388.599C112.208 379.52 128.327 376.344 143.111 370.497C160.108 363.771 175.618 353.264 188.187 339.999C195.247 332.548 201.543 324.106 210.16 318.502C225.605 308.458 245.968 309.354 263.294 315.325L273.156 329.689C272.494 347.999 266.016 367.333 251.088 378.141C242.762 384.165 232.642 387.006 223.137 390.913C206.237 397.887 190.878 408.588 178.48 422.035C167.71 433.726 158.948 447.631 145.796 456.554C139.183 461.102 132.457 463.726 126.554 465.225C124.437 465.758 122.262 466.201 120.102 466.002C117.937 465.819 115.756 464.931 114.42 463.229C113.057 461.5 112.718 459.178 112.643 456.98C112.373 449.493 114.489 442.118 116.589 434.9" fill="#BDEDFF"/>
<path d="M100.819 406.375C102.935 405.41 105.138 404.672 107.405 404.17C108.531 403.917 109.802 403.766 110.745 404.439C112.107 405.414 111.913 407.504 111.364 409.098C110.066 412.885 107.724 416.199 105.403 419.447C104.326 420.956 103.249 422.464 102.177 423.956C100.427 426.408 98.6657 428.891 97.5563 431.682C96.4632 434.478 96.0756 437.688 97.1313 440.5C97.4113 441.222 97.7991 441.943 98.4131 442.417C98.9894 442.843 99.7003 443.026 100.406 443.171C107.45 444.549 114.629 442.183 121.55 440.269C124.194 439.552 126.898 438.873 129.639 439.104C131.158 439.233 132.892 439.847 133.355 441.312C133.705 442.416 133.188 443.59 132.682 444.625C131.74 446.591 130.792 448.574 129.833 450.535" fill="#BDEDFF"/>
<path d="M100.921 406.714C103.248 406.035 105.612 405.081 108.019 404.752C112.608 404.126 110.556 409.529 109.436 411.706C107.411 415.574 104.546 419.054 101.972 422.577C98.267 427.663 92.8494 435.249 96.6088 441.798C98.2139 444.577 102.022 444.625 104.871 444.641C108.684 444.672 112.443 443.842 116.121 442.877C119.842 441.891 123.618 440.419 127.479 440.144C128.621 440.057 130.118 439.928 131.152 440.488C133.387 441.7 132.106 443.499 131.416 444.921C130.565 446.72 129.666 448.45 129.365 450.432C129.295 450.912 129.871 451.175 130.189 450.814C131.363 449.554 132.133 448.051 132.865 446.499C133.517 445.136 134.411 443.692 134.443 442.141C134.497 439.555 132.073 438.317 129.806 438.064C126.655 437.715 123.472 438.593 120.467 439.423C117.069 440.356 113.676 441.38 110.197 441.962C107.138 442.469 100.939 443.618 98.7684 440.974C96.1509 437.785 97.9172 432.7 99.6781 429.516C103.394 422.782 109.372 417.178 111.843 409.761C112.554 407.627 112.936 404.487 110.346 403.48C107.432 402.365 102.989 404.602 100.598 406.067C100.243 406.272 100.55 406.805 100.91 406.692L100.921 406.714Z" fill="#6DC1BB"/>
<path d="M217.744 393.364L183.99 344.188L150.348 367.291L184.102 416.467L217.744 393.364Z" fill="#EBBC41"/>
<path d="M264.478 303.15C264.478 303.15 264.495 303.156 264.484 303.134C264.484 303.134 264.468 303.129 264.478 303.15Z" fill="#EBBC41"/>
<g style="mix-blend-mode:screen" opacity="0.32">
<path d="M283.641 314.814C280.636 314.944 278.223 317.39 276.667 319.96C275.105 322.546 274.066 325.45 272.057 327.707C269.289 330.843 264.884 332.481 262.886 336.16C261.798 338.186 261.583 340.556 260.985 342.781C259.477 348.33 255.513 352.844 251.34 356.804C226.05 380.823 189.762 391.894 167.547 418.805C160.498 427.355 153.917 438.054 143.017 440.06C141.331 440.379 139.457 440.4 138.04 439.426C136.624 438.451 136.01 436.684 134.954 435.327C132.391 432.031 127.56 431.498 123.477 432.329C119.379 433.154 115.539 435.034 111.408 435.579C110.261 435.736 109.044 435.779 107.967 435.348C105.064 434.201 104.401 430.156 105.645 427.285C106.889 424.414 109.367 422.312 111.381 419.931C114.547 416.192 116.642 411.521 117.17 406.652C117.417 404.4 117.299 402.008 116.157 400.048C115.01 398.103 112.586 396.757 110.421 397.436C108.956 397.9 107.895 399.144 106.802 400.216C104.002 403.018 100.49 405.098 96.7042 406.225C95.2932 406.634 93.4406 406.753 92.7134 405.487C91.9325 404.114 93.2034 402.508 94.4044 401.49C105.671 391.921 119.743 386.483 132.965 379.882C152.503 370.107 172.106 359.491 187.983 344.492C193.869 338.948 200.805 330.037 207.284 325.193C213.773 320.371 221.302 316.577 229.365 315.977C241.073 315.103 250.633 321.807 261.345 317.027C263.03 316.278 264.619 315.281 266.391 314.758C271.604 313.228 278.39 315.704 281.923 311.567" fill="#BDEDFF"/>
</g>
<path d="M282.068 303.912C277.91 305.507 273.812 307.248 269.784 309.155C274.157 314.347 278.283 319.744 282.144 325.34C285.419 322.786 288.601 320.13 291.698 317.355C288.811 312.658 285.59 308.156 282.073 303.896L282.068 303.912Z" fill="#2BAD66"/>
<g style="mix-blend-mode:screen" opacity="0.17">
<path d="M286.129 310.741C284.809 308.722 283.355 306.783 281.799 304.935C279.661 305.803 277.555 306.735 275.482 307.732C277.641 309.439 279.774 311.174 281.88 312.935C283.318 312.229 284.729 311.496 286.129 310.741Z" fill="#2BAD66"/>
</g>
<g style="mix-blend-mode:multiply" opacity="0.24">
<path d="M287.077 321.364C288.644 320.054 290.179 318.734 291.693 317.371C291.03 316.289 290.346 315.217 289.641 314.156C287.389 315.363 285.106 316.505 282.79 317.583C279.176 314.422 275.514 311.298 271.841 308.207C271.162 308.519 270.462 308.843 269.784 309.155C272.665 312.575 275.439 316.103 278.099 319.701C279.473 321.559 280.819 323.444 282.128 325.335C283.798 324.041 285.446 322.705 287.067 321.342L287.077 321.364Z" fill="#2BAD66"/>
</g>
<path d="M264.576 311.478C264.587 313.062 265.475 314.328 266.278 315.636C267.441 317.532 268.648 319.407 269.903 321.243C271.831 324.076 273.974 328.31 277.017 330.06C277.287 330.222 277.594 329.893 277.502 329.629C276.969 327.997 275.822 326.807 274.777 325.471C273.576 323.958 272.423 322.406 271.314 320.834C269.159 317.764 267.441 314.193 265.104 311.295C264.926 311.074 264.581 311.193 264.576 311.478Z" fill="white"/>
<path d="M259.912 313.138C259.998 314.765 261.075 316.327 261.846 317.733C263.014 319.828 264.253 321.875 265.578 323.878C268.013 327.562 270.506 331.823 274.19 334.397C274.497 334.607 274.836 334.289 274.653 333.977C272.537 330.039 269.213 326.813 266.741 323.081C265.583 321.33 264.495 319.531 263.456 317.695C262.551 316.1 261.856 314.091 260.52 312.82C260.278 312.578 259.874 312.82 259.89 313.149L259.912 313.138Z" fill="white"/>
<path d="M85.2921 405.295C83.1164 407.353 82.578 411.555 83.7791 414.253C85.2334 417.539 88.9872 418.987 92.3532 418.367C92.6387 418.318 92.7194 417.968 92.4609 417.828C90.0535 416.433 86.3751 415.836 85.3948 412.852C84.603 410.434 85.7877 407.902 85.7768 405.456C85.7768 405.187 85.4483 405.149 85.2921 405.295Z" fill="#6DC1BB"/>
<path d="M116.951 451.593C114.587 453.247 115.287 458.903 117.107 460.766C118.405 462.096 120.393 462.22 122.148 462.338C124.254 462.483 126.285 462.531 128.175 461.491C128.309 461.41 128.277 461.184 128.153 461.125C125.358 459.978 122.154 461.083 119.429 459.942C116.181 458.59 118.443 454.065 117.263 451.679C117.209 451.571 117.075 451.49 116.956 451.577L116.951 451.593Z" fill="#6DC1BB"/>
<g style="mix-blend-mode:screen" opacity="0.4">
<path d="M242.867 334.823C244.768 332.727 245.958 329.856 245.501 327.082C245.005 324.044 242.581 321.566 239.765 320.322C239.603 320.269 239.458 320.22 239.301 320.15C233.232 319.564 226.898 320.794 221.093 322.809C216.806 324.308 212.535 326.296 209.422 329.604C207.424 331.721 205.906 334.717 206.751 337.512C207.236 339.128 208.464 340.453 209.875 341.39C214.022 344.19 219.494 344.092 224.406 343.143C228.353 342.394 232.209 341.165 235.866 339.511C238.44 338.357 240.961 336.935 242.862 334.839L242.867 334.823Z" fill="#BDEDFF"/>
</g>
<path d="M94.469 400.326C98.4165 397.315 101.982 393.888 106.075 391.086C110.383 388.123 115.058 385.838 119.716 383.494C120.039 383.332 120.018 382.696 119.576 382.783C114.384 383.764 109.564 386.108 105.234 389.082C100.904 392.057 96.8654 395.559 94.372 400.24C94.3505 400.305 94.4313 400.386 94.4852 400.332L94.469 400.326Z" fill="white"/>
<path d="M118.177 411.548C117.148 412.157 116.658 413.25 115.91 414.15C115.059 415.195 114.079 416.143 113.163 417.113C111.063 419.322 109.006 421.563 107.229 424.041C105.812 426.029 100.567 433.529 105.236 434.707C105.532 434.788 105.689 434.427 105.57 434.19C104.525 432.262 106.787 428.76 107.751 427.16C109.124 424.871 110.869 422.813 112.619 420.792C114.332 418.831 119.529 414.602 118.349 411.569C118.317 411.505 118.252 411.483 118.188 411.515L118.177 411.548Z" fill="white"/>
<path d="M213.881 322.363C216.38 322.083 218.556 320.887 220.936 320.1C223.683 319.183 226.51 318.51 229.381 318.137C234.977 317.398 240.653 317.817 246.222 318.506C246.534 318.538 246.723 318.08 246.41 317.94C240.949 315.743 235.052 315.394 229.252 316.209C226.483 316.597 223.71 317.217 221.066 318.15C218.421 319.082 215.626 320.036 213.844 322.261C213.833 322.293 213.849 322.353 213.887 322.347L213.881 322.363Z" fill="white"/>
<path d="M189.297 343.026C193.46 353.966 201.044 364.447 209.553 372.471C209.758 372.665 210.092 372.364 209.92 372.127C206.408 367.312 202.729 362.674 199.401 357.741C196.072 352.807 192.921 347.771 189.474 342.924C189.415 342.832 189.264 342.908 189.302 343.01L189.297 343.026Z" fill="white"/>
<path d="M148.529 372.338C149.272 375.656 151.351 378.898 153.005 381.855C154.831 385.103 156.796 388.308 158.892 391.394C162.969 397.367 167.681 402.887 173.046 407.745C173.213 407.891 173.509 407.648 173.353 407.47C168.92 401.864 164.568 396.176 160.54 390.273C158.509 387.316 156.592 384.289 154.809 381.181C153.053 378.154 151.685 374.61 149.509 371.874C149.105 371.363 148.4 371.756 148.54 372.359L148.529 372.338Z" fill="white"/>
<path d="M288.568 233.9C288.568 233.9 289.258 233.851 290.444 233.773C291.653 233.792 293.382 233.759 295.418 234.167C299.469 234.86 304.787 237.206 308.419 241.301C310.237 243.301 311.672 245.718 312.506 248.004C313.328 250.253 313.58 252.603 313.522 254.633C313.53 255.648 313.37 256.589 313.296 257.422C313.217 257.831 313.151 258.181 313.098 258.47C313.018 258.928 312.965 259.193 312.965 259.193L305.967 257.619C308.693 262.45 309.544 269.596 307.361 276.73C314.691 275.009 322.237 270.367 327.913 262.563L320.915 260.989C320.915 260.989 320.981 260.639 321.099 260.049C321.178 259.663 321.258 259.205 321.351 258.662C321.478 257.54 321.668 256.286 321.667 254.859C321.737 252.056 321.417 248.678 320.167 245.249C318.928 241.856 316.973 238.657 314.456 235.861C309.433 230.232 302.327 227.12 296.902 226.187C294.166 225.648 291.845 225.659 290.225 225.657C288.615 225.765 287.683 225.834 287.683 225.834L288.568 233.924L288.568 233.9Z" fill="white"/>
<path d="M296.835 275.74C296.835 275.74 296.069 276.054 294.742 276.625C293.358 276.99 291.376 277.647 288.912 277.56C286.446 277.545 283.541 276.978 280.686 275.603C277.831 274.252 275.098 272.068 273.087 269.352C268.942 264.039 268.218 256.484 269.565 251.73C269.744 251.129 269.922 250.551 270.076 249.998C270.291 249.457 270.492 248.953 270.693 248.472C270.97 247.848 270.943 247.969 271.031 247.789C271.094 247.657 271.143 247.561 271.206 247.453C271.406 247.045 271.518 246.817 271.518 246.817L277.809 250.266C276.262 245.055 278.12 237.807 281.611 231.262C277.861 231.42 273.996 231.951 270.023 233.157C266.062 234.375 261.957 236.304 258.098 239.446L264.389 242.895C264.389 242.895 264.226 243.219 263.94 243.758C263.865 243.902 263.79 244.046 263.715 244.214C263.602 244.466 263.64 244.31 263.252 245.162C262.987 245.823 262.698 246.531 262.395 247.276C262.165 248.046 261.91 248.864 261.655 249.706C260.753 253.125 260.467 257.376 261.219 261.643C261.876 265.885 263.735 270.533 266.564 274.241C269.368 278.021 273.127 281.019 277.11 282.92C281.08 284.857 285.262 285.686 288.84 285.695C292.453 285.789 295.393 284.893 297.398 284.308C299.333 283.505 300.428 283.039 300.428 283.039L296.811 275.74L296.835 275.74Z" fill="white"/>
<path d="M455.351 409.154C455.351 409.154 455.455 408.777 455.649 408.092C455.898 407.436 456.223 406.486 456.843 405.443C458.014 403.37 460.329 400.908 463.297 399.72C464.738 399.125 466.358 398.8 467.763 398.794C469.153 398.774 470.495 399.104 471.583 399.543C472.128 399.734 472.615 400.009 473.061 400.212C473.269 400.342 473.45 400.443 473.589 400.53C473.826 400.66 473.951 400.732 473.951 400.732L471.718 404.249C474.9 403.71 478.957 404.617 482.439 407.214C482.931 402.869 481.861 397.826 478.707 393.198L476.473 396.715C476.473 396.715 476.293 396.613 475.986 396.44C475.792 396.325 475.555 396.195 475.277 396.022C474.692 395.731 474.024 395.384 473.256 395.105C471.749 394.519 469.819 394.039 467.699 394.047C465.593 394.07 463.465 394.499 461.458 395.338C457.388 396.985 454.316 400.264 452.74 403.061C451.903 404.452 451.475 405.723 451.152 406.616C450.898 407.525 450.75 408.028 450.75 408.028L455.351 409.126L455.351 409.154Z" fill="white"/>
<path d="M479.849 412.789C479.849 412.789 479.87 413.267 479.926 414.096C479.871 414.923 479.823 416.13 479.296 417.47C478.797 418.81 477.916 420.298 476.618 421.583C475.333 422.882 473.588 423.964 471.712 424.509C468.013 425.742 463.706 424.662 461.388 423.011C461.097 422.795 460.806 422.58 460.542 422.393C460.293 422.165 460.043 421.964 459.822 421.764C459.546 421.479 459.601 421.536 459.518 421.45C459.463 421.393 459.408 421.336 459.366 421.293C459.187 421.108 459.076 420.994 459.076 420.994L462.196 418.222C459.054 418.059 455.443 415.614 452.532 412.437C451.894 414.519 451.423 416.744 451.314 419.143C451.205 421.542 451.457 424.172 452.424 426.883L455.544 424.111C455.544 424.111 455.682 424.253 455.93 424.51C455.999 424.581 456.068 424.653 456.137 424.724C456.248 424.838 456.179 424.767 456.566 425.166C456.884 425.438 457.202 425.738 457.562 426.052C457.937 426.325 458.339 426.626 458.741 426.928C460.449 428.092 462.694 429.069 465.186 429.502C467.636 429.976 470.544 429.868 473.127 429.025C475.752 428.224 478.12 426.76 479.933 424.949C481.773 423.168 483.029 421.039 483.749 419.071C484.511 417.118 484.582 415.336 484.658 414.129C484.593 412.921 484.548 412.218 484.548 412.218L479.85 412.761L479.849 412.789Z" fill="white"/>
<path d="M253.776 477.037C253.776 477.037 253.989 476.886 254.359 476.583C254.756 476.336 255.296 475.952 256.045 475.641C257.502 475.004 259.726 474.619 261.781 475.171C262.802 475.426 263.777 475.891 264.526 476.464C265.276 477.01 265.854 477.721 266.278 478.388C266.498 478.7 266.647 479.054 266.811 479.337C266.864 479.478 266.933 479.606 266.959 479.719C267.026 479.874 267.067 479.973 267.067 479.973L264.467 480.971C266.389 481.956 268.18 484.063 268.992 486.842C270.978 484.725 272.432 481.603 272.605 477.871L270.005 478.869C270.005 478.869 269.951 478.755 269.87 478.53C269.817 478.388 269.735 478.218 269.654 478.021C269.45 477.638 269.26 477.186 268.945 476.718C268.37 475.81 267.544 474.786 266.407 473.925C265.283 473.107 263.959 472.482 262.561 472.123C259.737 471.375 256.78 471.89 254.828 472.757C253.839 473.163 253.086 473.67 252.561 474.013C252.064 474.384 251.779 474.604 251.779 474.604L253.79 477.023L253.776 477.037Z" fill="white"/>
<path d="M265.366 488.777C265.366 488.777 265.179 489.041 264.877 489.5C264.505 489.915 264.017 490.553 263.195 491.045C262.4 491.566 261.34 492.013 260.115 492.176C258.905 492.353 257.545 492.233 256.331 491.778C253.859 490.938 252.015 488.662 251.441 486.842C251.374 486.602 251.307 486.391 251.241 486.179C251.202 485.968 251.149 485.742 251.11 485.559C251.073 485.292 251.086 485.334 251.073 485.264C251.074 485.207 251.061 485.165 251.047 485.123C251.022 484.954 251.009 484.855 251.009 484.855L253.779 484.633C252.172 483.287 251.22 480.534 250.943 477.68C249.778 478.531 248.639 479.524 247.608 480.771C246.591 482.005 245.668 483.506 245.104 485.351L247.874 485.128C247.874 485.128 247.886 485.255 247.91 485.508C247.909 485.564 247.922 485.635 247.935 485.705C247.947 485.803 247.934 485.761 247.984 486.099C248.05 486.367 248.102 486.648 248.167 486.972C248.26 487.269 248.353 487.593 248.446 487.918C248.875 489.216 249.708 490.647 250.854 491.859C251.971 493.099 253.554 494.191 255.285 494.78C257.002 495.411 258.839 495.567 260.542 495.328C262.23 495.102 263.757 494.48 264.921 493.713C266.112 492.973 266.857 492.059 267.387 491.435C267.833 490.754 268.106 490.38 268.106 490.38L265.379 488.792L265.366 488.777Z" fill="white"/>
</g>
<g opacity="0.19">
<path d="M365.568 135.494L355.369 136.317C354.991 136.354 354.584 136.372 354.235 136.242C353.967 136.145 353.728 135.943 353.518 135.761C352.153 134.574 350.97 133.053 349.258 132.506C347.006 131.805 344.642 133.003 342.292 133.129L340.443 121.143C341.932 120.999 343.436 120.741 344.768 120.056C346.101 119.371 347.258 118.236 347.684 116.797C347.926 116.003 347.957 115.089 348.553 114.512C348.918 114.154 349.435 114.003 349.929 113.856L362.17 110.33" fill="#BDEDFF"/>
<path d="M543.275 91.4484C550.043 94.9314 556.944 98.5248 562.265 103.946C563.835 105.54 565.308 107.402 565.617 109.605C565.931 111.77 565.063 113.993 563.698 115.716C562.333 117.439 560.486 118.735 558.616 119.911C553.393 123.201 546.768 126.319 538.817 128.006C523.076 131.448 506.754 128.202 490.651 127.972C472.132 127.719 453.543 131.535 436.636 139.099C427.136 143.341 417.99 148.82 407.76 150.744C389.42 154.187 370.678 145.471 356.743 133.187L353.058 115.915C360.74 99.0202 374.287 83.4231 392.447 79.0701C402.579 76.6434 413.163 77.9085 423.56 77.9046C442.08 77.9083 460.618 73.8294 477.415 66.0257C492.026 59.2486 505.588 49.6058 521.361 46.3313C529.313 44.6441 536.627 44.7736 542.732 45.6505C544.909 45.9688 547.119 46.3926 549.074 47.4137C551.028 48.4349 552.737 50.1014 553.338 52.2094C553.949 54.3653 553.368 56.6561 552.586 58.7499C549.946 65.8729 545.111 71.9596 540.373 77.9029" fill="#BDEDFF"/>
<path d="M544.135 110.731C541.789 110.819 539.43 110.648 537.114 110.258C535.966 110.048 534.708 109.723 534.089 108.726C533.194 107.272 534.181 105.399 535.309 104.12C537.98 101.071 541.467 98.8805 544.901 96.738C546.484 95.7429 548.081 94.7574 549.664 93.7623C552.244 92.1482 554.867 90.5008 556.985 88.306C559.103 86.1113 560.706 83.2591 560.777 80.2105C560.808 79.4208 560.71 78.6068 560.315 77.9258C559.944 77.3024 559.347 76.86 558.745 76.456C552.668 72.4393 545.035 71.8875 537.819 70.9926C535.077 70.6485 532.269 70.218 529.807 68.9606C528.436 68.2477 527.047 67.0034 527.166 65.4626C527.261 64.2998 528.202 63.3935 529.071 62.6258L534.02 58.1956" fill="#BDEDFF"/>
<path d="M544.151 110.367C541.71 110.101 539.121 110.087 536.748 109.472C532.2 108.289 536.219 104.004 538.12 102.411C541.513 99.5555 545.545 97.4198 549.305 95.1012C554.734 91.7831 562.748 86.7504 561.757 79.1846C561.336 75.9716 557.779 74.4569 555.107 73.328C551.541 71.8277 547.699 71.1401 543.88 70.6345C540.01 70.1143 535.912 70.0242 532.177 68.8057C531.087 68.4479 529.629 67.9884 528.875 67.0669C527.254 65.0848 529.143 63.8801 530.339 62.8119C531.827 61.4622 533.353 60.1797 534.378 58.4361C534.633 58.0253 534.189 57.5404 533.758 57.7496C532.171 58.4719 530.861 59.5876 529.584 60.7464C528.441 61.7669 527.05 62.7866 526.414 64.23C525.368 66.6245 527.161 68.7221 529.183 69.8297C531.988 71.3801 535.323 71.7693 538.447 72.1625C541.993 72.6098 545.568 72.9519 549.06 73.758C552.121 74.4621 558.364 75.7846 559.378 79.1049C560.601 83.1056 556.974 87.1764 554.095 89.4835C548.015 94.3599 540.247 97.2922 535.068 103.272C533.579 104.995 531.99 107.795 534.062 109.726C536.353 111.887 541.39 111.507 544.201 111.066C544.613 111.01 544.543 110.402 544.151 110.367Z" fill="#6DC1BB"/>
<path d="M429.596 77.7458L442.214 136.835L482.655 128.209L470.037 69.1202L429.596 77.7458Z" fill="#EBBC41"/>
<g style="mix-blend-mode:screen" opacity="0.32">
<path d="M337.489 125.79C340.353 126.819 343.56 125.48 346.002 123.669C348.444 121.858 350.572 119.525 353.304 118.179C357.116 116.311 361.864 116.485 365.165 113.796C366.965 112.323 368.072 110.178 369.5 108.33C373.056 103.713 378.522 101.022 383.952 98.9103C416.919 86.187 455.203 89.8554 486.397 73.2397C496.303 67.9595 506.608 60.4742 517.582 62.8319C519.294 63.1917 521.049 63.8915 522.007 65.345C522.955 66.8127 522.853 68.6982 523.322 70.3846C524.449 74.4663 528.769 76.8259 532.921 77.639C537.074 78.452 541.397 78.1743 545.477 79.2504C546.606 79.5509 547.758 79.9711 548.603 80.7876C550.889 82.9873 549.929 87.0191 547.667 89.2421C545.406 91.465 542.267 92.455 539.458 93.9151C535.056 96.198 531.292 99.7611 528.905 104.123C527.807 106.13 526.977 108.42 527.3 110.694C527.623 112.969 529.373 115.162 531.661 115.347C533.216 115.476 534.688 114.739 536.126 114.146C539.831 112.622 543.916 112.018 547.902 112.428C549.376 112.586 551.174 113.19 551.366 114.67C551.567 116.26 549.749 117.264 548.23 117.761C533.99 122.376 518.697 122.024 503.759 123.095C481.686 124.697 459.229 127.059 438.545 134.955C430.886 137.878 420.955 143.536 413.008 145.559C405.06 147.581 396.538 148.199 388.748 145.651C377.448 141.952 371.083 131.985 359.197 132.319C357.33 132.375 355.452 132.694 353.586 132.501C348.111 131.923 342.713 126.99 337.818 129.482" fill="#BDEDFF"/>
</g>
<path d="M334.756 136.613C339.27 136.733 343.774 136.681 348.294 136.452C346.208 129.897 344.424 123.233 342.965 116.518C338.907 117.639 334.902 118.899 330.934 120.288C331.821 125.81 333.107 131.266 334.756 136.613Z" fill="#2BAD66"/>
<g style="mix-blend-mode:screen" opacity="0.17">
<path d="M333.574 128.649C334.036 131.058 334.637 133.415 335.395 135.753C337.736 135.766 340.063 135.707 342.399 135.571C341.038 133.14 339.71 130.689 338.415 128.22C336.806 128.325 335.193 128.468 333.584 128.635L333.574 128.649Z" fill="#2BAD66"/>
</g>
<g style="mix-blend-mode:multiply" opacity="0.24">
<path d="M336.794 118.34C334.825 118.951 332.865 119.61 330.934 120.288C331.136 121.567 331.371 122.826 331.607 124.086C334.183 123.841 336.768 123.644 339.344 123.523C341.509 127.886 343.731 132.225 345.986 136.545C346.752 136.518 347.518 136.492 348.28 136.442C346.895 132.125 345.65 127.756 344.557 123.344C343.985 121.068 343.451 118.798 342.961 116.494C340.896 117.062 338.84 117.677 336.789 118.316L336.794 118.34Z" fill="#2BAD66"/>
</g>
<path d="M354.058 136.289C354.661 134.802 354.311 133.279 354.067 131.723C353.715 129.491 353.291 127.274 352.833 125.075C352.116 121.684 351.757 116.892 349.574 114.075C349.373 113.816 348.976 114.006 348.946 114.298C348.816 116.04 349.443 117.583 349.907 119.245C350.438 121.118 350.925 123.025 351.35 124.931C352.166 128.639 352.408 132.646 353.493 136.263C353.573 136.546 353.937 136.561 354.058 136.289Z" fill="white"/>
<path d="M359.083 136.545C359.634 134.981 359.228 133.109 359.046 131.49C358.771 129.082 358.395 126.668 357.914 124.288C357.047 119.881 356.349 114.944 353.915 111.107C353.715 110.786 353.274 110.947 353.311 111.325C353.786 115.821 355.644 120.145 356.506 124.589C356.907 126.687 357.245 128.785 357.497 130.887C357.711 132.735 357.599 134.884 358.36 136.6C358.498 136.921 358.967 136.841 359.083 136.545Z" fill="white"/>
<g style="mix-blend-mode:screen" opacity="0.4">
<path d="M383.423 122.831C380.839 124.048 378.607 126.29 377.971 129.064C377.263 132.101 378.564 135.365 380.735 137.612C380.845 137.727 380.979 137.838 381.103 137.963C386.561 140.857 392.961 142.161 399.197 142.502C403.802 142.767 408.546 142.543 412.75 140.647C415.434 139.435 418.021 137.223 418.313 134.28C418.485 132.567 417.84 130.866 416.887 129.437C414.076 125.201 408.917 123.193 403.942 122.181C399.961 121.359 395.865 121.02 391.81 121.145C388.957 121.246 386.05 121.581 383.457 122.812L383.423 122.831Z" fill="#BDEDFF"/>
</g>
<path d="M547.734 118.841C542.876 120.132 538.213 121.969 533.294 123.01C528.111 124.104 522.854 124.44 517.587 124.854C517.218 124.877 517.001 125.479 517.456 125.576C522.694 126.661 528.114 126.329 533.32 125.231C538.527 124.133 543.659 122.403 547.8 118.99C547.853 118.942 547.806 118.827 547.724 118.856L547.734 118.841Z" fill="white"/>
<path d="M529.868 99.158C531.065 98.9848 531.958 98.1502 533.003 97.584C534.207 96.9371 535.486 96.4244 536.723 95.8828C539.546 94.619 542.341 93.3359 544.95 91.6788C547.041 90.3599 554.864 85.3649 550.933 82.4561C550.675 82.2829 550.392 82.5501 550.43 82.8039C550.667 85.0207 547.208 87.4169 545.678 88.551C543.495 90.1615 541.078 91.4076 538.657 92.6297C536.303 93.8137 529.797 95.7642 529.734 99.0474C529.724 99.124 529.796 99.1721 529.868 99.158Z" fill="white"/>
<path d="M405.76 145.702C403.307 144.991 400.802 145.284 398.266 145.098C395.337 144.878 392.437 144.428 389.601 143.667C384.087 142.189 378.925 139.597 373.95 136.819C373.668 136.651 373.308 137.032 373.566 137.268C377.832 141.441 383.234 144.048 388.983 145.518C391.733 146.221 394.565 146.709 397.408 146.871C400.237 147.024 403.233 147.207 405.769 145.813C405.803 145.793 405.827 145.727 405.76 145.702Z" fill="white"/>
<path d="M436.766 135.84C437.085 123.999 434.027 111.243 429.163 100.434C429.049 100.17 428.618 100.317 428.689 100.614C430.116 106.477 431.774 112.245 432.986 118.151C434.198 124.057 435.204 129.99 436.56 135.868C436.593 135.973 436.756 135.978 436.756 135.854L436.766 135.84Z" fill="white"/>
<path d="M486.269 124.157C486.868 120.756 486.162 116.915 485.742 113.515C485.289 109.761 484.688 106.011 483.909 102.309C482.4 95.1433 480.114 88.1429 476.961 81.5368C476.856 81.3211 476.497 81.4539 476.568 81.6887C478.561 88.6595 480.435 95.6538 481.931 102.747C482.681 106.306 483.312 109.888 483.794 113.475C484.262 116.99 484.197 120.833 485.153 124.239C485.338 124.862 486.152 124.764 486.245 124.162L486.269 124.157Z" fill="white"/>
</g>
<defs>
<clipPath id="clip0_24_37">
<rect width="504.786" height="373.52" fill="white" transform="translate(269.306 154.054) rotate(45.9221)"/>
</clipPath>
</defs>
</svg>
