<svg width="433" height="490" viewBox="0 0 433 490" fill="none" xmlns="http://www.w3.org/2000/svg">
<g opacity="0.19" clip-path="url(#clip0_8_2673)">
<path d="M161.489 435.697C209.228 387.987 209.228 310.635 161.489 262.925C113.75 215.216 36.3505 215.216 -11.3883 262.925C-59.1271 310.635 -59.1271 387.987 -11.3883 435.697C36.3505 483.406 113.75 483.406 161.489 435.697Z" fill="#6DC1BB"/>
<g style="mix-blend-mode:screen" opacity="0.2">
<path d="M144.502 373.71C115.523 432.218 44.5988 456.183 -13.9254 427.222C-17.0498 425.661 -20.0766 424.002 -23.0058 422.226C-41.5375 397.363 -50.6569 365.533 -46.0288 332.415C-36.6946 265.593 25.0712 218.99 91.9337 228.318C101.815 229.704 111.247 232.221 120.132 235.754C156.59 270.492 168.013 326.189 144.483 373.71H144.502Z" fill="#6DC1BB"/>
</g>
<g style="mix-blend-mode:screen" opacity="0.2">
<path d="M103.416 321.076C76.2726 375.876 10.9723 399.256 -44.5057 375.018C-47.4543 361.396 -48.0792 347.032 -46.0483 332.415C-36.7141 265.593 25.0517 218.99 91.9142 228.318C97.5772 229.099 103.104 230.27 108.454 231.812C118.648 259.992 117.73 292.115 103.396 321.076H103.416Z" fill="#6DC1BB"/>
</g>
<g style="mix-blend-mode:multiply" opacity="0.28">
<path d="M37.8813 405.774C36.9831 408.897 32.355 408.994 30.3632 411.551C27.766 414.869 30.1094 421.484 26.1062 422.831C23.2942 423.787 19.4277 420.762 17.6312 423.143C16.9282 424.08 17.0844 425.407 16.8501 426.578C15.9323 431.028 9.85921 431.691 6.42236 434.658C4.6844 436.16 3.64943 438.268 2.67305 440.337C1.89195 441.937 1.13037 443.557 0.349266 445.157C0.251629 445.508 0.0954094 445.86 -0.119396 446.133C-0.138924 446.191 -0.177979 446.25 -0.197506 446.308C-0.197506 446.308 -0.217033 446.289 -0.236561 446.269C-0.861443 446.952 -1.85735 447.245 -2.9509 446.543C-4.68885 445.43 -5.89957 443.869 -7.2665 442.366C-8.7506 440.727 -10.7619 439.966 -11.836 437.956C-12.2851 437.116 -12.207 436.102 -11.6016 435.36C-11.6016 435.36 -11.6212 435.341 -11.6407 435.321C-11.6797 435.36 -11.7383 435.399 -11.7774 435.438C-11.7774 435.36 -11.7383 435.302 -11.7188 435.243C-10.4104 430.989 -8.67249 426.832 -7.65705 422.499C-7.34461 421.114 -7.09075 419.65 -7.57894 418.323C-8.0476 417.035 -9.12162 416.098 -10.0199 415.044C-13.7497 410.673 -14.2379 404.233 -12.6757 398.69C-11.1134 393.167 -7.81327 388.308 -4.55216 383.566C-7.96949 383.507 -11.9922 383.117 -13.7301 380.17C-14.3941 379.018 -14.6089 377.633 -15.39 376.54C-17.2646 373.847 -21.2287 374.198 -24.4703 373.808C-32.1056 372.871 -38.3545 365.416 -37.9248 357.727C-37.8077 355.736 -37.5148 353.297 -39.1746 352.204C-40.0143 351.657 -40.8345 351.696 -41.6351 352.048C-41.928 352.536 -42.4357 352.809 -42.9825 352.867C-43.2168 353.043 -43.4512 353.238 -43.705 353.453C-43.705 353.258 -43.705 353.063 -43.705 352.867C-44.3885 352.75 -44.9938 352.321 -45.1305 351.56C-46.7123 342.387 -44.8962 332.161 -42.7286 323.184C-40.1315 312.45 -34.4294 303.454 -30.4848 293.286C-29.9966 292.018 -28.3563 290.866 -26.9894 291.861C-25.9154 292.662 -25.2905 293.11 -25.0562 293.911C-20.9749 295.042 -16.8741 295.101 -13.3591 292.837C-11.6993 291.764 -10.3323 290.261 -8.59438 289.344C-6.83689 288.427 -4.41547 288.271 -3.12664 289.773C-2.44318 290.554 -2.20885 291.627 -1.85735 292.603C-0.646641 295.882 2.43872 298.38 5.87558 298.887C4.93826 303.942 -3.06806 302.966 -6.71973 306.596C-10.1175 309.991 -8.0476 316.295 -3.9468 318.773C-2.98995 319.339 -1.89641 319.827 -1.23247 320.725C-0.646641 321.506 -0.47089 322.501 -0.314671 323.477C0.153996 326.326 0.622654 329.175 1.11085 332.025C1.81384 326.326 2.53636 320.627 3.23936 314.929C3.31747 314.207 3.43463 313.465 3.80565 312.841C5.34834 310.284 9.54677 312.255 10.6989 315.007C11.851 317.759 11.7143 321.096 13.6085 323.399C16.44 326.833 22.5326 326.463 24.7197 330.327C26.4186 333.313 24.4268 337.411 21.3024 338.777C18.1585 340.163 14.4287 339.304 11.48 337.567C9.9178 338.445 10.5427 341.002 12.0073 342.017C13.4718 343.031 15.366 343.227 16.9477 344.066C18.5295 344.905 19.7597 347.052 18.6076 348.437C15.6003 349.706 12.0463 349.686 9.03905 348.379C8.25795 348.047 7.45732 347.618 6.63716 347.735C4.43054 348.027 4.43054 351.15 4.31337 353.375C3.96188 359.717 -3.82964 364.382 -9.59028 361.688C-11.836 360.635 -13.6911 358.722 -16.093 358.137C-18.5144 357.551 -21.7365 359.464 -20.9749 361.825C-19.5103 366.45 -15.1947 370.334 -10.3909 369.612C-9.06304 369.397 -7.40319 369.085 -6.62209 370.197C-6.09484 370.939 -6.29012 371.954 -6.30965 372.871C-6.34871 376.111 -3.63437 378.843 -0.588058 379.975C2.43872 381.126 5.77794 381.067 9.01953 381.263C13.1594 381.516 17.5726 382.336 20.5408 385.263C23.509 388.152 24.1339 393.714 20.8337 396.251C24.9345 396.875 28.9768 397.988 32.8432 399.568C35.5576 400.7 38.6624 403.023 37.8423 405.833L37.8813 405.774ZM64.146 292.525C64.5365 288.134 64.3022 283.45 66.5088 279.645C68.774 275.761 73.2458 273.419 75.101 269.321C76.1555 267.018 76.2921 264.383 77.2685 262.061C79.6509 256.284 86.6418 253.455 89.0437 247.678C90.8597 243.287 89.5514 238.603 87.2862 234.251C86.7589 231.09 82.912 228.045 79.8266 227.655C67.9929 226.133 55.6319 230.328 44.6965 234.134C32.9018 238.232 22.6303 242.799 12.0073 249.434C2.8488 255.152 -7.18839 260.461 -13.7497 269.262C-14.7065 270.55 -13.1248 272.443 -11.6797 271.955C-10.801 271.663 -10.3909 271.507 -10.0394 271.058C-2.79468 269.672 4.8992 270.492 11.6167 273.595C12.9641 274.2 14.3896 274.941 15.8347 274.688C18.0218 274.336 20.1893 271.936 21.9859 273.224C22.4155 273.517 22.6889 274.005 22.9622 274.453C25.8133 279.41 28.6643 284.348 31.5153 289.285C32.3941 290.827 33.3119 292.427 33.5853 294.203C33.7805 295.511 33.6243 296.857 33.4486 298.184C32.6089 304.742 31.7497 311.299 30.91 317.856C34.464 319.32 38.35 316.549 40.7128 313.524C43.0757 310.499 45.1066 306.83 48.6996 305.425C51.7069 304.234 55.2414 304.937 58.1901 303.61C62.1932 301.775 63.7359 296.896 64.1264 292.505L64.146 292.525ZM112.282 397.402C107.361 395.938 105.037 390.142 104.959 385.01C104.9 381.263 105.134 376.52 101.756 374.901C99.6667 373.905 97.2453 374.725 94.9801 375.174C91.7189 375.837 88.1649 375.642 85.2553 374.042C82.3262 372.442 80.1586 369.261 80.3344 365.943C77.6005 366.665 74.9447 364.577 72.0937 364.635C69.5356 364.694 67.5438 366.841 65.1224 367.699C62.3494 368.675 59.1078 367.933 56.5107 369.319C53.191 371.115 52.4685 375.467 52.1365 379.233C52.0779 379.818 52.0389 380.423 52.2732 380.95C52.5661 381.575 53.191 381.965 53.7182 382.395C55.339 383.702 56.2959 385.81 56.2373 387.878C56.2178 388.835 55.9834 389.83 56.2568 390.747C56.6278 391.977 57.7995 392.757 58.8931 393.44C62.7009 395.821 66.7822 398.3 71.2931 398.319C73.9293 398.319 77.1709 397.734 78.6745 399.92C79.0065 400.388 79.2018 400.954 79.6509 401.325C78.4011 402.262 75.7454 403.725 75.0619 405.13C74.8471 405.599 74.6518 406.106 74.6909 406.633C74.769 407.843 75.9797 408.604 76.9756 409.307C78.6745 410.497 80.1586 412.058 80.8616 414.01C81.5646 415.942 81.3888 418.284 80.061 419.865C79.0651 421.075 77.4833 421.816 76.8389 423.241C76.8389 423.241 74.9057 439.771 81.467 446.172C82.3457 447.03 80.0414 448.279 80.9397 449.138C81.8185 449.997 83.244 449.977 84.4156 449.587C85.1772 449.333 85.8997 448.943 86.5637 448.494C87.4424 447.909 88.2626 447.206 89.0827 446.523C89.9615 445.781 90.8402 445.04 91.6994 444.298C94.0818 442.269 96.5618 440.141 97.7725 437.253C98.7489 434.911 98.0654 432.647 99.6276 430.657C98.9442 429.661 99.8425 428.237 100.975 427.827C102.108 427.398 103.357 427.593 104.568 427.495C108.806 427.144 112.125 422.46 111.051 418.342C110.583 416.547 109.411 414.869 109.548 413.015C109.743 410.126 112.77 408.448 115.211 406.867C117.632 405.286 119.975 402.125 118.316 399.744C117.046 397.949 114.449 398.046 112.34 397.422L112.282 397.402ZM193.848 350.408C193.673 341.08 192.852 332.044 191.134 323.34C190.861 321.681 190.548 320.022 190.158 318.403C189.865 317.154 189.513 315.944 189.103 314.773C186.154 304.039 181.644 293.832 175.063 284.153C173.598 281.986 170.845 282.513 170.044 284.524C168.736 285.207 167.467 285.929 166.256 286.768C165.768 287.1 165.26 287.49 165.026 288.075C164.713 288.856 164.987 289.754 165.123 290.593C165.592 293.286 164.596 296.213 162.604 297.95C159.089 301.014 152.821 300.741 151.317 305.327C150.888 306.596 150.966 308.04 150.38 309.23C149.306 311.416 146.494 311.845 144.209 311.377C141.924 310.928 139.698 309.874 137.394 310.167C133.254 310.694 130.188 315.417 126.029 315.417C125.892 313.563 126.029 311.67 126.478 309.874C123.588 310.226 121.342 306.03 118.628 304.937C116.324 304.02 113.766 305.054 111.5 306.088C106.697 308.255 101.873 310.44 97.0891 312.607C95.0387 313.524 92.793 314.636 91.9142 316.822C91.7189 317.31 91.6018 317.837 91.7385 318.325C92.0509 319.496 93.496 319.769 94.6286 319.71C97.8506 319.593 101.034 318.793 103.963 317.368C104.978 316.88 105.974 316.315 107.068 316.178C108.161 316.041 109.43 316.393 109.997 317.407C110.661 318.578 110.465 320.51 111.657 320.959C112.438 321.252 113.492 320.686 114.078 321.311C114.391 321.623 114.43 322.13 114.449 322.599C114.527 324.492 114.566 326.385 114.644 328.278C113.18 329.761 111.247 331.088 109.762 332.552C107.185 335.108 104.236 337.84 100.721 337.723C99.3738 337.684 98.0849 337.216 96.7375 337.06C92.4024 336.552 88.3797 339.284 84.2399 340.826C79.4165 342.641 73.4802 343.363 70.9806 348.125C70.8049 348.457 70.6487 348.847 70.6682 349.237C70.7463 350.174 71.7617 350.623 72.621 350.779C76.0383 351.462 79.6314 351.052 82.8925 349.784C84.5328 349.14 86.095 348.281 87.8134 347.988C89.5123 347.657 91.4651 347.988 92.6172 349.374C93.0859 349.96 93.4178 350.682 93.8865 351.267C95.4097 353.141 98.0654 353.082 100.35 352.906C103.67 352.653 106.99 352.399 110.329 352.126C112.809 351.931 112.985 359.151 110.993 360.732C108.981 362.332 106.267 362.918 104.744 365.026C102.752 367.758 103.689 371.68 104.685 374.959C106.208 379.994 107.751 385.049 109.294 390.084C109.47 390.669 109.665 391.274 110.055 391.723C111.754 393.694 114.644 391.099 115.601 388.62C116.558 386.161 118.179 382.961 120.6 383.644C121.518 383.917 122.221 384.775 123.08 385.244C125.404 386.512 128.236 384.795 130.794 385.322C133.899 385.966 135.519 389.479 137.121 392.387C138.722 395.275 141.749 398.241 144.639 396.914C146.943 395.86 148.076 392.406 150.595 392.25C151.415 392.211 152.235 392.543 152.918 393.05C157.664 396.407 157.644 405.579 163.17 407.062C164.323 407.355 165.611 407.297 166.529 408.077C167.369 408.799 167.623 410.029 167.974 411.102C168.697 413.405 169.986 415.435 171.626 417.132C171.743 417.406 171.88 417.718 172.056 418.05C172.485 418.85 173.325 419.357 174.165 419.357C176.117 419.357 177.055 418.42 177.738 416.976C177.894 416.84 178.07 416.664 178.207 416.469C191.603 397.461 194.298 373.534 193.868 350.389L193.848 350.408Z" fill="#6DC1BB"/>
</g>
<path d="M34.3468 402.242C33.4486 405.365 28.8205 405.462 26.8287 408.019C24.2315 411.336 26.5749 417.952 22.5717 419.299C19.7597 420.255 15.8932 417.23 14.0967 419.611C13.3937 420.548 13.5499 421.875 13.3156 423.046C12.3978 427.495 6.32473 428.159 2.88787 431.125C1.14991 432.628 0.114948 434.736 -0.861431 436.804C-1.64254 438.405 -2.40411 440.024 -3.18522 441.625C-3.28286 441.976 -3.43908 442.327 -3.65388 442.6C-3.67341 442.659 -3.71246 442.718 -3.73199 442.776C-3.73199 442.776 -3.75152 442.757 -3.77105 442.737C-4.39593 443.42 -5.39184 443.713 -6.48539 443.01C-8.22334 441.898 -9.43405 440.337 -10.801 438.834C-12.2851 437.195 -14.2964 436.434 -15.3704 434.423C-15.8196 433.584 -15.7415 432.569 -15.1361 431.828C-15.1361 431.828 -15.1556 431.808 -15.1752 431.789C-15.2142 431.828 -15.2728 431.867 -15.3119 431.906C-15.3119 431.828 -15.2728 431.769 -15.2533 431.711C-13.9449 427.456 -12.207 423.299 -11.1915 418.967C-10.8791 417.581 -10.6252 416.118 -11.1134 414.791C-11.5821 413.503 -12.6561 412.566 -13.5544 411.512C-17.2842 407.141 -17.7723 400.7 -16.2101 395.158C-14.6479 389.635 -11.3478 384.776 -8.08665 380.033C-11.504 379.975 -15.5267 379.584 -17.2646 376.638C-17.9286 375.486 -18.1434 374.101 -18.9245 373.008C-20.7991 370.314 -24.7632 370.666 -28.0048 370.275C-35.6401 369.339 -41.8889 361.884 -41.4593 354.195C-41.3422 352.204 -41.0493 349.764 -42.7091 348.672C-43.5488 348.125 -44.3689 348.164 -45.1696 348.515C-45.4625 349.003 -45.9702 349.277 -46.517 349.335C-46.7513 349.511 -46.9856 349.706 -47.2395 349.921C-47.2395 349.725 -47.2395 349.53 -47.2395 349.335C-47.923 349.218 -48.5283 348.789 -48.665 348.028C-50.2468 338.855 -48.4307 328.629 -46.2631 319.652C-43.666 308.918 -37.9639 299.921 -34.0193 289.754C-33.5311 288.485 -31.8908 287.334 -30.5239 288.329C-29.4499 289.129 -28.825 289.578 -28.5906 290.378C-24.5094 291.51 -20.4086 291.569 -16.8936 289.305C-15.2338 288.232 -13.8668 286.729 -12.1289 285.812C-10.3714 284.894 -7.94995 284.738 -6.66113 286.241C-5.97766 287.022 -5.74333 288.095 -5.39183 289.071C-4.18113 292.349 -1.09576 294.847 2.34109 295.355C1.40377 300.409 -6.60255 299.434 -10.2542 303.063C-13.652 306.459 -11.5821 312.763 -7.48129 315.241C-6.52444 315.807 -5.43089 316.295 -4.76695 317.193C-4.18113 317.973 -4.00538 318.969 -3.84916 319.945C-3.38049 322.794 -2.91183 325.643 -2.42364 328.492C-1.72065 322.794 -0.998127 317.095 -0.295132 311.397C-0.217022 310.675 -0.0998535 309.933 0.271172 309.308C1.81385 306.752 6.01229 308.723 7.16442 311.475C8.31655 314.226 8.17985 317.564 10.074 319.866C12.9055 323.301 18.9981 322.93 21.1852 326.795C22.8841 329.78 20.8923 333.879 17.7679 335.245C14.624 336.63 10.8942 335.772 7.94552 334.035C6.38331 334.913 7.0082 337.47 8.47277 338.484C9.93734 339.499 11.8315 339.694 13.4132 340.534C14.995 341.373 16.2252 343.519 15.0731 344.905C12.0658 346.174 8.51182 346.154 5.50457 344.847C4.72346 344.515 3.92284 344.085 3.10268 344.203C0.896053 344.495 0.896053 347.618 0.778889 349.843C0.427391 356.185 -7.36412 360.849 -13.1248 358.156C-15.3704 357.102 -17.2256 355.19 -19.6275 354.604C-22.0489 354.019 -25.2709 355.931 -24.5094 358.293C-23.0448 362.918 -18.7292 366.802 -13.9254 366.08C-12.5975 365.865 -10.9377 365.553 -10.1566 366.665C-9.62933 367.407 -9.8246 368.421 -9.84413 369.339C-9.88319 372.578 -7.16885 375.31 -4.12254 376.423C-1.09576 377.574 2.24346 377.516 5.48504 377.711C9.62489 377.965 14.0381 378.784 17.0063 381.712C19.9745 384.6 20.5994 390.162 17.2992 392.699C21.4 393.323 25.4423 394.436 29.3087 396.017C32.0231 397.148 35.128 399.471 34.3078 402.281L34.3468 402.242ZM60.6115 288.993C61.002 284.602 60.7677 279.918 62.9743 276.112C65.2395 272.229 69.7113 269.887 71.5665 265.789C72.621 263.486 72.7577 260.851 73.734 258.529C76.1164 252.752 83.1073 249.922 85.5092 244.146C87.3253 239.755 86.0169 235.071 83.7517 230.719C83.2245 227.557 79.3775 224.513 76.2922 224.123C64.4584 222.6 52.0974 226.796 41.162 230.602C29.3673 234.7 19.0958 239.267 8.47277 245.902C-0.68568 251.62 -10.7229 256.928 -17.2842 265.73C-18.241 267.018 -16.6593 268.911 -15.2142 268.423C-14.3355 268.13 -13.9254 267.974 -13.5739 267.525C-6.32916 266.14 1.36472 266.96 8.08221 270.062C9.42962 270.667 10.8551 271.409 12.3002 271.155C14.4873 270.804 16.6548 268.404 18.4514 269.692C18.881 269.984 19.1544 270.472 19.4278 270.921C22.2788 275.878 25.1298 280.816 27.9808 285.753C28.8596 287.295 29.7774 288.895 30.0508 290.671C30.246 291.979 30.0898 293.325 29.9141 294.652C29.0744 301.21 28.2152 307.767 27.3755 314.324C30.9295 315.788 34.8155 313.016 37.1784 309.992C39.5412 306.967 41.5721 303.298 45.1651 301.893C48.1724 300.702 51.7069 301.405 54.6556 300.078C58.6587 298.243 60.2014 293.364 60.5919 288.973L60.6115 288.993ZM108.747 393.87C103.826 392.406 101.502 386.61 101.424 381.477C101.366 377.73 101.6 372.988 98.2217 371.368C96.1322 370.373 93.7108 371.193 91.4456 371.642C88.1845 372.305 84.6304 372.11 81.7208 370.51C78.7917 368.909 76.6241 365.728 76.7999 362.411C74.066 363.133 71.4102 361.045 68.5592 361.103C66.0011 361.162 64.0093 363.308 61.5879 364.167C58.8149 365.143 55.5734 364.401 52.9762 365.787C49.6565 367.582 48.934 371.934 48.602 375.701C48.5434 376.286 48.5044 376.891 48.7387 377.418C49.0316 378.043 49.6565 378.433 50.1837 378.862C51.8045 380.17 52.7614 382.278 52.7028 384.346C52.6637 385.302 52.4489 386.298 52.7223 387.215C53.0934 388.445 54.265 389.225 55.3586 389.908C59.1664 392.289 63.2477 394.768 67.7586 394.787C70.3948 394.787 73.6364 394.202 75.14 396.387C75.472 396.856 75.6673 397.422 76.1164 397.793C74.8666 398.729 72.2109 400.193 71.5274 401.598C71.3126 402.066 71.1173 402.574 71.1564 403.101C71.2345 404.311 72.4452 405.072 73.4411 405.774C75.14 406.965 76.6241 408.526 77.3271 410.478C78.0301 412.41 77.8544 414.752 76.5265 416.332C75.5306 417.542 73.9488 418.284 73.3044 419.709C73.3044 419.709 71.3712 436.238 77.9325 442.64C78.8112 443.498 76.507 444.747 77.4052 445.606C78.284 446.465 79.7095 446.445 80.8811 446.055C81.6427 445.801 82.3652 445.411 83.0292 444.962C83.9079 444.376 84.7281 443.674 85.5482 442.991C86.427 442.249 87.3057 441.508 88.1649 440.766C90.5473 438.736 93.0273 436.609 94.238 433.721C95.2144 431.379 94.5309 429.115 96.0932 427.125C95.4097 426.129 96.308 424.705 97.4406 424.295C98.5732 423.865 99.8229 424.061 101.034 423.963C105.291 423.612 108.591 418.928 107.517 414.81C107.048 413.015 105.876 411.336 106.013 409.482C106.208 406.594 109.235 404.916 111.676 403.335C114.098 401.754 116.441 398.593 114.781 396.212C113.512 394.416 110.915 394.514 108.806 393.889L108.747 393.87ZM199.316 346.876C199.121 337.548 198.242 328.531 196.387 319.808C196.094 318.149 195.743 316.49 195.352 314.87C195.04 313.621 194.649 312.411 194.219 311.241C191.056 300.507 186.213 290.3 179.144 280.62C177.562 278.454 174.633 278.981 173.754 280.991C172.368 281.674 170.982 282.396 169.693 283.236C169.165 283.567 168.638 283.958 168.384 284.543C168.052 285.324 168.326 286.221 168.482 287.061C168.99 289.754 167.916 292.681 165.787 294.418C162.018 297.482 155.281 297.209 153.68 301.795C153.211 303.063 153.309 304.508 152.684 305.698C151.532 307.884 148.525 308.313 146.064 307.845C143.623 307.396 141.221 306.342 138.741 306.635C134.289 307.162 131.009 311.885 126.537 311.885C126.38 310.031 126.537 308.138 127.025 306.342C123.92 306.693 121.499 302.498 118.589 301.405C116.128 300.487 113.375 301.522 110.954 302.556C105.798 304.722 100.624 306.908 95.4878 309.074C93.2812 309.992 90.8793 311.104 89.9224 313.29C89.7076 313.778 89.5905 314.305 89.7272 314.792C90.0787 315.963 91.6213 316.237 92.832 316.178C96.2884 316.061 99.7058 315.261 102.85 313.836C103.943 313.348 105.017 312.782 106.189 312.646C107.361 312.509 108.708 312.86 109.333 313.875C110.036 315.046 109.841 316.978 111.129 317.427C111.969 317.72 113.102 317.154 113.727 317.778C114.059 318.091 114.098 318.598 114.117 319.066C114.195 320.959 114.254 322.852 114.332 324.745C112.75 326.229 110.7 327.556 109.099 329.019C106.345 331.576 103.162 334.308 99.3933 334.191C97.9483 334.152 96.5618 333.684 95.1168 333.527C90.4497 333.02 86.1536 335.752 81.7208 337.294C76.546 339.109 70.18 339.831 67.5047 344.593C67.3094 344.925 67.1532 345.315 67.1728 345.705C67.2509 346.642 68.3444 347.091 69.2817 347.247C72.9529 347.93 76.7999 347.52 80.3148 346.252C82.0723 345.608 83.7517 344.749 85.5873 344.456C87.4034 344.124 89.4928 344.456 90.7426 345.842C91.2503 346.427 91.5823 347.149 92.1095 347.735C93.7498 349.608 96.5813 349.55 99.0614 349.374C102.635 349.12 106.189 348.867 109.762 348.594C112.438 348.398 112.614 355.619 110.465 357.2C108.298 358.8 105.388 359.386 103.748 361.493C101.619 364.226 102.615 368.148 103.689 371.427C105.33 376.462 106.99 381.516 108.63 386.552C108.825 387.137 109.02 387.742 109.45 388.191C111.266 390.162 114.371 387.566 115.406 385.088C116.441 382.629 118.179 379.428 120.757 380.111C121.752 380.385 122.494 381.243 123.412 381.712C125.912 382.98 128.958 381.263 131.692 381.79C135.012 382.434 136.75 385.947 138.488 388.854C140.206 391.743 143.448 394.709 146.552 393.382C149.033 392.328 150.243 388.874 152.938 388.718C153.817 388.679 154.696 389.01 155.418 389.518C160.515 392.875 160.495 402.047 166.412 403.53C167.642 403.823 169.029 403.764 170.005 404.545C170.903 405.267 171.196 406.497 171.567 407.57C172.348 409.873 173.735 411.902 175.473 413.6C175.59 413.873 175.746 414.186 175.922 414.517C176.371 415.318 177.269 415.825 178.187 415.825C180.277 415.825 181.273 414.888 182.015 413.444C182.19 413.307 182.366 413.132 182.522 412.937C196.895 393.928 199.785 370.002 199.316 346.857V346.876Z" fill="#2BAD66"/>
<g style="mix-blend-mode:difference" opacity="0.1">
<path d="M34.3468 402.242C33.4486 405.365 28.8205 405.462 26.8287 408.019C24.2315 411.336 26.5749 417.952 22.5717 419.299C19.7597 420.255 15.8932 417.23 14.0967 419.611C13.3937 420.548 13.5499 421.875 13.3156 423.046C12.3978 427.495 6.32473 428.159 2.88787 431.125C1.14991 432.628 0.114948 434.736 -0.861431 436.804C-1.64254 438.405 -2.40411 440.024 -3.18522 441.625C-3.28286 441.976 -3.43908 442.327 -3.65388 442.6C-3.67341 442.659 -3.71246 442.718 -3.73199 442.776C-3.73199 442.776 -3.75152 442.757 -3.77105 442.737C-4.39593 443.42 -5.39184 443.713 -6.48539 443.01C-8.22334 441.898 -9.43405 440.337 -10.801 438.834C-12.2851 437.195 -14.2964 436.434 -15.3704 434.423C-15.8196 433.584 -15.7415 432.569 -15.1361 431.828C-15.1361 431.828 -15.1556 431.808 -15.1752 431.789C-15.2142 431.828 -15.2728 431.867 -15.3119 431.906C-15.3119 431.828 -15.2728 431.769 -15.2533 431.711C-13.9449 427.456 -12.207 423.299 -11.1915 418.967C-10.8791 417.581 -10.6252 416.118 -11.1134 414.791C-11.5821 413.503 -12.6561 412.566 -13.5544 411.512C-17.2842 407.141 -17.7723 400.7 -16.2101 395.158C-14.6479 389.635 -11.3478 384.776 -8.08665 380.033C-11.504 379.975 -15.5267 379.584 -17.2646 376.638C-17.9286 375.486 -18.1434 374.101 -18.9245 373.008C-20.7991 370.314 -24.7632 370.666 -28.0048 370.275C-35.6401 369.339 -41.8889 361.884 -41.4593 354.195C-41.3422 352.204 -41.0493 349.764 -42.7091 348.672C-43.5488 348.125 -44.3689 348.164 -45.1696 348.515C-45.4625 349.003 -45.9702 349.277 -46.517 349.335C-46.7513 349.511 -46.9856 349.706 -47.2395 349.921C-47.2395 349.725 -47.2395 349.53 -47.2395 349.335C-47.923 349.218 -48.5283 348.789 -48.665 348.028C-50.2468 338.855 -48.4307 328.629 -46.2631 319.652C-43.666 308.918 -37.9639 299.921 -34.0193 289.754C-33.5311 288.485 -31.8908 287.334 -30.5239 288.329C-29.4499 289.129 -28.825 289.578 -28.5906 290.378C-24.5094 291.51 -20.4086 291.569 -16.8936 289.305C-15.2338 288.232 -13.8668 286.729 -12.1289 285.812C-10.3714 284.894 -7.94995 284.738 -6.66113 286.241C-5.97766 287.022 -5.74333 288.095 -5.39183 289.071C-4.18113 292.349 -1.09576 294.847 2.34109 295.355C1.40377 300.409 -6.60255 299.434 -10.2542 303.063C-13.652 306.459 -11.5821 312.763 -7.48129 315.241C-6.52444 315.807 -5.43089 316.295 -4.76695 317.193C-4.18113 317.973 -4.00538 318.969 -3.84916 319.945C-3.38049 322.794 -2.91183 325.643 -2.42364 328.492C-1.72065 322.794 -0.998127 317.095 -0.295132 311.397C-0.217022 310.675 -0.0998535 309.933 0.271172 309.308C1.81385 306.752 6.01229 308.723 7.16442 311.475C8.31655 314.226 8.17985 317.564 10.074 319.866C12.9055 323.301 18.9981 322.93 21.1852 326.795C22.8841 329.78 20.8923 333.879 17.7679 335.245C14.624 336.63 10.8942 335.772 7.94552 334.035C6.38331 334.913 7.0082 337.47 8.47277 338.484C9.93734 339.499 11.8315 339.694 13.4132 340.534C14.995 341.373 16.2252 343.519 15.0731 344.905C12.0658 346.174 8.51182 346.154 5.50457 344.847C4.72346 344.515 3.92284 344.085 3.10268 344.203C0.896053 344.495 0.896053 347.618 0.778889 349.843C0.427391 356.185 -7.36412 360.849 -13.1248 358.156C-15.3704 357.102 -17.2256 355.19 -19.6275 354.604C-22.0489 354.019 -25.2709 355.931 -24.5094 358.293C-23.0448 362.918 -18.7292 366.802 -13.9254 366.08C-12.5975 365.865 -10.9377 365.553 -10.1566 366.665C-9.62933 367.407 -9.8246 368.421 -9.84413 369.339C-9.88319 372.578 -7.16885 375.31 -4.12254 376.423C-1.09576 377.574 2.24346 377.516 5.48504 377.711C9.62489 377.965 14.0381 378.784 17.0063 381.712C19.9745 384.6 20.5994 390.162 17.2992 392.699C21.4 393.323 25.4423 394.436 29.3087 396.017C32.0231 397.148 35.128 399.471 34.3078 402.281L34.3468 402.242ZM60.6115 288.993C61.002 284.602 60.7677 279.918 62.9743 276.112C65.2395 272.229 69.7113 269.887 71.5665 265.789C72.621 263.486 72.7577 260.851 73.734 258.529C76.1164 252.752 83.1073 249.922 85.5092 244.146C87.3253 239.755 86.0169 235.071 83.7517 230.719C83.2245 227.557 79.3775 224.513 76.2922 224.123C64.4584 222.6 52.0974 226.796 41.162 230.602C29.3673 234.7 19.0958 239.267 8.47277 245.902C-0.68568 251.62 -10.7229 256.928 -17.2842 265.73C-18.241 267.018 -16.6593 268.911 -15.2142 268.423C-14.3355 268.13 -13.9254 267.974 -13.5739 267.525C-6.32916 266.14 1.36472 266.96 8.08221 270.062C9.42962 270.667 10.8551 271.409 12.3002 271.155C14.4873 270.804 16.6548 268.404 18.4514 269.692C18.881 269.984 19.1544 270.472 19.4278 270.921C22.2788 275.878 25.1298 280.816 27.9808 285.753C28.8596 287.295 29.7774 288.895 30.0508 290.671C30.246 291.979 30.0898 293.325 29.9141 294.652C29.0744 301.21 28.2152 307.767 27.3755 314.324C30.9295 315.788 34.8155 313.016 37.1784 309.992C39.5412 306.967 41.5721 303.298 45.1651 301.893C48.1724 300.702 51.7069 301.405 54.6556 300.078C58.6587 298.243 60.2014 293.364 60.5919 288.973L60.6115 288.993ZM108.747 393.87C103.826 392.406 101.502 386.61 101.424 381.477C101.366 377.73 101.6 372.988 98.2217 371.368C96.1322 370.373 93.7108 371.193 91.4456 371.642C88.1845 372.305 84.6304 372.11 81.7208 370.51C78.7917 368.909 76.6241 365.728 76.7999 362.411C74.066 363.133 71.4102 361.045 68.5592 361.103C66.0011 361.162 64.0093 363.308 61.5879 364.167C58.8149 365.143 55.5734 364.401 52.9762 365.787C49.6565 367.582 48.934 371.934 48.602 375.701C48.5434 376.286 48.5044 376.891 48.7387 377.418C49.0316 378.043 49.6565 378.433 50.1837 378.862C51.8045 380.17 52.7614 382.278 52.7028 384.346C52.6637 385.302 52.4489 386.298 52.7223 387.215C53.0934 388.445 54.265 389.225 55.3586 389.908C59.1664 392.289 63.2477 394.768 67.7586 394.787C70.3948 394.787 73.6364 394.202 75.14 396.387C75.472 396.856 75.6673 397.422 76.1164 397.793C74.8666 398.729 72.2109 400.193 71.5274 401.598C71.3126 402.066 71.1173 402.574 71.1564 403.101C71.2345 404.311 72.4452 405.072 73.4411 405.774C75.14 406.965 76.6241 408.526 77.3271 410.478C78.0301 412.41 77.8544 414.752 76.5265 416.332C75.5306 417.542 73.9488 418.284 73.3044 419.709C73.3044 419.709 71.3712 436.238 77.9325 442.64C78.8112 443.498 76.507 444.747 77.4052 445.606C78.284 446.465 79.7095 446.445 80.8811 446.055C81.6427 445.801 82.3652 445.411 83.0292 444.962C83.9079 444.376 84.7281 443.674 85.5482 442.991C86.427 442.249 87.3057 441.508 88.1649 440.766C90.5473 438.736 93.0273 436.609 94.238 433.721C95.2144 431.379 94.5309 429.115 96.0932 427.125C95.4097 426.129 96.308 424.705 97.4406 424.295C98.5732 423.865 99.8229 424.061 101.034 423.963C105.291 423.612 108.591 418.928 107.517 414.81C107.048 413.015 105.876 411.336 106.013 409.482C106.208 406.594 109.235 404.916 111.676 403.335C114.098 401.754 116.441 398.593 114.781 396.212C113.512 394.416 110.915 394.514 108.806 393.889L108.747 393.87ZM199.316 346.876C199.121 337.548 198.242 328.531 196.387 319.808C196.094 318.149 195.743 316.49 195.352 314.87C195.04 313.621 194.649 312.411 194.219 311.241C191.056 300.507 186.213 290.3 179.144 280.62C177.562 278.454 174.633 278.981 173.754 280.991C172.368 281.674 170.982 282.396 169.693 283.236C169.165 283.567 168.638 283.958 168.384 284.543C168.052 285.324 168.326 286.221 168.482 287.061C168.99 289.754 167.916 292.681 165.787 294.418C162.018 297.482 155.281 297.209 153.68 301.795C153.211 303.063 153.309 304.508 152.684 305.698C151.532 307.884 148.525 308.313 146.064 307.845C143.623 307.396 141.221 306.342 138.741 306.635C134.289 307.162 131.009 311.885 126.537 311.885C126.38 310.031 126.537 308.138 127.025 306.342C123.92 306.693 121.499 302.498 118.589 301.405C116.128 300.487 113.375 301.522 110.954 302.556C105.798 304.722 100.624 306.908 95.4878 309.074C93.2812 309.992 90.8793 311.104 89.9224 313.29C89.7076 313.778 89.5905 314.305 89.7272 314.792C90.0787 315.963 91.6213 316.237 92.832 316.178C96.2884 316.061 99.7058 315.261 102.85 313.836C103.943 313.348 105.017 312.782 106.189 312.646C107.361 312.509 108.708 312.86 109.333 313.875C110.036 315.046 109.841 316.978 111.129 317.427C111.969 317.72 113.102 317.154 113.727 317.778C114.059 318.091 114.098 318.598 114.117 319.066C114.195 320.959 114.254 322.852 114.332 324.745C112.75 326.229 110.7 327.556 109.099 329.019C106.345 331.576 103.162 334.308 99.3933 334.191C97.9483 334.152 96.5618 333.684 95.1168 333.527C90.4497 333.02 86.1536 335.752 81.7208 337.294C76.546 339.109 70.18 339.831 67.5047 344.593C67.3094 344.925 67.1532 345.315 67.1728 345.705C67.2509 346.642 68.3444 347.091 69.2817 347.247C72.9529 347.93 76.7999 347.52 80.3148 346.252C82.0723 345.608 83.7517 344.749 85.5873 344.456C87.4034 344.124 89.4928 344.456 90.7426 345.842C91.2503 346.427 91.5823 347.149 92.1095 347.735C93.7498 349.608 96.5813 349.55 99.0614 349.374C102.635 349.12 106.189 348.867 109.762 348.594C112.438 348.398 112.614 355.619 110.465 357.2C108.298 358.8 105.388 359.386 103.748 361.493C101.619 364.226 102.615 368.148 103.689 371.427C105.33 376.462 106.99 381.516 108.63 386.552C108.825 387.137 109.02 387.742 109.45 388.191C111.266 390.162 114.371 387.566 115.406 385.088C116.441 382.629 118.179 379.428 120.757 380.111C121.752 380.385 122.494 381.243 123.412 381.712C125.912 382.98 128.958 381.263 131.692 381.79C135.012 382.434 136.75 385.947 138.488 388.854C140.206 391.743 143.448 394.709 146.552 393.382C149.033 392.328 150.243 388.874 152.938 388.718C153.817 388.679 154.696 389.01 155.418 389.518C160.515 392.875 160.495 402.047 166.412 403.53C167.642 403.823 169.029 403.764 170.005 404.545C170.903 405.267 171.196 406.497 171.567 407.57C172.348 409.873 173.735 411.902 175.473 413.6C175.59 413.873 175.746 414.186 175.922 414.517C176.371 415.318 177.269 415.825 178.187 415.825C180.277 415.825 181.273 414.888 182.015 413.444C182.19 413.307 182.366 413.132 182.522 412.937C196.895 393.928 199.785 370.002 199.316 346.857V346.876Z" fill="#2BAD66"/>
</g>
<path d="M78.8503 439.185C78.5573 438.697 78.2449 438.366 78.0496 438.17C74.6128 434.814 74.0855 425.622 74.5737 419.865C74.7299 419.728 74.9057 419.591 75.0424 419.474C75.6087 419.006 76.3117 418.421 76.9561 417.64C79.1822 414.966 79.768 411.102 78.4792 407.589C77.62 405.228 75.9406 403.062 73.6364 401.286C73.9293 401.091 74.2222 400.895 74.437 400.739C74.9643 400.388 75.472 400.056 75.843 399.764C76.8975 398.963 77.5028 397.734 77.5224 396.426C77.5224 395.294 77.0928 394.202 76.3117 393.401C76.1554 393.089 75.9992 392.816 75.8235 392.562C73.402 389.049 69.3208 389.049 67.7976 389.049C67.2704 389.049 66.7431 389.049 66.2159 389.089C65.8058 389.089 65.3957 389.128 65.0052 389.128C61.7831 389.128 58.6197 387.293 54.8118 384.912C54.6751 384.815 54.3236 384.6 54.0697 384.424C54.0697 384.346 54.0697 384.249 54.0892 384.171C54.1283 383.819 54.1478 383.448 54.1674 383.097C54.265 379.682 52.7614 376.345 50.1056 374.179C50.2814 372.383 50.711 368.968 52.1951 368.168C52.82 367.836 53.9526 367.758 55.1828 367.68C56.7059 367.582 58.4244 367.465 60.2209 366.821C61.5683 366.333 62.7009 365.67 63.6968 365.065C64.4779 364.596 65.4348 364.011 65.8644 364.011C66.4307 364.011 67.2313 364.265 68.1101 364.557C68.774 364.772 69.5161 365.006 70.3362 365.182C71.3712 368.343 73.695 371.154 76.878 372.891C79.3189 374.237 82.1309 374.901 85.1967 374.901C86.6027 374.901 88.0673 374.744 89.5123 374.471C89.9029 374.393 90.2934 374.296 90.684 374.218C91.6408 374.003 92.5196 373.808 93.1835 373.808C93.4178 373.808 93.5545 373.827 93.5936 373.866C94.3161 374.218 94.3552 377.906 94.3552 379.292V380.17C94.4723 386.844 97.7139 394.514 104.744 396.602C105.525 396.836 106.287 396.973 106.97 397.109C107.204 397.148 107.478 397.207 107.751 397.266C107.458 397.617 107.029 398.027 106.501 398.378L105.857 398.788C103.221 400.486 99.2175 403.042 98.9051 407.824C98.7684 410.009 99.5105 411.844 100.057 413.171C100.253 413.678 100.448 414.147 100.545 414.517C100.741 415.24 100.506 416.176 99.9401 416.957C99.3738 417.738 98.5731 418.264 97.8311 418.323C97.5577 418.342 97.2648 418.342 96.9914 418.342C95.976 418.342 94.57 418.342 93.1054 418.908C91.1917 419.631 89.6295 421.25 89.0241 423.182C88.8289 423.787 88.7312 424.412 88.7507 425.017C88.1063 426.461 87.9501 427.847 87.8134 428.939C87.7158 429.681 87.6572 430.267 87.4619 430.715C86.6222 432.726 84.5718 434.462 82.58 436.16L79.9633 438.385C79.6118 438.697 79.2603 438.99 78.9088 439.263L78.8503 439.185ZM-8.86777 436.277C-9.12162 436.004 -9.39501 435.692 -9.64887 435.399C-9.90273 435.106 -10.1566 434.814 -10.43 434.521C-11.2697 433.584 -12.1875 432.882 -12.9295 432.335C-13.3005 432.042 -13.613 431.808 -13.8473 431.594C-13.7497 431.262 -13.6911 430.911 -13.6716 430.579C-13.281 429.369 -12.8514 428.139 -12.4023 426.871C-11.4649 424.197 -10.5081 421.426 -9.82462 418.518C-9.37548 416.547 -9.02399 414.225 -9.90273 411.863C-10.5471 410.107 -11.6993 408.838 -12.539 407.921C-12.7147 407.726 -12.91 407.511 -13.0857 407.316C-16.0344 403.881 -15.9368 398.651 -14.8823 394.904C-13.4763 389.967 -10.3714 385.42 -7.34461 381.048C-7.03217 380.58 -6.79784 380.072 -6.7002 379.545C-4.14209 380.228 -1.56444 380.345 0.759346 380.463C1.30612 380.482 1.87242 380.521 2.41919 380.541C6.75432 380.814 9.54677 381.692 11.2261 383.331C12.0072 384.092 12.515 385.42 12.4369 386.551C12.4173 386.981 12.3002 387.547 11.9096 387.859C10.5427 388.913 9.95685 390.65 10.3669 392.309C10.7965 393.967 12.1635 395.216 13.8624 395.47C17.6507 396.056 21.361 397.07 24.8955 398.534C25.8328 398.924 26.5358 399.393 26.9654 399.764C26.5944 399.978 26.1062 400.193 25.7547 400.369C24.1339 401.13 22.1421 402.086 20.6385 403.979C18.7443 406.399 18.4514 409.346 18.2366 411.688C18.178 412.312 18.0999 413.171 17.9827 413.756C17.6312 413.678 17.1625 413.581 16.7525 413.483C15.737 413.249 14.5849 412.976 13.3547 412.976C11.109 412.976 9.15622 413.912 7.86739 415.61C6.63715 417.23 6.50046 418.967 6.3833 420.118C6.36377 420.333 6.34424 420.567 6.30519 420.782C6.14896 421.524 4.27431 422.421 2.634 423.221C0.915565 424.061 -1.05672 425.017 -2.7361 426.48C-5.17705 428.588 -6.4854 431.34 -7.53989 433.545L-8.86777 436.297V436.277ZM175.824 409.365C175.824 409.365 175.668 409.19 175.59 409.112C174.243 407.804 173.286 406.34 172.759 404.799L172.622 404.35C172.212 403.101 171.606 401.208 169.829 399.783C168.248 398.515 166.49 398.261 165.318 398.085C165.065 398.046 164.811 398.027 164.576 397.968C163.424 397.675 162.507 395.88 161.237 393.167C159.831 390.162 158.23 386.747 154.93 384.561C153.485 383.585 151.844 383.058 150.243 383.058C150.106 383.058 149.989 383.058 149.853 383.058C146.592 383.234 144.6 385.4 143.291 386.825C142.881 387.254 142.276 387.918 142.022 388.054C141.69 387.996 140.362 387.039 139.308 385.263L138.839 384.463C137.043 381.38 134.582 377.145 129.661 376.189C129.017 376.072 128.372 376.013 127.669 376.013C126.537 376.013 125.482 376.169 124.564 376.306C123.9 376.403 123.256 376.501 122.807 376.501C122.573 376.501 122.494 376.481 122.494 376.481C122.358 376.403 122.202 376.286 122.045 376.169C121.401 375.701 120.425 374.979 119.077 374.588C118.433 374.413 117.808 374.335 117.202 374.335C112.496 374.335 110.055 378.784 108.981 381.165C107.614 377.008 106.267 372.851 104.9 368.695C104.51 367.504 103.318 363.913 104.275 362.703C104.666 362.196 105.662 361.708 106.736 361.181C107.81 360.654 109.02 360.069 110.173 359.21C113.727 356.575 113.844 350.682 112.789 347.52C111.832 344.612 109.665 342.875 107.009 342.875C106.911 342.875 106.443 342.895 106.443 342.895C102.928 343.149 99.4128 343.422 95.8978 343.656C95.3706 343.695 94.8434 343.734 94.3161 343.734C92.832 343.734 92.4805 343.461 92.4805 343.461C92.3633 343.324 92.2657 343.168 92.1681 343.012C91.8947 342.602 91.5627 342.095 91.1136 341.568C89.3952 339.655 86.8956 338.621 84.0641 338.621C83.8884 338.621 83.7321 338.621 83.5564 338.621C83.7517 338.543 83.947 338.465 84.1422 338.367C86.6613 337.294 89.0437 336.299 91.1722 336.299C91.4065 336.299 91.6408 336.299 91.8556 336.338C92.3243 336.396 92.793 336.494 93.2421 336.591C94.1989 336.787 95.273 337.001 96.4837 337.04H96.8156C102.401 337.04 106.658 333.098 109.196 330.737C109.841 330.151 110.641 329.527 111.481 328.883C112.477 328.122 113.492 327.341 114.43 326.443C115.347 325.585 115.836 324.394 115.777 323.145L115.562 317.466C115.523 316.724 115.445 314.753 113.805 313.212C113.277 312.685 112.321 312.021 110.876 311.806C110.719 311.299 110.485 310.753 110.153 310.206C109.099 308.469 107.282 307.318 105.154 306.986C106.697 306.342 108.239 305.679 109.782 305.035C111.129 304.469 112.633 303.864 113.707 303.864C113.941 303.864 114.117 303.883 114.273 303.942C114.722 304.117 115.66 304.937 116.363 305.522C117.261 306.303 118.257 307.181 119.429 307.864C119.37 308.821 119.39 309.796 119.468 310.772C119.643 312.997 121.499 314.695 123.725 314.695C127.357 314.695 130.188 312.86 132.473 311.377C133.938 310.44 135.324 309.543 136.437 309.406C136.554 309.406 136.671 309.406 136.789 309.406C137.628 309.406 138.722 309.699 139.874 309.992C140.694 310.206 141.534 310.421 142.452 310.597C143.291 310.753 144.151 310.831 145.029 310.831C148.974 310.831 152.098 309.152 153.641 306.225C154.305 304.937 154.52 303.688 154.676 302.771C154.735 302.4 154.813 301.99 154.871 301.795C155.184 300.936 157.117 300.253 158.992 299.59C161.14 298.829 163.581 297.97 165.65 296.292C168.951 293.579 170.61 289.149 169.868 284.953C170.728 284.446 171.665 283.938 172.778 283.392C173.09 283.236 173.383 283.04 173.657 282.826C179.749 291.413 184.202 300.644 187.268 311.006C187.287 311.084 187.326 311.162 187.346 311.241C187.775 312.451 188.107 313.485 188.342 314.461C188.693 315.885 189.025 317.427 189.318 319.125C191.056 327.341 191.974 335.928 192.169 345.51C192.52 363.172 191.271 388.913 176.332 408.78C176.137 408.955 175.961 409.131 175.805 409.326L175.824 409.365ZM-15.1166 373.808C-15.7805 373.613 -16.1906 373.339 -16.3859 373.008C-16.4835 372.832 -16.6398 372.422 -16.7764 372.032C-17.0889 371.193 -17.4794 370.139 -18.202 369.085C-18.241 369.026 -18.2801 368.987 -18.2996 368.929C-18.1629 368.929 -18.0457 368.929 -17.909 368.929C-17.5771 368.929 -17.2256 368.929 -16.8936 368.89C-16.7179 370.705 -16.0539 372.344 -15.0971 373.769L-15.1166 373.808ZM-28.4735 364.733C-29.0788 364.694 -29.7037 364.655 -30.2896 364.577C-35.6596 363.913 -40.2877 358.39 -39.9948 352.985V352.516C-39.8386 350.252 -39.5652 346.017 -43.1582 343.656C-44.2909 342.914 -45.5601 342.524 -46.849 342.524C-47.1224 342.524 -47.3957 342.524 -47.6691 342.583C-48.294 334.659 -46.5756 326.053 -44.9157 319.203C-43.3926 312.86 -40.6782 307.142 -37.8272 301.092C-36.4993 298.282 -35.1324 295.413 -33.8826 292.427C-33.4921 292.701 -33.0429 292.915 -32.5548 293.052C-30.3481 293.657 -28.2392 293.969 -26.2669 293.969C-22.9862 293.969 -19.9985 293.13 -17.4013 291.452C-16.4835 290.866 -15.6634 290.203 -14.9604 289.617C-14.2379 289.032 -13.5544 288.466 -12.949 288.154C-12.8319 288.095 -12.7147 288.056 -12.5975 288.017C-12.5585 288.114 -12.539 288.212 -12.4999 288.29C-12.4023 288.563 -12.3242 288.837 -12.207 289.11C-11.4064 291.256 -10.098 293.15 -8.41863 294.652C-10.9767 295.452 -13.8473 296.37 -16.0735 298.575C-18.3582 300.858 -19.3736 303.981 -18.9635 307.396C-18.4754 311.494 -15.9953 315.339 -12.4999 317.447C-12.246 317.603 -12.0312 317.72 -11.7969 317.856C-11.5626 317.993 -11.2501 318.169 -11.0549 318.286C-10.9963 318.52 -10.9182 318.93 -10.8791 319.183C-10.5276 321.311 -10.1761 323.477 -9.80509 325.624L-9.45359 327.731C-9.1021 329.8 -7.32508 331.303 -5.23563 331.303C-5.2161 331.303 -5.17705 331.303 -5.13799 331.303C-3.00948 331.264 -1.23247 329.663 -0.978611 327.556L0.837452 312.938C0.95462 313.368 1.05226 313.817 1.1499 314.265C1.59903 316.315 2.16533 318.891 3.9814 321.096C6.0318 323.594 8.88283 324.667 11.1676 325.526C12.6907 326.111 14.2725 326.697 14.6825 327.419C14.7802 327.595 14.7802 327.907 14.663 328.258C14.4287 328.941 13.8624 329.585 13.2765 329.839C12.7688 330.054 12.2025 330.171 11.5776 330.171C10.2693 330.171 8.76566 329.702 7.35968 328.863C6.69574 328.453 5.93416 328.258 5.17258 328.258C4.45007 328.258 3.74707 328.434 3.08313 328.805C1.22801 329.839 0.0954056 331.673 -0.021759 333.879C-0.0998688 335.479 0.368793 337.099 1.24754 338.445C1.03273 338.426 0.817928 338.406 0.603123 338.406C0.290684 338.406 -0.0022316 338.426 -0.314671 338.465C-5.84098 339.206 -6.15343 345.315 -6.2706 347.618V348.106C-6.44634 350.701 -9.37548 353.16 -12.3437 353.16C-12.9881 353.16 -13.5934 353.024 -14.1207 352.789C-14.7261 352.516 -15.39 352.048 -16.1125 351.579C-17.5771 350.604 -19.2369 349.491 -21.424 348.964C-22.0489 348.808 -22.7128 348.73 -23.3768 348.73C-26.1692 348.73 -28.864 350.057 -30.4067 352.165C-31.676 353.921 -32.047 356.088 -31.3831 358.098C-30.5434 360.713 -29.1374 362.996 -27.3409 364.791C-27.7119 364.752 -28.0829 364.733 -28.4344 364.713L-28.4735 364.733ZM31.3396 293.794C31.5153 292.427 31.7497 290.573 31.4567 288.622C31.0857 286.085 29.875 283.977 28.8986 282.279C26.0085 277.264 23.1575 272.326 20.3065 267.369C19.9355 266.725 19.3106 265.613 18.0413 264.735C17.0454 264.013 15.7761 263.603 14.4482 263.603C12.6126 263.603 11.109 264.364 9.91779 264.969C9.58583 265.145 9.07811 265.398 8.82425 265.476C8.5118 265.418 7.82834 265.086 7.35968 264.871L7.02771 264.715C1.97005 262.373 -3.77106 261.144 -9.5317 261.144C-10.1761 261.144 -10.8205 261.144 -11.4649 261.183C-6.93453 257.143 -1.50586 253.825 3.80565 250.586C5.19211 249.747 6.55904 248.907 7.90645 248.068C17.4359 242.116 27.2583 237.51 39.7169 233.178C48.1333 230.251 58.6001 226.621 68.2858 226.621C69.8676 226.621 71.4298 226.718 72.8943 226.913C74.4175 227.109 76.5069 228.962 76.6827 229.977C76.7608 230.426 76.8975 230.856 77.1123 231.246C79.2603 235.383 79.7681 238.486 78.7136 241.062C77.8739 243.072 75.9406 244.848 73.8902 246.741C71.3712 249.064 68.5006 251.679 66.9384 255.445C66.3331 256.87 66.0011 258.314 65.7082 259.583C65.4543 260.695 65.2005 261.749 64.8294 262.549C64.1655 264.013 62.74 265.379 61.2364 266.823C59.6156 268.384 57.7604 270.16 56.413 272.482C54.1478 276.425 53.894 280.757 53.6596 284.563C53.6011 285.421 53.562 286.28 53.4839 287.139C53.1324 291.081 51.8436 293.911 50.047 294.73C49.1878 295.121 47.899 295.238 46.5516 295.335C44.7941 295.491 42.7828 295.648 40.7519 296.467C36.7487 298.028 34.3859 301.268 32.2964 304.137C31.8668 304.742 31.4177 305.347 30.9686 305.913C30.4999 306.498 30.0117 307.006 29.543 307.435L31.3005 293.754L31.3396 293.794Z" fill="#2BAD66"/>
<path d="M197.266 258.548C196.387 262.685 196.875 266.471 197.402 270.667C197.91 274.727 199.062 278.688 200.234 282.63C204.237 296.272 208.26 309.913 212.263 323.555L231.263 328.004C223.862 304.215 217.867 279.996 213.317 255.504C212.849 252.947 211.755 250.761 211.657 248.146C206.873 251.601 202.03 255.094 197.266 258.548Z" fill="#BDEDFF"/>
<g style="mix-blend-mode:difference" opacity="0.1">
<path d="M197.266 258.548C196.387 262.685 196.875 266.471 197.402 270.667C197.91 274.727 199.062 278.688 200.234 282.63C204.237 296.272 208.26 309.913 212.263 323.555L231.263 328.004C223.862 304.215 217.867 279.996 213.317 255.504C212.849 252.947 211.755 250.761 211.657 248.146C206.873 251.601 202.03 255.094 197.266 258.548Z" fill="#BDEDFF"/>
</g>
<path d="M212.458 454.641C208.826 437.877 202.089 421.933 197.891 405.286C194.59 392.172 192.833 378.53 187.365 366.157C185.159 361.181 182.386 356.497 179.359 351.97C177.113 352.828 174.867 353.706 172.622 354.565C169.536 355.756 166.392 356.966 163.092 357.375C162.194 357.492 161.218 357.512 160.476 357.005C159.929 356.634 159.597 356.029 159.284 355.443C150.419 338.582 143.604 320.627 139.034 302.126C133.215 295.96 127.22 289.968 121.03 284.153C121.83 293.383 122.944 302.575 125.131 311.572C127.669 321.974 131.672 331.966 135.031 342.153C142.276 364.128 146.611 387.098 155.535 408.467C167.779 437.741 188.224 462.897 210.642 485.359C213.571 488.286 216.93 491.331 220.718 492.658C219.683 489.887 218.805 487.057 218.082 484.208C215.602 474.489 214.567 464.458 212.439 454.641H212.458Z" fill="#BDEDFF"/>
<g style="mix-blend-mode:difference" opacity="0.1">
<path d="M212.458 454.641C208.826 437.877 202.089 421.933 197.891 405.286C194.59 392.172 192.833 378.53 187.365 366.157C185.159 361.181 182.386 356.497 179.359 351.97C177.113 352.828 174.867 353.706 172.622 354.565C169.536 355.756 166.392 356.966 163.092 357.375C162.194 357.492 161.218 357.512 160.476 357.005C159.929 356.634 159.597 356.029 159.284 355.443C150.419 338.582 143.604 320.627 139.034 302.126C133.215 295.96 127.22 289.968 121.03 284.153C121.83 293.383 122.944 302.575 125.131 311.572C127.669 321.974 131.672 331.966 135.031 342.153C142.276 364.128 146.611 387.098 155.535 408.467C167.779 437.741 188.224 462.897 210.642 485.359C213.571 488.286 216.93 491.331 220.718 492.658C219.683 489.887 218.805 487.057 218.082 484.208C215.602 474.489 214.567 464.458 212.439 454.641H212.458Z" fill="#BDEDFF"/>
</g>
<path d="M336.615 427.066C331.323 418.674 325.269 410.79 319.88 402.457C299.473 371.036 288.616 334.464 271.666 301.053C268.463 294.73 264.987 288.485 260.32 283.157C247.1 268.111 225.62 262.061 211.677 248.127C206.873 251.6 202.069 255.074 197.285 258.529C202.909 264.364 209.588 269.165 216.95 272.541C224.721 276.112 233.509 278.317 239.504 284.426C243.898 288.895 246.28 294.945 247.823 301.014C248.408 303.337 248.877 305.952 247.705 308.059C246.944 309.425 245.596 310.362 244.249 311.143C237.141 315.183 228.549 315.748 220.406 315.065C212.263 314.382 204.217 312.548 196.035 312.158C189.728 311.845 183.401 312.392 177.25 313.777C176.117 314.031 174.965 314.304 173.833 314.07C171.724 313.621 170.454 311.533 169.322 309.699C160.71 295.472 147.646 284.699 134.27 274.649C129.856 276.893 125.521 279.235 121.245 281.713C121.108 281.791 120.991 281.869 120.854 281.928C120.913 282.669 120.971 283.411 121.049 284.153C127.22 289.968 133.235 295.96 139.054 302.127C151.727 315.592 163.561 329.858 174.399 344.846C176.098 347.188 177.777 349.569 179.378 351.97C182.405 356.497 185.178 361.181 187.385 366.157C192.872 378.53 194.61 392.172 197.91 405.286C202.109 421.933 208.846 437.858 212.478 454.641C214.606 464.438 215.641 474.469 218.121 484.208C218.844 487.057 219.722 489.887 220.757 492.658C222.32 493.204 223.94 493.478 225.659 493.321C229.603 492.951 232.943 490.375 236.048 487.916C250.244 476.636 264.948 465.414 282.074 459.423C295.236 454.817 309.413 453.451 322.36 448.279C329.507 445.43 336.439 440.922 341.438 435.126C339.895 432.413 338.314 429.72 336.634 427.085L336.615 427.066Z" fill="#BDEDFF"/>
<g style="mix-blend-mode:screen" opacity="0.29">
<path d="M218.668 381.614C223.745 382.882 228.607 385.029 232.962 387.917C235.208 389.401 237.688 391.177 240.324 390.611C242.667 390.103 244.171 387.937 245.987 386.395C249.229 383.643 253.642 382.824 257.508 381.067C261.375 379.311 265.163 375.701 264.519 371.505C247.647 377.769 228.256 376.93 211.97 369.241C209.353 368.011 206.092 366.645 203.788 368.402C209.197 373.456 215.133 377.945 221.46 381.77L218.648 381.633L218.668 381.614Z" fill="#BDEDFF"/>
</g>
<g style="mix-blend-mode:screen" opacity="0.29">
<path d="M200.839 331.732C202.851 332.005 204.862 331.478 206.834 330.951C213.356 329.175 219.84 327.204 226.245 325.018C218.59 320.257 208.572 323.125 199.765 321.193C196.192 320.413 192.852 318.812 189.396 317.602C184.495 315.866 179.32 314.89 174.106 314.695C175.863 316.178 177.074 318.325 178.695 319.983C180.667 322.013 183.225 323.34 185.725 324.628C189.123 326.384 192.54 328.121 195.938 329.878C197.5 330.678 199.101 331.498 200.859 331.732H200.839Z" fill="#BDEDFF"/>
</g>
<g style="mix-blend-mode:screen" opacity="0.29">
<path d="M210.134 343.012C209.548 343.324 208.924 343.714 208.826 344.358C208.748 344.963 209.177 345.49 209.588 345.939C213.532 350.233 217.965 354.058 222.769 357.356C223.569 357.902 224.487 358.449 225.405 358.8C229.642 357.707 232.747 353.863 234.72 349.881C236.809 345.666 238.117 341.002 240.91 337.216C243.663 333.469 247.686 330.815 250.361 327.009C254.755 320.744 254.579 311.65 249.932 305.561C249.424 313.446 246.26 321.135 241.086 327.107C239.992 328.375 238.781 329.585 237.278 330.307C235.833 331.01 234.231 331.224 232.689 331.654C230.15 332.356 227.807 333.605 225.483 334.835C220.367 337.567 215.251 340.28 210.134 343.012Z" fill="#BDEDFF"/>
</g>
<g style="mix-blend-mode:screen" opacity="0.29">
<path d="M277.68 383C275.396 392.757 269.947 401.871 269.752 411.902C269.694 415.239 270.221 418.557 270.045 421.894C269.479 433.33 260.418 443.166 249.697 447.187C247.608 447.967 245.362 448.611 243.702 450.114C242.042 451.597 241.164 454.29 242.472 456.105C248.076 454.407 254.97 455.695 259.168 451.597C260.926 449.86 261.843 447.479 263.171 445.372C266.315 440.376 271.685 437.312 276.841 434.404C280.981 432.062 285.316 429.486 287.464 425.27C290.041 420.196 288.831 414.127 287.561 408.585C285.12 397.949 282.66 387.313 280.219 376.676C279.848 375.037 279.477 373.398 279.203 371.739C278.989 375.525 278.579 379.311 277.719 383H277.68Z" fill="#BDEDFF"/>
</g>
<g opacity="0.42">
<path d="M290.217 440.2C295.861 435.009 300.703 430.11 302.266 422.304C304.082 413.19 301.934 403.471 297.52 395.47C297.228 394.943 296.388 395.099 296.466 395.763C297.442 404.194 300.723 412.41 299.356 420.997C298.712 425.114 297.071 428.705 294.513 431.964C292.463 434.579 290.549 436.433 289.534 439.673C289.416 440.063 289.866 440.512 290.217 440.18V440.2Z" fill="white"/>
</g>
<g opacity="0.42">
<path d="M219.879 259.504C225.503 268.306 237.473 271.799 245.577 277.751C255.282 284.836 262.722 295.159 267.819 305.952C267.975 306.264 268.541 306.147 268.444 305.776C265.593 294.906 259.988 286.026 251.513 278.61C247.354 274.961 242.667 272.131 237.844 269.418C231.986 266.12 226.459 261.553 220.367 258.802C219.918 258.607 219.625 259.153 219.859 259.485L219.879 259.504Z" fill="white"/>
</g>
<g opacity="0.42">
<path d="M134.699 279.371C137.999 285.792 144.19 291.081 149.052 296.389C154.168 301.97 159.382 307.064 165.006 312.099C165.24 312.314 165.553 311.962 165.377 311.728C160.593 305.464 155.652 299.628 150.282 293.852C145.635 288.856 141.046 282.591 135.207 279C134.953 278.844 134.543 279.078 134.719 279.391L134.699 279.371Z" fill="white"/>
</g>
<g opacity="0.42">
<path d="M197.812 465.98C195.489 461.784 191.974 458.447 188.927 454.778C185.119 450.192 181.429 445.489 177.914 440.688C171.118 431.418 165.826 421.016 158.601 412.097C158.328 411.766 157.839 412.097 157.976 412.468C161.491 423.007 168.599 432.452 175.18 441.312C181.429 449.724 188.654 460.555 197.715 466.058C197.773 466.097 197.871 466.058 197.832 465.961L197.812 465.98Z" fill="white"/>
</g>
<g opacity="0.42">
<path d="M149.911 379.916C150.36 371.934 145.81 363.367 143.194 355.99C139.894 346.661 137.082 337.196 132.414 328.473C132.219 328.102 131.536 328.2 131.653 328.687C133.723 337.606 137.218 345.959 140.147 354.624C142.862 362.625 144.326 373.3 149.618 380.014C149.696 380.111 149.892 380.072 149.911 379.936V379.916Z" fill="white"/>
</g>
<path d="M222.241 493.204C217.711 487.955 214.079 482.549 211.911 475.894C209.607 468.849 207.596 461.882 204.667 455.051C202.265 449.489 200.039 443.303 196.231 438.521C194.708 436.609 192.95 435.419 191.134 433.838C186.975 430.208 185.549 426.597 184.553 421.27C184.495 420.918 184.006 420.996 184.026 421.348C184.241 426.675 184.866 431.554 188.966 435.301C195.86 441.566 198.984 448.787 202.636 457.257C208.104 469.942 209.724 485.183 221.499 493.946C221.968 494.297 222.613 493.673 222.222 493.204H222.241Z" fill="#BDEDFF"/>
<path d="M158.62 295.725C161.042 300.038 164.401 303.668 167.33 307.65C170.552 312.002 173.344 316.666 177.113 320.588C180.198 323.789 183.87 325.741 187.619 328.043C191.603 330.483 194.805 334.327 199.238 335.85C199.628 335.986 200.058 335.616 199.882 335.206C196.25 327.146 185.901 324.882 179.73 319.32C171.88 312.236 166.685 302.615 159.05 295.413C158.855 295.218 158.484 295.511 158.62 295.745V295.725Z" fill="#BDEDFF"/>
<g style="mix-blend-mode:multiply" opacity="0.3">
<path d="M158.62 295.725C161.042 300.038 164.401 303.668 167.33 307.65C170.552 312.002 173.344 316.666 177.113 320.588C180.198 323.789 183.87 325.741 187.619 328.043C191.603 330.483 194.805 334.327 199.238 335.85C199.628 335.986 200.058 335.616 199.882 335.206C196.25 327.146 185.901 324.882 179.73 319.32C171.88 312.236 166.685 302.615 159.05 295.413C158.855 295.218 158.484 295.511 158.62 295.745V295.725Z" fill="#BDEDFF"/>
</g>
<path d="M250.029 304.722C249.443 310.206 253.31 315.163 252.412 320.588C251.435 326.404 245.421 329.819 241.847 333.996C238.625 337.762 237.981 342.056 236.204 346.544C233.489 353.394 227.026 355.463 222.632 360.732C222.359 361.064 222.691 361.61 223.101 361.532C228.549 360.654 233.685 356.907 236.946 352.496C238.703 350.116 239.543 347.52 240.383 344.71C241.789 339.889 243.566 336.864 247.139 333.254C250.439 329.917 254.169 326.58 255.126 321.759C256.259 315.983 253.095 309.757 250.849 304.624C250.674 304.234 250.068 304.312 250.029 304.742V304.722Z" fill="#BDEDFF"/>
<g style="mix-blend-mode:multiply" opacity="0.3">
<path d="M250.029 304.722C249.443 310.206 253.31 315.163 252.412 320.588C251.435 326.404 245.421 329.819 241.847 333.996C238.625 337.762 237.981 342.056 236.204 346.544C233.489 353.394 227.026 355.463 222.632 360.732C222.359 361.064 222.691 361.61 223.101 361.532C228.549 360.654 233.685 356.907 236.946 352.496C238.703 350.116 239.543 347.52 240.383 344.71C241.789 339.889 243.566 336.864 247.139 333.254C250.439 329.917 254.169 326.58 255.126 321.759C256.259 315.983 253.095 309.757 250.849 304.624C250.674 304.234 250.068 304.312 250.029 304.742V304.722Z" fill="#BDEDFF"/>
</g>
<path d="M216.949 384.775C219.683 382.863 226.987 387.742 229.369 388.874C232.474 390.318 235.247 390.65 238.664 390.552C244.405 390.396 249.443 388.6 250.986 382.648L249.209 384.014C254.247 384.971 260.086 384.346 262.585 379.37C262.742 379.077 262.429 378.628 262.078 378.726C257.743 379.877 254.306 381.731 249.619 380.872C248.701 380.697 248.037 381.438 247.842 382.238C246.358 388.074 237.883 388.21 233.118 386.981C229.408 386.024 226.381 383.526 222.593 382.707C220.562 382.277 216.559 381.516 216.539 384.541C216.539 384.756 216.754 384.912 216.949 384.775Z" fill="#BDEDFF"/>
<g style="mix-blend-mode:multiply" opacity="0.3">
<path d="M216.949 384.775C219.683 382.863 226.987 387.742 229.369 388.874C232.474 390.318 235.247 390.65 238.664 390.552C244.405 390.396 249.443 388.6 250.986 382.648L249.209 384.014C254.247 384.971 260.086 384.346 262.585 379.37C262.742 379.077 262.429 378.628 262.078 378.726C257.743 379.877 254.306 381.731 249.619 380.872C248.701 380.697 248.037 381.438 247.842 382.238C246.358 388.074 237.883 388.21 233.118 386.981C229.408 386.024 226.381 383.526 222.593 382.707C220.562 382.277 216.559 381.516 216.539 384.541C216.539 384.756 216.754 384.912 216.949 384.775Z" fill="#BDEDFF"/>
</g>
<path d="M277.954 362.703C277.563 372.5 279.321 382.531 280.844 392.191C282.289 401.52 286.233 411.649 285.862 421.094C285.53 429.408 281.137 431.574 274.204 434.404C271.119 435.653 268.6 437.038 266.335 439.536C263.367 442.815 261.492 446.894 258.66 450.25C253.642 456.203 244.054 459.208 241.105 449.411C240.949 448.884 240.09 448.904 239.933 449.411C237.551 457.061 246.573 460.711 252.783 458.662C258.114 456.886 261.551 452.183 264.538 447.713C267.018 444.005 269.381 440.298 273.482 438.209C276.177 436.843 279.262 436.355 281.898 434.814C291.857 428.959 289.006 416.703 286.897 407.453C283.519 392.679 283.011 377.125 279.028 362.567C278.891 362.04 277.993 362.176 277.973 362.703H277.954Z" fill="#BDEDFF"/>
<g style="mix-blend-mode:multiply" opacity="0.3">
<path d="M277.954 362.703C277.563 372.5 279.321 382.531 280.844 392.191C282.289 401.52 286.233 411.649 285.862 421.094C285.53 429.408 281.137 431.574 274.204 434.404C271.119 435.653 268.6 437.038 266.335 439.536C263.367 442.815 261.492 446.894 258.66 450.25C253.642 456.203 244.054 459.208 241.105 449.411C240.949 448.884 240.09 448.904 239.933 449.411C237.551 457.061 246.573 460.711 252.783 458.662C258.114 456.886 261.551 452.183 264.538 447.713C267.018 444.005 269.381 440.298 273.482 438.209C276.177 436.843 279.262 436.355 281.898 434.814C291.857 428.959 289.006 416.703 286.897 407.453C283.519 392.679 283.011 377.125 279.028 362.567C278.891 362.04 277.993 362.176 277.973 362.703H277.954Z" fill="#BDEDFF"/>
</g>
<path d="M172.036 404.681C172.446 401.793 172.27 399.178 171.001 396.504C169.517 393.362 166.549 391.723 164.772 388.952C162.194 384.951 162.409 379.877 160.612 375.564C159.363 372.559 157.39 370.1 155.047 367.836C154.793 367.582 154.363 367.953 154.5 368.265C156.101 371.661 157.527 375.076 158.581 378.686C159.441 381.653 159.714 384.97 161.022 387.781C161.843 389.537 163.014 390.591 164.362 391.938C168.306 395.841 170.454 399.08 171.274 404.681C171.333 405.091 171.958 405.091 172.016 404.681H172.036Z" fill="#BDEDFF"/>
<path d="M198.398 261.397C200.859 262.881 201.777 265.808 203.827 267.721C205.721 269.477 208.123 270.57 210.486 271.507C217.574 274.317 224.8 276.698 232.279 278.259C232.552 278.318 232.611 277.947 232.396 277.83C225.581 274.317 218.473 272.131 211.365 269.34C207.791 267.935 205.506 266.14 202.87 263.408C201.405 261.905 200.878 261.319 198.75 260.753C198.379 260.656 197.988 261.144 198.379 261.397H198.398Z" fill="#BDEDFF"/>
<g style="mix-blend-mode:multiply" opacity="0.3">
<path d="M198.398 261.397C200.859 262.881 201.777 265.808 203.827 267.721C205.721 269.477 208.123 270.57 210.486 271.507C217.574 274.317 224.8 276.698 232.279 278.259C232.552 278.318 232.611 277.947 232.396 277.83C225.581 274.317 218.473 272.131 211.365 269.34C207.791 267.935 205.506 266.14 202.87 263.408C201.405 261.905 200.878 261.319 198.75 260.753C198.379 260.656 197.988 261.144 198.379 261.397H198.398Z" fill="#BDEDFF"/>
</g>
<path d="M120.854 283.821C135.637 300.038 150.712 315.963 165.006 332.61C165.123 332.747 165.318 332.59 165.221 332.454C152.84 314.246 137.433 298.282 121.323 283.352C121.049 283.099 120.581 283.548 120.854 283.84V283.821Z" fill="#BDEDFF"/>
<g style="mix-blend-mode:multiply" opacity="0.3">
<path d="M120.854 283.821C135.637 300.038 150.712 315.963 165.006 332.61C165.123 332.747 165.318 332.59 165.221 332.454C152.84 314.246 137.433 298.282 121.323 283.352C121.049 283.099 120.581 283.548 120.854 283.84V283.821Z" fill="#BDEDFF"/>
</g>
<path d="M416.678 55.312C412.636 56.561 409.57 58.8443 406.153 61.3424C402.852 63.7623 399.962 66.7092 397.092 69.6365C387.133 79.7847 377.154 89.9328 367.195 100.1L372.565 118.855C389.749 100.803 407.988 83.7658 427.164 67.8606C429.176 66.2018 430.543 64.1721 432.788 62.8255C427.438 60.347 422.028 57.8295 416.678 55.3315V55.312Z" fill="#BDEDFF"/>
<g style="mix-blend-mode:difference" opacity="0.1">
<path d="M416.678 55.312C412.636 56.561 409.57 58.8443 406.153 61.3424C402.852 63.7623 399.962 66.7092 397.092 69.6365C387.133 79.7847 377.154 89.9328 367.195 100.1L372.565 118.855C389.749 100.803 407.988 83.7658 427.164 67.8606C429.176 66.2018 430.543 64.1721 432.788 62.8255C427.438 60.347 422.028 57.8295 416.678 55.3315V55.312Z" fill="#BDEDFF"/>
</g>
<path d="M252.783 164.19C265.671 152.851 276.294 139.19 288.792 127.422C298.633 118.133 309.706 109.975 317.829 99.1443C321.09 94.7923 323.824 90.089 326.324 85.2491C324.468 83.7074 322.613 82.1656 320.758 80.6239C318.2 78.4967 315.623 76.35 313.67 73.6763C313.142 72.9542 312.635 72.1151 312.713 71.2173C312.771 70.5538 313.142 69.9683 313.514 69.4219C323.922 53.4581 336.283 38.7628 350.225 25.7654C352.784 17.6859 355.088 9.50882 357.158 1.29272C349.483 6.50341 341.985 11.9483 335.209 18.2518C327.359 25.5507 320.582 33.9034 313.318 41.7877C297.638 58.8249 279.692 73.7934 265.378 92.0015C245.772 116.962 233.763 147.055 225.073 177.578C223.94 181.559 222.925 185.969 223.608 189.931C225.522 187.667 227.573 185.54 229.701 183.51C236.985 176.602 245.245 170.806 252.763 164.17L252.783 164.19Z" fill="#BDEDFF"/>
<g style="mix-blend-mode:difference" opacity="0.1">
<path d="M252.783 164.19C265.671 152.851 276.294 139.19 288.792 127.422C298.633 118.133 309.706 109.975 317.829 99.1443C321.09 94.7923 323.824 90.089 326.324 85.2491C324.468 83.7074 322.613 82.1656 320.758 80.6239C318.2 78.4967 315.623 76.35 313.67 73.6763C313.142 72.9542 312.635 72.1151 312.713 71.2173C312.771 70.5538 313.142 69.9683 313.514 69.4219C323.922 53.4581 336.283 38.7628 350.225 25.7654C352.784 17.6859 355.088 9.50882 357.158 1.29272C349.483 6.50341 341.985 11.9483 335.209 18.2518C327.359 25.5507 320.582 33.9034 313.318 41.7877C297.638 58.8249 279.692 73.7934 265.378 92.0015C245.772 116.962 233.763 147.055 225.073 177.578C223.94 181.559 222.925 185.969 223.608 189.931C225.522 187.667 227.573 185.54 229.701 183.51C236.985 176.602 245.245 170.806 252.763 164.17L252.783 164.19Z" fill="#BDEDFF"/>
</g>
<path d="M337.396 259.075C342.141 250.371 346.086 241.238 350.733 232.475C368.23 199.338 394.885 172.055 415.799 140.966C419.744 135.092 423.532 129.023 425.895 122.348C432.593 103.477 427.399 81.7753 432.788 62.8256C427.418 60.3276 422.048 57.8296 416.678 55.3316C414.315 63.0793 413.397 71.2564 414.022 79.3359C414.706 87.8642 417.049 96.6072 414.647 104.823C412.89 110.834 408.75 115.869 404.219 120.163C402.481 121.821 400.431 123.48 398.009 123.5C396.447 123.5 394.963 122.797 393.635 121.978C386.644 117.743 381.958 110.522 378.58 103.086C375.201 95.6509 372.877 87.7276 369.245 80.4092C366.453 74.7692 362.879 69.5 358.681 64.7967C357.919 63.938 357.099 63.0598 356.767 61.9474C356.142 59.8787 357.333 57.7515 358.388 55.878C366.609 41.4169 369.655 24.77 371.921 8.20125C367.82 5.44954 363.641 2.79541 359.403 0.277889C359.286 0.199826 359.15 0.121764 359.013 0.0437012C358.388 0.45353 357.763 0.882875 357.158 1.2927C355.088 9.5088 352.784 17.6859 350.225 25.7653C344.641 43.388 337.943 60.6594 330.132 77.4233C328.901 80.0384 327.652 82.6535 326.324 85.2491C323.844 90.089 321.11 94.7923 317.829 99.1442C309.686 109.956 298.633 118.133 288.792 127.422C276.294 139.19 265.671 152.851 252.783 164.19C245.245 170.825 237.004 176.621 229.721 183.53C227.592 185.56 225.542 187.687 223.628 189.951C223.901 191.59 224.468 193.132 225.444 194.537C227.69 197.796 231.576 199.455 235.227 200.957C252.002 207.847 268.971 215.204 282.562 227.226C293.01 236.456 301.113 248.166 311.932 256.928C317.907 261.768 325.23 265.632 332.729 267.155C334.349 264.481 335.931 261.788 337.415 259.056L337.396 259.075Z" fill="#BDEDFF"/>
<g style="mix-blend-mode:screen" opacity="0.29">
<path d="M319.606 133.999C320.973 139.054 321.461 144.323 321.071 149.553C320.856 152.227 320.524 155.271 322.32 157.281C323.902 159.077 326.538 159.33 328.765 160.17C332.748 161.653 335.619 165.107 339.036 167.625C342.453 170.142 347.453 171.684 350.811 169.088C337.122 157.418 328.394 140.088 327.163 122.134C326.968 119.245 326.558 115.732 323.922 114.581C322.145 121.763 321.11 129.14 320.856 136.536L319.606 134.019V133.999Z" fill="#BDEDFF"/>
</g>
<g style="mix-blend-mode:screen" opacity="0.29">
<path d="M354.482 94.1093C355.225 96.0023 356.67 97.505 358.076 98.9491C362.801 103.789 367.703 108.473 372.721 113C373.151 104.004 365.75 96.6463 363.153 88.0204C362.098 84.5076 361.844 80.8191 361.239 77.2282C360.36 72.0956 358.681 67.1191 356.338 62.4744C355.888 64.7382 354.619 66.8264 353.936 69.0511C353.116 71.7443 353.213 74.6326 353.311 77.4429C353.448 81.268 353.584 85.093 353.701 88.8986C353.76 90.655 353.838 92.4504 354.482 94.0897V94.1093Z" fill="#BDEDFF"/>
</g>
<g style="mix-blend-mode:screen" opacity="0.29">
<path d="M349.151 107.731C348.605 107.38 347.941 107.009 347.335 107.243C346.769 107.458 346.515 108.102 346.32 108.668C344.504 114.21 343.313 119.948 342.766 125.744C342.668 126.72 342.649 127.774 342.805 128.75C345.812 131.911 350.714 132.75 355.127 132.536C359.833 132.301 364.539 131.189 369.206 131.774C373.815 132.36 378.111 134.565 382.739 135.034C390.355 135.814 398.224 131.209 401.271 124.202C394.143 127.598 385.883 128.613 378.13 126.993C376.49 126.661 374.85 126.193 373.463 125.237C372.155 124.32 371.179 123.031 370.046 121.88C368.191 120.007 365.965 118.562 363.758 117.138C358.876 113.996 354.014 110.873 349.132 107.731H349.151Z" fill="#BDEDFF"/>
</g>
<g style="mix-blend-mode:screen" opacity="0.29">
<path d="M347.16 186.165C337.513 188.936 326.909 188.624 318.044 193.327C315.095 194.888 312.459 196.976 309.452 198.459C299.18 203.534 286.175 200.45 277.426 193.034C275.728 191.59 274.068 189.951 271.959 189.229C269.85 188.507 267.057 189.053 266.12 191.083C270.338 195.161 272.584 201.797 278.208 203.456C280.57 204.158 283.109 203.768 285.589 203.904C291.486 204.217 296.778 207.417 301.816 210.481C305.878 212.94 310.233 215.477 314.978 215.302C320.661 215.087 325.386 211.047 329.604 207.242C337.708 199.923 345.793 192.605 353.897 185.286C355.146 184.155 356.396 183.042 357.724 181.988C354.307 183.647 350.811 185.13 347.16 186.184V186.165Z" fill="#BDEDFF"/>
</g>
<g opacity="0.42">
<path d="M303.301 224.981C310.584 227.382 317.224 229.216 324.8 226.777C333.646 223.927 341.087 217.292 345.929 209.544C346.242 209.037 345.695 208.373 345.168 208.764C338.275 213.721 332.709 220.59 324.527 223.596C320.622 225.04 316.697 225.372 312.576 224.727C309.276 224.201 306.737 223.439 303.398 224.142C303.008 224.22 302.812 224.845 303.281 225.001L303.301 224.981Z" fill="white"/>
</g>
<g opacity="0.42">
<path d="M426.871 75.5109C421.931 84.7027 424.704 96.861 423.473 106.834C422.009 118.758 416.619 130.272 409.687 139.991C409.492 140.264 409.863 140.713 410.136 140.459C418.24 132.672 423.259 123.441 425.602 112.435C426.754 107.029 426.949 101.545 426.969 96.0414C426.969 89.328 428.297 82.2828 427.731 75.628C427.691 75.1401 427.067 75.1596 426.871 75.5109Z" fill="white"/>
</g>
<g opacity="0.42">
<path d="M367.976 10.8749C363.973 16.8857 362.372 24.8676 360.106 31.6981C357.724 38.8799 355.83 45.9055 354.17 53.2824C354.111 53.5752 354.561 53.6922 354.678 53.419C357.822 46.1982 360.516 39.036 362.938 31.5225C365.027 25.0237 368.269 17.9591 368.562 11.1091C368.562 10.8163 368.171 10.5626 367.976 10.8749Z" fill="white"/>
</g>
<g opacity="0.42">
<path d="M235.735 156.93C238.254 152.851 239.465 148.168 241.183 143.718C243.331 138.156 245.655 132.653 248.135 127.227C252.919 116.767 259.442 107.087 263.699 96.4511C263.855 96.0413 263.347 95.7876 263.054 96.0803C255.556 104.296 250.771 115.089 246.241 125.159C241.945 134.721 236.008 146.294 235.598 156.891C235.598 156.95 235.696 157.008 235.735 156.95V156.93Z" fill="white"/>
</g>
<g opacity="0.42">
<path d="M287.561 73.1688C294.748 69.656 300.02 61.518 305.195 55.6438C311.737 48.2083 318.63 41.1436 323.98 32.8104C324.215 32.4592 323.785 31.9127 323.434 32.2445C316.658 38.3919 311.053 45.5151 304.921 52.3066C299.239 58.5711 290.647 65.0503 287.347 72.9542C287.288 73.0713 287.425 73.2274 287.561 73.1688Z" fill="white"/>
</g>
<path d="M223.862 191.512C226.245 184.994 229.193 179.197 233.939 174.065C238.957 168.62 244.073 163.468 248.604 157.574C252.294 152.773 256.61 147.816 258.934 142.157C259.852 139.912 260.047 137.785 260.555 135.424C261.707 130.018 264.148 127.032 268.327 123.558C268.6 123.344 268.307 122.953 268.014 123.129C263.464 125.92 259.5 128.827 258.231 134.233C256.102 143.308 251.338 149.553 245.714 156.852C237.297 167.8 224.78 176.641 222.866 191.2C222.788 191.765 223.647 192.039 223.862 191.473V191.512Z" fill="#BDEDFF"/>
<path d="M365.34 39.719C362.743 43.9344 361.22 48.6377 359.169 53.1263C356.943 58.0637 354.229 62.7865 352.627 67.9777C351.319 72.2321 351.417 76.389 351.241 80.78C351.065 85.4442 349.269 90.1085 350.089 94.7142C350.167 95.1045 350.694 95.3191 350.967 94.9484C356.24 87.8447 353.174 77.716 355.029 69.617C357.392 59.3127 363.27 50.1014 365.828 39.8947C365.887 39.6214 365.477 39.4458 365.32 39.68L365.34 39.719Z" fill="#BDEDFF"/>
<g style="mix-blend-mode:multiply" opacity="0.3">
<path d="M365.34 39.719C362.743 43.9344 361.22 48.6377 359.169 53.1263C356.943 58.0637 354.229 62.7865 352.627 67.9777C351.319 72.2321 351.417 76.389 351.241 80.78C351.065 85.4442 349.269 90.1085 350.089 94.7142C350.167 95.1045 350.694 95.3191 350.967 94.9484C356.24 87.8447 353.174 77.716 355.029 69.617C357.392 59.3127 363.27 50.1014 365.828 39.8947C365.887 39.6214 365.477 39.4458 365.32 39.68L365.34 39.719Z" fill="#BDEDFF"/>
</g>
<path d="M402.071 123.851C396.994 125.998 394.553 131.814 389.359 133.668C383.813 135.639 377.896 132.067 372.487 130.994C367.625 130.018 363.563 131.56 358.779 132.184C351.456 133.16 346.515 128.515 339.759 127.266C339.329 127.188 339.017 127.735 339.29 128.067C342.707 132.399 348.487 135.053 353.936 135.736C356.865 136.107 359.56 135.58 362.411 134.936C367.312 133.824 370.827 133.882 375.728 135.248C380.259 136.517 385.004 138.137 389.671 136.614C395.276 134.799 399.162 128.984 402.559 124.534C402.813 124.202 402.462 123.695 402.052 123.871L402.071 123.851Z" fill="#BDEDFF"/>
<g style="mix-blend-mode:multiply" opacity="0.3">
<path d="M402.071 123.851C396.994 125.998 394.553 131.814 389.359 133.668C383.813 135.639 377.896 132.067 372.487 130.994C367.625 130.018 363.563 131.56 358.779 132.184C351.456 133.16 346.515 128.515 339.759 127.266C339.329 127.188 339.017 127.735 339.29 128.067C342.707 132.399 348.487 135.053 353.936 135.736C356.865 136.107 359.56 135.58 362.411 134.936C367.312 133.824 370.827 133.882 375.728 135.248C380.259 136.517 385.004 138.137 389.671 136.614C395.276 134.799 399.162 128.984 402.559 124.534C402.813 124.202 402.462 123.695 402.052 123.871L402.071 123.851Z" fill="#BDEDFF"/>
</g>
<path d="M316.013 134.038C319.02 135.502 318.317 144.245 318.493 146.88C318.727 150.295 319.821 152.871 321.559 155.798C324.488 160.736 328.53 164.248 334.467 162.707L332.397 161.829C334.018 166.688 337.415 171.489 342.981 171.235C343.313 171.235 343.547 170.728 343.313 170.474C340.188 167.254 336.908 165.166 335.365 160.658C335.072 159.779 334.096 159.565 333.295 159.779C327.476 161.321 323.219 154.003 321.969 149.26C320.993 145.572 321.715 141.708 320.563 137.98C319.958 135.99 318.669 132.145 316.013 133.609C315.818 133.706 315.798 133.98 316.013 134.077V134.038Z" fill="#BDEDFF"/>
<g style="mix-blend-mode:multiply" opacity="0.3">
<path d="M316.013 134.038C319.02 135.502 318.317 144.245 318.493 146.88C318.727 150.295 319.821 152.871 321.559 155.798C324.488 160.736 328.53 164.248 334.467 162.707L332.397 161.829C334.018 166.688 337.415 171.489 342.981 171.235C343.313 171.235 343.547 170.728 343.313 170.474C340.188 167.254 336.908 165.166 335.365 160.658C335.072 159.779 334.096 159.565 333.295 159.779C327.476 161.321 323.219 154.003 321.969 149.26C320.993 145.572 321.715 141.708 320.563 137.98C319.958 135.99 318.669 132.145 316.013 133.609C315.818 133.706 315.798 133.98 316.013 134.077V134.038Z" fill="#BDEDFF"/>
</g>
<path d="M365.027 176.485C356.279 180.934 348.39 187.355 340.676 193.385C333.236 199.201 326.304 207.573 317.888 211.847C310.467 215.614 306.425 212.842 300.586 208.178C297.989 206.11 295.548 204.568 292.267 203.826C287.971 202.831 283.48 203.182 279.164 202.343C271.529 200.86 264.226 193.951 271.334 186.613C271.705 186.223 271.275 185.481 270.748 185.579C262.898 187.238 264.109 196.898 268.932 201.289C273.072 205.075 278.872 205.778 284.222 206.207C288.674 206.558 293.049 206.812 296.876 209.388C299.395 211.086 301.309 213.545 303.945 215.067C313.924 220.902 323.238 212.433 330.288 206.09C341.555 195.922 354.873 187.921 365.672 177.343C366.062 176.973 365.496 176.251 365.027 176.504V176.485Z" fill="#BDEDFF"/>
<g style="mix-blend-mode:multiply" opacity="0.3">
<path d="M365.027 176.485C356.279 180.934 348.39 187.355 340.676 193.385C333.236 199.201 326.304 207.573 317.888 211.847C310.467 215.614 306.425 212.842 300.586 208.178C297.989 206.11 295.548 204.568 292.267 203.826C287.971 202.831 283.48 203.182 279.164 202.343C271.529 200.86 264.226 193.951 271.334 186.613C271.705 186.223 271.275 185.481 270.748 185.579C262.898 187.238 264.109 196.898 268.932 201.289C273.072 205.075 278.872 205.778 284.222 206.207C288.674 206.558 293.049 206.812 296.876 209.388C299.395 211.086 301.309 213.545 303.945 215.067C313.924 220.902 323.238 212.433 330.288 206.09C341.555 195.922 354.873 187.921 365.672 177.343C366.062 176.973 365.496 176.251 365.027 176.504V176.485Z" fill="#BDEDFF"/>
</g>
<path d="M276.724 104.55C279.457 103.496 281.644 102.072 283.363 99.6516C285.374 96.8413 285.374 93.4456 286.917 90.5378C289.163 86.3419 293.693 84.0586 296.583 80.3701C298.594 77.8136 299.786 74.8862 300.625 71.7442C300.723 71.3929 300.176 71.1978 300 71.471C297.813 74.5349 295.529 77.4428 292.873 80.1164C290.705 82.3022 287.932 84.1562 286.116 86.6932C284.984 88.274 284.632 89.7962 284.124 91.6307C282.64 96.978 280.863 100.432 276.353 103.886C276.021 104.14 276.313 104.687 276.704 104.531L276.724 104.55Z" fill="#BDEDFF"/>
<path d="M414.745 57.693C414.647 60.5618 412.538 62.8061 411.874 65.5187C411.249 68.0167 411.484 70.6514 411.816 73.1689C412.811 80.741 414.256 88.1959 416.541 95.4753C416.619 95.729 416.971 95.5924 416.971 95.3582C416.717 87.7081 415.155 80.4287 414.139 72.8761C413.632 69.0706 414.081 66.2018 415.174 62.5914C415.78 60.5813 416.014 59.8397 415.487 57.7125C415.389 57.3417 414.764 57.2441 414.745 57.7125V57.693Z" fill="#BDEDFF"/>
<g style="mix-blend-mode:multiply" opacity="0.3">
<path d="M414.745 57.693C414.647 60.5618 412.538 62.8061 411.874 65.5187C411.249 68.0167 411.484 70.6514 411.816 73.1689C412.811 80.741 414.256 88.1959 416.541 95.4753C416.619 95.729 416.971 95.5924 416.971 95.3582C416.717 87.7081 415.155 80.4287 414.139 72.8761C413.632 69.0706 414.081 66.2018 415.174 62.5914C415.78 60.5813 416.014 59.8397 415.487 57.7125C415.389 57.3417 414.764 57.2441 414.745 57.7125V57.693Z" fill="#BDEDFF"/>
</g>
<path d="M357.353 0.960953C350.401 21.7647 343.82 42.6854 336.263 63.2745C336.205 63.4306 336.439 63.5282 336.517 63.372C346.398 43.6807 352.823 22.4672 358.017 1.13659C358.115 0.765797 357.49 0.590156 357.373 0.960953H357.353Z" fill="#BDEDFF"/>
<g style="mix-blend-mode:multiply" opacity="0.3">
<path d="M357.353 0.960953C350.401 21.7647 343.82 42.6854 336.263 63.2745C336.205 63.4306 336.439 63.5282 336.517 63.372C346.398 43.6807 352.823 22.4672 358.017 1.13659C358.115 0.765797 357.49 0.590156 357.373 0.960953H357.353Z" fill="#BDEDFF"/>
</g>
<path d="M337.025 321.545C337.025 321.545 337.318 320.823 337.864 319.554C338.489 318.344 339.349 316.549 340.813 314.675C343.586 310.889 348.702 306.654 354.756 305.035C357.724 304.215 360.927 303.961 363.699 304.273C366.433 304.586 368.952 305.522 370.983 306.615C372.018 307.123 372.897 307.767 373.717 308.274C374.088 308.567 374.42 308.801 374.694 309.016C375.123 309.328 375.357 309.504 375.357 309.504L370.163 315.846C376.51 315.534 384.223 318.286 390.413 324.16C392.386 315.807 391.507 305.718 386.43 295.94L381.235 302.283C381.235 302.283 380.923 302.049 380.357 301.619C380.005 301.346 379.556 301.014 379.068 300.644C377.974 299.941 376.803 299.102 375.357 298.38C372.546 296.877 368.913 295.472 364.754 295.004C360.653 294.555 356.377 294.906 352.237 296.057C343.918 298.321 337.103 303.981 333.393 309.055C331.44 311.572 330.268 313.953 329.448 315.612C328.726 317.329 328.335 318.305 328.335 318.305L337.064 321.525L337.025 321.545Z" fill="white"/>
<path d="M384.008 334.406C384.008 334.406 383.95 335.342 383.832 336.982C383.5 338.582 383.169 340.924 381.802 343.422C380.532 345.92 378.462 348.613 375.592 350.818C372.76 353.043 369.128 354.741 365.32 355.405C357.783 356.927 349.679 353.824 345.519 350.018C344.992 349.53 344.504 349.062 344.016 348.613C343.586 348.125 343.156 347.657 342.766 347.208C342.278 346.603 342.375 346.701 342.239 346.525C342.141 346.408 342.063 346.291 341.985 346.174C341.672 345.764 341.497 345.53 341.497 345.53L348.234 340.865C342.122 339.792 335.658 334.211 330.737 327.282C328.979 331.186 327.554 335.401 326.753 340.085C325.972 344.749 325.855 349.94 327.085 355.483L333.822 350.818C333.822 350.818 334.057 351.15 334.486 351.716C334.584 351.853 334.701 352.009 334.838 352.184C335.033 352.438 334.896 352.302 335.58 353.121C336.127 353.726 336.693 354.39 337.318 355.073C337.982 355.697 338.704 356.361 339.427 357.063C342.473 359.737 346.652 362.176 351.397 363.601C356.064 365.104 361.766 365.572 367 364.557C372.292 363.621 377.271 361.318 381.235 358.215C385.238 355.151 388.226 351.306 390.062 347.637C391.995 343.988 392.581 340.534 393.01 338.192C393.167 335.811 393.264 334.445 393.264 334.445L383.969 334.406H384.008Z" fill="white"/>
<path d="M128.685 177.714C128.685 177.714 128.919 177.402 129.349 176.855C129.817 176.348 130.462 175.606 131.399 174.884C133.235 173.421 136.261 172.055 139.386 172.055C140.928 172.055 142.51 172.347 143.799 172.855C145.068 173.362 146.162 174.143 147.002 174.943C147.431 175.314 147.783 175.743 148.095 176.094C148.232 176.289 148.368 176.446 148.466 176.582C148.622 176.797 148.72 176.914 148.72 176.914L145.381 179.295C148.486 179.978 151.844 182.32 154.051 185.95C156.101 182.183 157 177.187 155.828 171.82L152.489 174.201C152.489 174.201 152.372 174.045 152.157 173.772C152.02 173.596 151.844 173.382 151.669 173.128C151.239 172.64 150.77 172.094 150.165 171.547C148.993 170.454 147.431 169.303 145.498 168.542C143.584 167.781 141.475 167.39 139.327 167.41C135.012 167.41 130.989 169.264 128.528 171.215C127.259 172.172 126.38 173.167 125.756 173.85C125.189 174.572 124.857 175.001 124.857 175.001L128.646 177.695L128.685 177.714Z" fill="white"/>
<path d="M149.657 190.068C149.657 190.068 149.501 190.516 149.228 191.297C148.857 192.019 148.388 193.112 147.412 194.146C146.474 195.181 145.127 196.215 143.448 196.898C141.788 197.601 139.815 197.932 137.882 197.757C134.055 197.503 130.54 194.947 129.036 192.566C128.841 192.253 128.665 191.961 128.489 191.687C128.353 191.395 128.196 191.121 128.079 190.848C127.923 190.497 127.962 190.556 127.923 190.438C127.904 190.36 127.865 190.302 127.845 190.243C127.747 190.009 127.689 189.872 127.689 189.872L131.555 188.506C128.743 187.179 126.361 183.647 124.896 179.666C123.549 181.325 122.299 183.179 121.303 185.325C120.307 187.472 119.585 189.951 119.448 192.8L123.315 191.434C123.315 191.434 123.393 191.629 123.51 191.961C123.549 192.039 123.568 192.136 123.607 192.234C123.666 192.39 123.608 192.292 123.842 192.78C124.018 193.151 124.213 193.541 124.428 193.951C124.662 194.342 124.916 194.751 125.189 195.181C126.302 196.859 128.001 198.596 130.11 199.904C132.161 201.231 134.855 202.206 137.511 202.402C140.186 202.636 142.901 202.187 145.225 201.211C147.568 200.255 149.501 198.791 150.868 197.269C152.274 195.766 153.016 194.166 153.524 193.093C153.914 191.961 154.129 191.317 154.129 191.317L149.638 190.087L149.657 190.068Z" fill="white"/>
</g>
<defs>
<clipPath id="clip0_8_2673">
<rect width="482" height="494" fill="white" transform="translate(-49.2118 0.0437012)"/>
</clipPath>
</defs>
</svg>
